%TF.GenerationSoftware,KiCad,Pcbnew,8.0.8*%
%TF.CreationDate,2025-02-14T18:20:32-05:00*%
%TF.ProjectId,caravel-M.2-card-QFN,63617261-7665-46c2-9d4d-2e322d636172,1*%
%TF.SameCoordinates,Original*%
%TF.FileFunction,Legend,Bot*%
%TF.FilePolarity,Positive*%
%FSLAX46Y46*%
G04 Gerber Fmt 4.6, Leading zero omitted, Abs format (unit mm)*
G04 Created by KiCad (PCBNEW 8.0.8) date 2025-02-14 18:20:32*
%MOMM*%
%LPD*%
G01*
G04 APERTURE LIST*
G04 Aperture macros list*
%AMRoundRect*
0 Rectangle with rounded corners*
0 $1 Rounding radius*
0 $2 $3 $4 $5 $6 $7 $8 $9 X,Y pos of 4 corners*
0 Add a 4 corners polygon primitive as box body*
4,1,4,$2,$3,$4,$5,$6,$7,$8,$9,$2,$3,0*
0 Add four circle primitives for the rounded corners*
1,1,$1+$1,$2,$3*
1,1,$1+$1,$4,$5*
1,1,$1+$1,$6,$7*
1,1,$1+$1,$8,$9*
0 Add four rect primitives between the rounded corners*
20,1,$1+$1,$2,$3,$4,$5,0*
20,1,$1+$1,$4,$5,$6,$7,0*
20,1,$1+$1,$6,$7,$8,$9,0*
20,1,$1+$1,$8,$9,$2,$3,0*%
%AMFreePoly0*
4,1,6,0.300000,0.000000,0.400000,-0.300000,-0.300000,-0.300000,-0.300000,0.300000,0.400000,0.300000,0.300000,0.000000,0.300000,0.000000,$1*%
%AMFreePoly1*
4,1,6,0.250000,-0.300000,-0.250000,-0.300000,-0.350000,0.000000,-0.250000,0.300000,0.250000,0.300000,0.250000,-0.300000,0.250000,-0.300000,$1*%
G04 Aperture macros list end*
%ADD10C,0.150000*%
%ADD11C,0.100000*%
%ADD12C,0.120000*%
%ADD13R,1.600000X1.250000*%
%ADD14FreePoly0,270.000000*%
%ADD15FreePoly1,270.000000*%
%ADD16R,0.350000X1.950000*%
%ADD17C,5.703200*%
%ADD18C,1.500000*%
%ADD19RoundRect,0.155000X-0.155000X0.212500X-0.155000X-0.212500X0.155000X-0.212500X0.155000X0.212500X0*%
%ADD20RoundRect,0.155000X-0.212500X-0.155000X0.212500X-0.155000X0.212500X0.155000X-0.212500X0.155000X0*%
%ADD21RoundRect,0.160000X0.197500X0.160000X-0.197500X0.160000X-0.197500X-0.160000X0.197500X-0.160000X0*%
G04 APERTURE END LIST*
D10*
X72448252Y-31207868D02*
X71781586Y-32207868D01*
X71781586Y-31207868D02*
X72448252Y-32207868D01*
X70876824Y-32207868D02*
X71448252Y-32207868D01*
X71162538Y-32207868D02*
X71162538Y-31207868D01*
X71162538Y-31207868D02*
X71257776Y-31350725D01*
X71257776Y-31350725D02*
X71353014Y-31445963D01*
X71353014Y-31445963D02*
X71448252Y-31493582D01*
X79672062Y-29007868D02*
X79672062Y-29722153D01*
X79672062Y-29722153D02*
X79719681Y-29865010D01*
X79719681Y-29865010D02*
X79814919Y-29960249D01*
X79814919Y-29960249D02*
X79957776Y-30007868D01*
X79957776Y-30007868D02*
X80053014Y-30007868D01*
X79195871Y-30007868D02*
X79195871Y-29007868D01*
X79195871Y-29007868D02*
X78814919Y-29007868D01*
X78814919Y-29007868D02*
X78719681Y-29055487D01*
X78719681Y-29055487D02*
X78672062Y-29103106D01*
X78672062Y-29103106D02*
X78624443Y-29198344D01*
X78624443Y-29198344D02*
X78624443Y-29341201D01*
X78624443Y-29341201D02*
X78672062Y-29436439D01*
X78672062Y-29436439D02*
X78719681Y-29484058D01*
X78719681Y-29484058D02*
X78814919Y-29531677D01*
X78814919Y-29531677D02*
X79195871Y-29531677D01*
X78243490Y-29103106D02*
X78195871Y-29055487D01*
X78195871Y-29055487D02*
X78100633Y-29007868D01*
X78100633Y-29007868D02*
X77862538Y-29007868D01*
X77862538Y-29007868D02*
X77767300Y-29055487D01*
X77767300Y-29055487D02*
X77719681Y-29103106D01*
X77719681Y-29103106D02*
X77672062Y-29198344D01*
X77672062Y-29198344D02*
X77672062Y-29293582D01*
X77672062Y-29293582D02*
X77719681Y-29436439D01*
X77719681Y-29436439D02*
X78291109Y-30007868D01*
X78291109Y-30007868D02*
X77672062Y-30007868D01*
X72572062Y-29007868D02*
X72572062Y-29722153D01*
X72572062Y-29722153D02*
X72619681Y-29865010D01*
X72619681Y-29865010D02*
X72714919Y-29960249D01*
X72714919Y-29960249D02*
X72857776Y-30007868D01*
X72857776Y-30007868D02*
X72953014Y-30007868D01*
X72095871Y-30007868D02*
X72095871Y-29007868D01*
X72095871Y-29007868D02*
X71714919Y-29007868D01*
X71714919Y-29007868D02*
X71619681Y-29055487D01*
X71619681Y-29055487D02*
X71572062Y-29103106D01*
X71572062Y-29103106D02*
X71524443Y-29198344D01*
X71524443Y-29198344D02*
X71524443Y-29341201D01*
X71524443Y-29341201D02*
X71572062Y-29436439D01*
X71572062Y-29436439D02*
X71619681Y-29484058D01*
X71619681Y-29484058D02*
X71714919Y-29531677D01*
X71714919Y-29531677D02*
X72095871Y-29531677D01*
X70572062Y-30007868D02*
X71143490Y-30007868D01*
X70857776Y-30007868D02*
X70857776Y-29007868D01*
X70857776Y-29007868D02*
X70953014Y-29150725D01*
X70953014Y-29150725D02*
X71048252Y-29245963D01*
X71048252Y-29245963D02*
X71143490Y-29293582D01*
D11*
X64394211Y-38796895D02*
X64508496Y-38796895D01*
X64508496Y-38796895D02*
X64565639Y-38834990D01*
X64565639Y-38834990D02*
X64594211Y-38873085D01*
X64594211Y-38873085D02*
X64651353Y-38987371D01*
X64651353Y-38987371D02*
X64679925Y-39139752D01*
X64679925Y-39139752D02*
X64679925Y-39444514D01*
X64679925Y-39444514D02*
X64651353Y-39520704D01*
X64651353Y-39520704D02*
X64622782Y-39558800D01*
X64622782Y-39558800D02*
X64565639Y-39596895D01*
X64565639Y-39596895D02*
X64451353Y-39596895D01*
X64451353Y-39596895D02*
X64394211Y-39558800D01*
X64394211Y-39558800D02*
X64365639Y-39520704D01*
X64365639Y-39520704D02*
X64337068Y-39444514D01*
X64337068Y-39444514D02*
X64337068Y-39254038D01*
X64337068Y-39254038D02*
X64365639Y-39177847D01*
X64365639Y-39177847D02*
X64394211Y-39139752D01*
X64394211Y-39139752D02*
X64451353Y-39101657D01*
X64451353Y-39101657D02*
X64565639Y-39101657D01*
X64565639Y-39101657D02*
X64622782Y-39139752D01*
X64622782Y-39139752D02*
X64651353Y-39177847D01*
X64651353Y-39177847D02*
X64679925Y-39254038D01*
X63822782Y-38796895D02*
X63937067Y-38796895D01*
X63937067Y-38796895D02*
X63994210Y-38834990D01*
X63994210Y-38834990D02*
X64022782Y-38873085D01*
X64022782Y-38873085D02*
X64079924Y-38987371D01*
X64079924Y-38987371D02*
X64108496Y-39139752D01*
X64108496Y-39139752D02*
X64108496Y-39444514D01*
X64108496Y-39444514D02*
X64079924Y-39520704D01*
X64079924Y-39520704D02*
X64051353Y-39558800D01*
X64051353Y-39558800D02*
X63994210Y-39596895D01*
X63994210Y-39596895D02*
X63879924Y-39596895D01*
X63879924Y-39596895D02*
X63822782Y-39558800D01*
X63822782Y-39558800D02*
X63794210Y-39520704D01*
X63794210Y-39520704D02*
X63765639Y-39444514D01*
X63765639Y-39444514D02*
X63765639Y-39254038D01*
X63765639Y-39254038D02*
X63794210Y-39177847D01*
X63794210Y-39177847D02*
X63822782Y-39139752D01*
X63822782Y-39139752D02*
X63879924Y-39101657D01*
X63879924Y-39101657D02*
X63994210Y-39101657D01*
X63994210Y-39101657D02*
X64051353Y-39139752D01*
X64051353Y-39139752D02*
X64079924Y-39177847D01*
X64079924Y-39177847D02*
X64108496Y-39254038D01*
X74919925Y-38873085D02*
X74891353Y-38834990D01*
X74891353Y-38834990D02*
X74834211Y-38796895D01*
X74834211Y-38796895D02*
X74691353Y-38796895D01*
X74691353Y-38796895D02*
X74634211Y-38834990D01*
X74634211Y-38834990D02*
X74605639Y-38873085D01*
X74605639Y-38873085D02*
X74577068Y-38949276D01*
X74577068Y-38949276D02*
X74577068Y-39025466D01*
X74577068Y-39025466D02*
X74605639Y-39139752D01*
X74605639Y-39139752D02*
X74948496Y-39596895D01*
X74948496Y-39596895D02*
X74577068Y-39596895D01*
X74062782Y-39063561D02*
X74062782Y-39596895D01*
X74205639Y-38758800D02*
X74348496Y-39330228D01*
X74348496Y-39330228D02*
X73977067Y-39330228D01*
X82879925Y-38893085D02*
X82851353Y-38854990D01*
X82851353Y-38854990D02*
X82794211Y-38816895D01*
X82794211Y-38816895D02*
X82651353Y-38816895D01*
X82651353Y-38816895D02*
X82594211Y-38854990D01*
X82594211Y-38854990D02*
X82565639Y-38893085D01*
X82565639Y-38893085D02*
X82537068Y-38969276D01*
X82537068Y-38969276D02*
X82537068Y-39045466D01*
X82537068Y-39045466D02*
X82565639Y-39159752D01*
X82565639Y-39159752D02*
X82908496Y-39616895D01*
X82908496Y-39616895D02*
X82537068Y-39616895D01*
X78089925Y-38863085D02*
X78061353Y-38824990D01*
X78061353Y-38824990D02*
X78004211Y-38786895D01*
X78004211Y-38786895D02*
X77861353Y-38786895D01*
X77861353Y-38786895D02*
X77804211Y-38824990D01*
X77804211Y-38824990D02*
X77775639Y-38863085D01*
X77775639Y-38863085D02*
X77747068Y-38939276D01*
X77747068Y-38939276D02*
X77747068Y-39015466D01*
X77747068Y-39015466D02*
X77775639Y-39129752D01*
X77775639Y-39129752D02*
X78118496Y-39586895D01*
X78118496Y-39586895D02*
X77747068Y-39586895D01*
X77518496Y-38863085D02*
X77489924Y-38824990D01*
X77489924Y-38824990D02*
X77432782Y-38786895D01*
X77432782Y-38786895D02*
X77289924Y-38786895D01*
X77289924Y-38786895D02*
X77232782Y-38824990D01*
X77232782Y-38824990D02*
X77204210Y-38863085D01*
X77204210Y-38863085D02*
X77175639Y-38939276D01*
X77175639Y-38939276D02*
X77175639Y-39015466D01*
X77175639Y-39015466D02*
X77204210Y-39129752D01*
X77204210Y-39129752D02*
X77547067Y-39586895D01*
X77547067Y-39586895D02*
X77175639Y-39586895D01*
D10*
X80181586Y-33012629D02*
X80229205Y-33060249D01*
X80229205Y-33060249D02*
X80372062Y-33107868D01*
X80372062Y-33107868D02*
X80467300Y-33107868D01*
X80467300Y-33107868D02*
X80610157Y-33060249D01*
X80610157Y-33060249D02*
X80705395Y-32965010D01*
X80705395Y-32965010D02*
X80753014Y-32869772D01*
X80753014Y-32869772D02*
X80800633Y-32679296D01*
X80800633Y-32679296D02*
X80800633Y-32536439D01*
X80800633Y-32536439D02*
X80753014Y-32345963D01*
X80753014Y-32345963D02*
X80705395Y-32250725D01*
X80705395Y-32250725D02*
X80610157Y-32155487D01*
X80610157Y-32155487D02*
X80467300Y-32107868D01*
X80467300Y-32107868D02*
X80372062Y-32107868D01*
X80372062Y-32107868D02*
X80229205Y-32155487D01*
X80229205Y-32155487D02*
X80181586Y-32203106D01*
X79229205Y-33107868D02*
X79800633Y-33107868D01*
X79514919Y-33107868D02*
X79514919Y-32107868D01*
X79514919Y-32107868D02*
X79610157Y-32250725D01*
X79610157Y-32250725D02*
X79705395Y-32345963D01*
X79705395Y-32345963D02*
X79800633Y-32393582D01*
X78895871Y-32107868D02*
X78276824Y-32107868D01*
X78276824Y-32107868D02*
X78610157Y-32488820D01*
X78610157Y-32488820D02*
X78467300Y-32488820D01*
X78467300Y-32488820D02*
X78372062Y-32536439D01*
X78372062Y-32536439D02*
X78324443Y-32584058D01*
X78324443Y-32584058D02*
X78276824Y-32679296D01*
X78276824Y-32679296D02*
X78276824Y-32917391D01*
X78276824Y-32917391D02*
X78324443Y-33012629D01*
X78324443Y-33012629D02*
X78372062Y-33060249D01*
X78372062Y-33060249D02*
X78467300Y-33107868D01*
X78467300Y-33107868D02*
X78753014Y-33107868D01*
X78753014Y-33107868D02*
X78848252Y-33060249D01*
X78848252Y-33060249D02*
X78895871Y-33012629D01*
X72081586Y-35312629D02*
X72129205Y-35360249D01*
X72129205Y-35360249D02*
X72272062Y-35407868D01*
X72272062Y-35407868D02*
X72367300Y-35407868D01*
X72367300Y-35407868D02*
X72510157Y-35360249D01*
X72510157Y-35360249D02*
X72605395Y-35265010D01*
X72605395Y-35265010D02*
X72653014Y-35169772D01*
X72653014Y-35169772D02*
X72700633Y-34979296D01*
X72700633Y-34979296D02*
X72700633Y-34836439D01*
X72700633Y-34836439D02*
X72653014Y-34645963D01*
X72653014Y-34645963D02*
X72605395Y-34550725D01*
X72605395Y-34550725D02*
X72510157Y-34455487D01*
X72510157Y-34455487D02*
X72367300Y-34407868D01*
X72367300Y-34407868D02*
X72272062Y-34407868D01*
X72272062Y-34407868D02*
X72129205Y-34455487D01*
X72129205Y-34455487D02*
X72081586Y-34503106D01*
X71129205Y-35407868D02*
X71700633Y-35407868D01*
X71414919Y-35407868D02*
X71414919Y-34407868D01*
X71414919Y-34407868D02*
X71510157Y-34550725D01*
X71510157Y-34550725D02*
X71605395Y-34645963D01*
X71605395Y-34645963D02*
X71700633Y-34693582D01*
X70748252Y-34503106D02*
X70700633Y-34455487D01*
X70700633Y-34455487D02*
X70605395Y-34407868D01*
X70605395Y-34407868D02*
X70367300Y-34407868D01*
X70367300Y-34407868D02*
X70272062Y-34455487D01*
X70272062Y-34455487D02*
X70224443Y-34503106D01*
X70224443Y-34503106D02*
X70176824Y-34598344D01*
X70176824Y-34598344D02*
X70176824Y-34693582D01*
X70176824Y-34693582D02*
X70224443Y-34836439D01*
X70224443Y-34836439D02*
X70795871Y-35407868D01*
X70795871Y-35407868D02*
X70176824Y-35407868D01*
X78805395Y-35407868D02*
X79138728Y-34931677D01*
X79376823Y-35407868D02*
X79376823Y-34407868D01*
X79376823Y-34407868D02*
X78995871Y-34407868D01*
X78995871Y-34407868D02*
X78900633Y-34455487D01*
X78900633Y-34455487D02*
X78853014Y-34503106D01*
X78853014Y-34503106D02*
X78805395Y-34598344D01*
X78805395Y-34598344D02*
X78805395Y-34741201D01*
X78805395Y-34741201D02*
X78853014Y-34836439D01*
X78853014Y-34836439D02*
X78900633Y-34884058D01*
X78900633Y-34884058D02*
X78995871Y-34931677D01*
X78995871Y-34931677D02*
X79376823Y-34931677D01*
X77853014Y-35407868D02*
X78424442Y-35407868D01*
X78138728Y-35407868D02*
X78138728Y-34407868D01*
X78138728Y-34407868D02*
X78233966Y-34550725D01*
X78233966Y-34550725D02*
X78329204Y-34645963D01*
X78329204Y-34645963D02*
X78424442Y-34693582D01*
D12*
X76738729Y-31003049D02*
X72738729Y-31003049D01*
X72738729Y-31003049D02*
X72738729Y-34303049D01*
D10*
X84250000Y-37950000D02*
X62750000Y-37950000D01*
X62687106Y-21787105D02*
G75*
G02*
X63687106Y-20787105I1000003J-3D01*
G01*
X75348336Y-39481664D02*
G75*
G02*
X76851664Y-39481664I751664J0D01*
G01*
X80450000Y-20732406D02*
G75*
G02*
X74450000Y-20732406I-3000000J52406D01*
G01*
X83222895Y-20747104D02*
G75*
G02*
X84222896Y-21747104I5J-999996D01*
G01*
D12*
X77078729Y-32768884D02*
X77078729Y-32537214D01*
X77798729Y-32768884D02*
X77798729Y-32537214D01*
X74254564Y-34593049D02*
X74022894Y-34593049D01*
X74254564Y-35313049D02*
X74022894Y-35313049D01*
X76171108Y-35333050D02*
X76506350Y-35333050D01*
X76171108Y-34573048D02*
X76506350Y-34573048D01*
%LPC*%
G36*
X76638729Y-28803049D02*
G01*
X77238729Y-28803049D01*
X77238729Y-30203049D01*
X76638729Y-30203049D01*
X76638729Y-28803049D01*
G37*
G36*
X73438729Y-28803049D02*
G01*
X74038729Y-28803049D01*
X74038729Y-30203049D01*
X73438729Y-30203049D01*
X73438729Y-28803049D01*
G37*
D13*
X73738729Y-33453049D03*
X75838729Y-33453049D03*
X75838729Y-31853049D03*
X73738729Y-31853049D03*
D14*
X76938729Y-29103049D03*
D15*
X76938729Y-29953049D03*
X73738729Y-29953049D03*
D14*
X73738729Y-29103049D03*
D16*
X82499220Y-40976000D03*
X81998840Y-40976000D03*
X81498460Y-40976000D03*
X80998080Y-40976000D03*
X80497700Y-40976000D03*
X79999860Y-40976000D03*
X79499480Y-40976000D03*
X78999100Y-40976000D03*
X78498720Y-40976000D03*
X77998340Y-40976000D03*
X77497960Y-40976000D03*
X74998600Y-40976000D03*
X74498220Y-40976000D03*
X73997840Y-40976000D03*
X73500000Y-40976000D03*
X73002160Y-40976000D03*
X72501780Y-40976000D03*
X72001400Y-40976000D03*
X71501020Y-40976000D03*
X71000640Y-40976000D03*
X70500260Y-40976000D03*
X70002420Y-40976000D03*
X69502040Y-40976000D03*
X69001660Y-40976000D03*
X68501280Y-40976000D03*
X68000900Y-40976000D03*
X67500520Y-40976000D03*
X67000140Y-40976000D03*
X66502300Y-40976000D03*
X66001920Y-40976000D03*
X65501540Y-40976000D03*
X65001160Y-40976000D03*
X64500780Y-40976000D03*
D17*
X77450000Y-20500000D03*
D18*
X83238729Y-26583049D03*
X83238729Y-21703049D03*
D19*
X77438729Y-32085549D03*
X77438729Y-33220549D03*
D20*
X74706229Y-34953049D03*
X73571229Y-34953049D03*
D21*
X75741229Y-34953049D03*
X76936229Y-34953049D03*
G36*
X83343039Y-40022734D02*
G01*
X83388794Y-40075538D01*
X83400000Y-40127049D01*
X83400000Y-42376000D01*
X83380315Y-42443039D01*
X83327511Y-42488794D01*
X83276000Y-42500000D01*
X76824000Y-42500000D01*
X76756961Y-42480315D01*
X76711206Y-42427511D01*
X76700000Y-42376000D01*
X76700000Y-40127049D01*
X76719685Y-40060010D01*
X76772489Y-40014255D01*
X76824000Y-40003049D01*
X83276000Y-40003049D01*
X83343039Y-40022734D01*
G37*
G36*
X75443039Y-40022734D02*
G01*
X75488794Y-40075538D01*
X75500000Y-40127049D01*
X75500000Y-42376000D01*
X75480315Y-42443039D01*
X75427511Y-42488794D01*
X75376000Y-42500000D01*
X63624000Y-42500000D01*
X63556961Y-42480315D01*
X63511206Y-42427511D01*
X63500000Y-42376000D01*
X63500000Y-40127049D01*
X63519685Y-40060010D01*
X63572489Y-40014255D01*
X63624000Y-40003049D01*
X75376000Y-40003049D01*
X75443039Y-40022734D01*
G37*
%LPD*%
M02*
