%TF.GenerationSoftware,KiCad,Pcbnew,8.0.8*%
%TF.CreationDate,2025-02-14T18:20:21-05:00*%
%TF.ProjectId,caravel-M.2-card-QFN,63617261-7665-46c2-9d4d-2e322d636172,1*%
%TF.SameCoordinates,Original*%
%TF.FileFunction,Drillmap*%
%TF.FilePolarity,Positive*%
%FSLAX45Y45*%
G04 Gerber Fmt 4.5, Leading zero omitted, Abs format (unit mm)*
G04 Created by KiCad (PCBNEW 8.0.8) date 2025-02-14 18:20:21*
%MOMM*%
%LPD*%
G01*
G04 APERTURE LIST*
%ADD10C,0.010000*%
%ADD11C,0.200000*%
G04 APERTURE END LIST*
D10*
X6245000Y-2150000D02*
X6245000Y-3795000D01*
X6350000Y-4250000D02*
X6350000Y-3900000D01*
X7550000Y-3960000D02*
X7550000Y-4250000D01*
X7550000Y-4250000D02*
X6350000Y-4250000D01*
X7570000Y-2050000D02*
X6345000Y-2050000D01*
X7670000Y-3960000D02*
X7670000Y-4250000D01*
X8340000Y-3900000D02*
X8340000Y-4250000D01*
X8340000Y-4250000D02*
X7670000Y-4250000D01*
X8345000Y-2050000D02*
X7920000Y-2050000D01*
X8445000Y-2150000D02*
X8445000Y-3795000D01*
X6245000Y-2150000D02*
G75*
G02*
X6345000Y-2050000I100000J0D01*
G01*
X6297500Y-3847500D02*
G75*
G02*
X6245000Y-3795000I0J52500D01*
G01*
X6297500Y-3847500D02*
G75*
G02*
X6350000Y-3900000I0J-52500D01*
G01*
X7550000Y-3960000D02*
G75*
G02*
X7670000Y-3960000I60000J0D01*
G01*
X7920000Y-2050000D02*
G75*
G02*
X7570000Y-2050000I-175000J0D01*
G01*
X8340000Y-3900000D02*
G75*
G02*
X8392500Y-3847500I52500J0D01*
G01*
X8345000Y-2050000D02*
G75*
G02*
X8445000Y-2150000I0J-100000D01*
G01*
X8445000Y-3795000D02*
G75*
G02*
X8392500Y-3847500I-52500J0D01*
G01*
D11*
X6505277Y-4561984D02*
X6505277Y-4361984D01*
X6505277Y-4361984D02*
X6552896Y-4361984D01*
X6552896Y-4361984D02*
X6581467Y-4371508D01*
X6581467Y-4371508D02*
X6600515Y-4390555D01*
X6600515Y-4390555D02*
X6610039Y-4409603D01*
X6610039Y-4409603D02*
X6619562Y-4447698D01*
X6619562Y-4447698D02*
X6619562Y-4476270D01*
X6619562Y-4476270D02*
X6610039Y-4514365D01*
X6610039Y-4514365D02*
X6600515Y-4533412D01*
X6600515Y-4533412D02*
X6581467Y-4552460D01*
X6581467Y-4552460D02*
X6552896Y-4561984D01*
X6552896Y-4561984D02*
X6505277Y-4561984D01*
X6705277Y-4561984D02*
X6705277Y-4428650D01*
X6705277Y-4466746D02*
X6714801Y-4447698D01*
X6714801Y-4447698D02*
X6724324Y-4438174D01*
X6724324Y-4438174D02*
X6743372Y-4428650D01*
X6743372Y-4428650D02*
X6762420Y-4428650D01*
X6829086Y-4561984D02*
X6829086Y-4428650D01*
X6829086Y-4361984D02*
X6819562Y-4371508D01*
X6819562Y-4371508D02*
X6829086Y-4381031D01*
X6829086Y-4381031D02*
X6838610Y-4371508D01*
X6838610Y-4371508D02*
X6829086Y-4361984D01*
X6829086Y-4361984D02*
X6829086Y-4381031D01*
X6952896Y-4561984D02*
X6933848Y-4552460D01*
X6933848Y-4552460D02*
X6924324Y-4533412D01*
X6924324Y-4533412D02*
X6924324Y-4361984D01*
X7057658Y-4561984D02*
X7038610Y-4552460D01*
X7038610Y-4552460D02*
X7029086Y-4533412D01*
X7029086Y-4533412D02*
X7029086Y-4361984D01*
X7286229Y-4561984D02*
X7286229Y-4361984D01*
X7286229Y-4361984D02*
X7352896Y-4504841D01*
X7352896Y-4504841D02*
X7419562Y-4361984D01*
X7419562Y-4361984D02*
X7419562Y-4561984D01*
X7600515Y-4561984D02*
X7600515Y-4457222D01*
X7600515Y-4457222D02*
X7590991Y-4438174D01*
X7590991Y-4438174D02*
X7571943Y-4428650D01*
X7571943Y-4428650D02*
X7533848Y-4428650D01*
X7533848Y-4428650D02*
X7514801Y-4438174D01*
X7600515Y-4552460D02*
X7581467Y-4561984D01*
X7581467Y-4561984D02*
X7533848Y-4561984D01*
X7533848Y-4561984D02*
X7514801Y-4552460D01*
X7514801Y-4552460D02*
X7505277Y-4533412D01*
X7505277Y-4533412D02*
X7505277Y-4514365D01*
X7505277Y-4514365D02*
X7514801Y-4495317D01*
X7514801Y-4495317D02*
X7533848Y-4485793D01*
X7533848Y-4485793D02*
X7581467Y-4485793D01*
X7581467Y-4485793D02*
X7600515Y-4476270D01*
X7695753Y-4428650D02*
X7695753Y-4628650D01*
X7695753Y-4438174D02*
X7714801Y-4428650D01*
X7714801Y-4428650D02*
X7752896Y-4428650D01*
X7752896Y-4428650D02*
X7771943Y-4438174D01*
X7771943Y-4438174D02*
X7781467Y-4447698D01*
X7781467Y-4447698D02*
X7790991Y-4466746D01*
X7790991Y-4466746D02*
X7790991Y-4523889D01*
X7790991Y-4523889D02*
X7781467Y-4542936D01*
X7781467Y-4542936D02*
X7771943Y-4552460D01*
X7771943Y-4552460D02*
X7752896Y-4561984D01*
X7752896Y-4561984D02*
X7714801Y-4561984D01*
X7714801Y-4561984D02*
X7695753Y-4552460D01*
X7876705Y-4542936D02*
X7886229Y-4552460D01*
X7886229Y-4552460D02*
X7876705Y-4561984D01*
X7876705Y-4561984D02*
X7867182Y-4552460D01*
X7867182Y-4552460D02*
X7876705Y-4542936D01*
X7876705Y-4542936D02*
X7876705Y-4561984D01*
X7876705Y-4438174D02*
X7886229Y-4447698D01*
X7886229Y-4447698D02*
X7876705Y-4457222D01*
X7876705Y-4457222D02*
X7867182Y-4447698D01*
X7867182Y-4447698D02*
X7876705Y-4438174D01*
X7876705Y-4438174D02*
X7876705Y-4457222D01*
M02*
