%TF.GenerationSoftware,KiCad,Pcbnew,8.0.8*%
%TF.CreationDate,2025-02-14T18:20:32-05:00*%
%TF.ProjectId,caravel-M.2-card-QFN,63617261-7665-46c2-9d4d-2e322d636172,1*%
%TF.SameCoordinates,Original*%
%TF.FileFunction,AssemblyDrawing,Top*%
%FSLAX46Y46*%
G04 Gerber Fmt 4.6, Leading zero omitted, Abs format (unit mm)*
G04 Created by KiCad (PCBNEW 8.0.8) date 2025-02-14 18:20:32*
%MOMM*%
%LPD*%
G01*
G04 APERTURE LIST*
%ADD10C,0.076200*%
%ADD11C,0.150000*%
%ADD12C,0.075000*%
%ADD13C,0.040000*%
%ADD14C,0.101600*%
%ADD15C,0.050000*%
%ADD16C,0.100000*%
G04 APERTURE END LIST*
D10*
X64504142Y-44005981D02*
X64467856Y-44042267D01*
X64467856Y-44042267D02*
X64358999Y-44078552D01*
X64358999Y-44078552D02*
X64286427Y-44078552D01*
X64286427Y-44078552D02*
X64177570Y-44042267D01*
X64177570Y-44042267D02*
X64104999Y-43969695D01*
X64104999Y-43969695D02*
X64068713Y-43897124D01*
X64068713Y-43897124D02*
X64032427Y-43751981D01*
X64032427Y-43751981D02*
X64032427Y-43643124D01*
X64032427Y-43643124D02*
X64068713Y-43497981D01*
X64068713Y-43497981D02*
X64104999Y-43425409D01*
X64104999Y-43425409D02*
X64177570Y-43352838D01*
X64177570Y-43352838D02*
X64286427Y-43316552D01*
X64286427Y-43316552D02*
X64358999Y-43316552D01*
X64358999Y-43316552D02*
X64467856Y-43352838D01*
X64467856Y-43352838D02*
X64504142Y-43389124D01*
X64830713Y-44078552D02*
X64830713Y-43316552D01*
X65157285Y-44078552D02*
X65157285Y-43679409D01*
X65157285Y-43679409D02*
X65120999Y-43606838D01*
X65120999Y-43606838D02*
X65048427Y-43570552D01*
X65048427Y-43570552D02*
X64939570Y-43570552D01*
X64939570Y-43570552D02*
X64866999Y-43606838D01*
X64866999Y-43606838D02*
X64830713Y-43643124D01*
X65846714Y-44078552D02*
X65846714Y-43679409D01*
X65846714Y-43679409D02*
X65810428Y-43606838D01*
X65810428Y-43606838D02*
X65737856Y-43570552D01*
X65737856Y-43570552D02*
X65592714Y-43570552D01*
X65592714Y-43570552D02*
X65520142Y-43606838D01*
X65846714Y-44042267D02*
X65774142Y-44078552D01*
X65774142Y-44078552D02*
X65592714Y-44078552D01*
X65592714Y-44078552D02*
X65520142Y-44042267D01*
X65520142Y-44042267D02*
X65483856Y-43969695D01*
X65483856Y-43969695D02*
X65483856Y-43897124D01*
X65483856Y-43897124D02*
X65520142Y-43824552D01*
X65520142Y-43824552D02*
X65592714Y-43788267D01*
X65592714Y-43788267D02*
X65774142Y-43788267D01*
X65774142Y-43788267D02*
X65846714Y-43751981D01*
X66209571Y-44078552D02*
X66209571Y-43570552D01*
X66209571Y-43643124D02*
X66245857Y-43606838D01*
X66245857Y-43606838D02*
X66318428Y-43570552D01*
X66318428Y-43570552D02*
X66427285Y-43570552D01*
X66427285Y-43570552D02*
X66499857Y-43606838D01*
X66499857Y-43606838D02*
X66536143Y-43679409D01*
X66536143Y-43679409D02*
X66536143Y-44078552D01*
X66536143Y-43679409D02*
X66572428Y-43606838D01*
X66572428Y-43606838D02*
X66645000Y-43570552D01*
X66645000Y-43570552D02*
X66753857Y-43570552D01*
X66753857Y-43570552D02*
X66826428Y-43606838D01*
X66826428Y-43606838D02*
X66862714Y-43679409D01*
X66862714Y-43679409D02*
X66862714Y-44078552D01*
X67116714Y-43570552D02*
X67407000Y-43570552D01*
X67225571Y-44078552D02*
X67225571Y-43425409D01*
X67225571Y-43425409D02*
X67261857Y-43352838D01*
X67261857Y-43352838D02*
X67334428Y-43316552D01*
X67334428Y-43316552D02*
X67407000Y-43316552D01*
X67951286Y-44042267D02*
X67878714Y-44078552D01*
X67878714Y-44078552D02*
X67733572Y-44078552D01*
X67733572Y-44078552D02*
X67661000Y-44042267D01*
X67661000Y-44042267D02*
X67624714Y-43969695D01*
X67624714Y-43969695D02*
X67624714Y-43679409D01*
X67624714Y-43679409D02*
X67661000Y-43606838D01*
X67661000Y-43606838D02*
X67733572Y-43570552D01*
X67733572Y-43570552D02*
X67878714Y-43570552D01*
X67878714Y-43570552D02*
X67951286Y-43606838D01*
X67951286Y-43606838D02*
X67987572Y-43679409D01*
X67987572Y-43679409D02*
X67987572Y-43751981D01*
X67987572Y-43751981D02*
X67624714Y-43824552D01*
X68314143Y-44078552D02*
X68314143Y-43570552D01*
X68314143Y-43715695D02*
X68350429Y-43643124D01*
X68350429Y-43643124D02*
X68386715Y-43606838D01*
X68386715Y-43606838D02*
X68459286Y-43570552D01*
X68459286Y-43570552D02*
X68531857Y-43570552D01*
X69076143Y-44042267D02*
X69003571Y-44078552D01*
X69003571Y-44078552D02*
X68858429Y-44078552D01*
X68858429Y-44078552D02*
X68785857Y-44042267D01*
X68785857Y-44042267D02*
X68749571Y-43969695D01*
X68749571Y-43969695D02*
X68749571Y-43679409D01*
X68749571Y-43679409D02*
X68785857Y-43606838D01*
X68785857Y-43606838D02*
X68858429Y-43570552D01*
X68858429Y-43570552D02*
X69003571Y-43570552D01*
X69003571Y-43570552D02*
X69076143Y-43606838D01*
X69076143Y-43606838D02*
X69112429Y-43679409D01*
X69112429Y-43679409D02*
X69112429Y-43751981D01*
X69112429Y-43751981D02*
X68749571Y-43824552D01*
X69765572Y-44078552D02*
X69765572Y-43316552D01*
X69765572Y-44042267D02*
X69693000Y-44078552D01*
X69693000Y-44078552D02*
X69547857Y-44078552D01*
X69547857Y-44078552D02*
X69475286Y-44042267D01*
X69475286Y-44042267D02*
X69439000Y-44005981D01*
X69439000Y-44005981D02*
X69402714Y-43933409D01*
X69402714Y-43933409D02*
X69402714Y-43715695D01*
X69402714Y-43715695D02*
X69439000Y-43643124D01*
X69439000Y-43643124D02*
X69475286Y-43606838D01*
X69475286Y-43606838D02*
X69547857Y-43570552D01*
X69547857Y-43570552D02*
X69693000Y-43570552D01*
X69693000Y-43570552D02*
X69765572Y-43606838D01*
X70999286Y-44042267D02*
X70926714Y-44078552D01*
X70926714Y-44078552D02*
X70781572Y-44078552D01*
X70781572Y-44078552D02*
X70709000Y-44042267D01*
X70709000Y-44042267D02*
X70672714Y-43969695D01*
X70672714Y-43969695D02*
X70672714Y-43679409D01*
X70672714Y-43679409D02*
X70709000Y-43606838D01*
X70709000Y-43606838D02*
X70781572Y-43570552D01*
X70781572Y-43570552D02*
X70926714Y-43570552D01*
X70926714Y-43570552D02*
X70999286Y-43606838D01*
X70999286Y-43606838D02*
X71035572Y-43679409D01*
X71035572Y-43679409D02*
X71035572Y-43751981D01*
X71035572Y-43751981D02*
X70672714Y-43824552D01*
X71688715Y-44078552D02*
X71688715Y-43316552D01*
X71688715Y-44042267D02*
X71616143Y-44078552D01*
X71616143Y-44078552D02*
X71471000Y-44078552D01*
X71471000Y-44078552D02*
X71398429Y-44042267D01*
X71398429Y-44042267D02*
X71362143Y-44005981D01*
X71362143Y-44005981D02*
X71325857Y-43933409D01*
X71325857Y-43933409D02*
X71325857Y-43715695D01*
X71325857Y-43715695D02*
X71362143Y-43643124D01*
X71362143Y-43643124D02*
X71398429Y-43606838D01*
X71398429Y-43606838D02*
X71471000Y-43570552D01*
X71471000Y-43570552D02*
X71616143Y-43570552D01*
X71616143Y-43570552D02*
X71688715Y-43606838D01*
X72378144Y-43570552D02*
X72378144Y-44187409D01*
X72378144Y-44187409D02*
X72341858Y-44259981D01*
X72341858Y-44259981D02*
X72305572Y-44296267D01*
X72305572Y-44296267D02*
X72233001Y-44332552D01*
X72233001Y-44332552D02*
X72124144Y-44332552D01*
X72124144Y-44332552D02*
X72051572Y-44296267D01*
X72378144Y-44042267D02*
X72305572Y-44078552D01*
X72305572Y-44078552D02*
X72160429Y-44078552D01*
X72160429Y-44078552D02*
X72087858Y-44042267D01*
X72087858Y-44042267D02*
X72051572Y-44005981D01*
X72051572Y-44005981D02*
X72015286Y-43933409D01*
X72015286Y-43933409D02*
X72015286Y-43715695D01*
X72015286Y-43715695D02*
X72051572Y-43643124D01*
X72051572Y-43643124D02*
X72087858Y-43606838D01*
X72087858Y-43606838D02*
X72160429Y-43570552D01*
X72160429Y-43570552D02*
X72305572Y-43570552D01*
X72305572Y-43570552D02*
X72378144Y-43606838D01*
X73031287Y-44042267D02*
X72958715Y-44078552D01*
X72958715Y-44078552D02*
X72813573Y-44078552D01*
X72813573Y-44078552D02*
X72741001Y-44042267D01*
X72741001Y-44042267D02*
X72704715Y-43969695D01*
X72704715Y-43969695D02*
X72704715Y-43679409D01*
X72704715Y-43679409D02*
X72741001Y-43606838D01*
X72741001Y-43606838D02*
X72813573Y-43570552D01*
X72813573Y-43570552D02*
X72958715Y-43570552D01*
X72958715Y-43570552D02*
X73031287Y-43606838D01*
X73031287Y-43606838D02*
X73067573Y-43679409D01*
X73067573Y-43679409D02*
X73067573Y-43751981D01*
X73067573Y-43751981D02*
X72704715Y-43824552D01*
X73308310Y-52303927D02*
X73380882Y-52340212D01*
X73380882Y-52340212D02*
X73526025Y-52340212D01*
X73526025Y-52340212D02*
X73598596Y-52303927D01*
X73598596Y-52303927D02*
X73634882Y-52231355D01*
X73634882Y-52231355D02*
X73634882Y-52195069D01*
X73634882Y-52195069D02*
X73598596Y-52122498D01*
X73598596Y-52122498D02*
X73526025Y-52086212D01*
X73526025Y-52086212D02*
X73417168Y-52086212D01*
X73417168Y-52086212D02*
X73344596Y-52049927D01*
X73344596Y-52049927D02*
X73308310Y-51977355D01*
X73308310Y-51977355D02*
X73308310Y-51941069D01*
X73308310Y-51941069D02*
X73344596Y-51868498D01*
X73344596Y-51868498D02*
X73417168Y-51832212D01*
X73417168Y-51832212D02*
X73526025Y-51832212D01*
X73526025Y-51832212D02*
X73598596Y-51868498D01*
X73961453Y-52340212D02*
X73961453Y-51832212D01*
X73961453Y-51578212D02*
X73925167Y-51614498D01*
X73925167Y-51614498D02*
X73961453Y-51650784D01*
X73961453Y-51650784D02*
X73997739Y-51614498D01*
X73997739Y-51614498D02*
X73961453Y-51578212D01*
X73961453Y-51578212D02*
X73961453Y-51650784D01*
X74251739Y-51832212D02*
X74650882Y-51832212D01*
X74650882Y-51832212D02*
X74251739Y-52340212D01*
X74251739Y-52340212D02*
X74650882Y-52340212D01*
X75231453Y-52303927D02*
X75158881Y-52340212D01*
X75158881Y-52340212D02*
X75013739Y-52340212D01*
X75013739Y-52340212D02*
X74941167Y-52303927D01*
X74941167Y-52303927D02*
X74904881Y-52231355D01*
X74904881Y-52231355D02*
X74904881Y-51941069D01*
X74904881Y-51941069D02*
X74941167Y-51868498D01*
X74941167Y-51868498D02*
X75013739Y-51832212D01*
X75013739Y-51832212D02*
X75158881Y-51832212D01*
X75158881Y-51832212D02*
X75231453Y-51868498D01*
X75231453Y-51868498D02*
X75267739Y-51941069D01*
X75267739Y-51941069D02*
X75267739Y-52013641D01*
X75267739Y-52013641D02*
X74904881Y-52086212D01*
X75920882Y-52340212D02*
X75920882Y-51578212D01*
X75920882Y-52303927D02*
X75848310Y-52340212D01*
X75848310Y-52340212D02*
X75703167Y-52340212D01*
X75703167Y-52340212D02*
X75630596Y-52303927D01*
X75630596Y-52303927D02*
X75594310Y-52267641D01*
X75594310Y-52267641D02*
X75558024Y-52195069D01*
X75558024Y-52195069D02*
X75558024Y-51977355D01*
X75558024Y-51977355D02*
X75594310Y-51904784D01*
X75594310Y-51904784D02*
X75630596Y-51868498D01*
X75630596Y-51868498D02*
X75703167Y-51832212D01*
X75703167Y-51832212D02*
X75848310Y-51832212D01*
X75848310Y-51832212D02*
X75920882Y-51868498D01*
X76755453Y-51832212D02*
X77045739Y-51832212D01*
X76864310Y-51578212D02*
X76864310Y-52231355D01*
X76864310Y-52231355D02*
X76900596Y-52303927D01*
X76900596Y-52303927D02*
X76973167Y-52340212D01*
X76973167Y-52340212D02*
X77045739Y-52340212D01*
X77408596Y-52340212D02*
X77336025Y-52303927D01*
X77336025Y-52303927D02*
X77299739Y-52267641D01*
X77299739Y-52267641D02*
X77263453Y-52195069D01*
X77263453Y-52195069D02*
X77263453Y-51977355D01*
X77263453Y-51977355D02*
X77299739Y-51904784D01*
X77299739Y-51904784D02*
X77336025Y-51868498D01*
X77336025Y-51868498D02*
X77408596Y-51832212D01*
X77408596Y-51832212D02*
X77517453Y-51832212D01*
X77517453Y-51832212D02*
X77590025Y-51868498D01*
X77590025Y-51868498D02*
X77626311Y-51904784D01*
X77626311Y-51904784D02*
X77662596Y-51977355D01*
X77662596Y-51977355D02*
X77662596Y-52195069D01*
X77662596Y-52195069D02*
X77626311Y-52267641D01*
X77626311Y-52267641D02*
X77590025Y-52303927D01*
X77590025Y-52303927D02*
X77517453Y-52340212D01*
X77517453Y-52340212D02*
X77408596Y-52340212D01*
X78098025Y-52340212D02*
X78025454Y-52303927D01*
X78025454Y-52303927D02*
X77989168Y-52267641D01*
X77989168Y-52267641D02*
X77952882Y-52195069D01*
X77952882Y-52195069D02*
X77952882Y-51977355D01*
X77952882Y-51977355D02*
X77989168Y-51904784D01*
X77989168Y-51904784D02*
X78025454Y-51868498D01*
X78025454Y-51868498D02*
X78098025Y-51832212D01*
X78098025Y-51832212D02*
X78206882Y-51832212D01*
X78206882Y-51832212D02*
X78279454Y-51868498D01*
X78279454Y-51868498D02*
X78315740Y-51904784D01*
X78315740Y-51904784D02*
X78352025Y-51977355D01*
X78352025Y-51977355D02*
X78352025Y-52195069D01*
X78352025Y-52195069D02*
X78315740Y-52267641D01*
X78315740Y-52267641D02*
X78279454Y-52303927D01*
X78279454Y-52303927D02*
X78206882Y-52340212D01*
X78206882Y-52340212D02*
X78098025Y-52340212D01*
X78787454Y-52340212D02*
X78714883Y-52303927D01*
X78714883Y-52303927D02*
X78678597Y-52231355D01*
X78678597Y-52231355D02*
X78678597Y-51578212D01*
X70587142Y-50990212D02*
X70587142Y-50228212D01*
X70587142Y-50228212D02*
X70841142Y-50772498D01*
X70841142Y-50772498D02*
X71095142Y-50228212D01*
X71095142Y-50228212D02*
X71095142Y-50990212D01*
X71457999Y-50990212D02*
X71457999Y-50482212D01*
X71457999Y-50228212D02*
X71421713Y-50264498D01*
X71421713Y-50264498D02*
X71457999Y-50300784D01*
X71457999Y-50300784D02*
X71494285Y-50264498D01*
X71494285Y-50264498D02*
X71457999Y-50228212D01*
X71457999Y-50228212D02*
X71457999Y-50300784D01*
X71929713Y-50990212D02*
X71857142Y-50953927D01*
X71857142Y-50953927D02*
X71820856Y-50881355D01*
X71820856Y-50881355D02*
X71820856Y-50228212D01*
X72328856Y-50990212D02*
X72256285Y-50953927D01*
X72256285Y-50953927D02*
X72219999Y-50881355D01*
X72219999Y-50881355D02*
X72219999Y-50228212D01*
X73526285Y-50482212D02*
X73526285Y-50990212D01*
X73199713Y-50482212D02*
X73199713Y-50881355D01*
X73199713Y-50881355D02*
X73235999Y-50953927D01*
X73235999Y-50953927D02*
X73308570Y-50990212D01*
X73308570Y-50990212D02*
X73417427Y-50990212D01*
X73417427Y-50990212D02*
X73489999Y-50953927D01*
X73489999Y-50953927D02*
X73526285Y-50917641D01*
X73852856Y-50953927D02*
X73925428Y-50990212D01*
X73925428Y-50990212D02*
X74070571Y-50990212D01*
X74070571Y-50990212D02*
X74143142Y-50953927D01*
X74143142Y-50953927D02*
X74179428Y-50881355D01*
X74179428Y-50881355D02*
X74179428Y-50845069D01*
X74179428Y-50845069D02*
X74143142Y-50772498D01*
X74143142Y-50772498D02*
X74070571Y-50736212D01*
X74070571Y-50736212D02*
X73961714Y-50736212D01*
X73961714Y-50736212D02*
X73889142Y-50699927D01*
X73889142Y-50699927D02*
X73852856Y-50627355D01*
X73852856Y-50627355D02*
X73852856Y-50591069D01*
X73852856Y-50591069D02*
X73889142Y-50518498D01*
X73889142Y-50518498D02*
X73961714Y-50482212D01*
X73961714Y-50482212D02*
X74070571Y-50482212D01*
X74070571Y-50482212D02*
X74143142Y-50518498D01*
X74505999Y-50990212D02*
X74505999Y-50482212D01*
X74505999Y-50228212D02*
X74469713Y-50264498D01*
X74469713Y-50264498D02*
X74505999Y-50300784D01*
X74505999Y-50300784D02*
X74542285Y-50264498D01*
X74542285Y-50264498D02*
X74505999Y-50228212D01*
X74505999Y-50228212D02*
X74505999Y-50300784D01*
X74868856Y-50482212D02*
X74868856Y-50990212D01*
X74868856Y-50554784D02*
X74905142Y-50518498D01*
X74905142Y-50518498D02*
X74977713Y-50482212D01*
X74977713Y-50482212D02*
X75086570Y-50482212D01*
X75086570Y-50482212D02*
X75159142Y-50518498D01*
X75159142Y-50518498D02*
X75195428Y-50591069D01*
X75195428Y-50591069D02*
X75195428Y-50990212D01*
X75884857Y-50482212D02*
X75884857Y-51099069D01*
X75884857Y-51099069D02*
X75848571Y-51171641D01*
X75848571Y-51171641D02*
X75812285Y-51207927D01*
X75812285Y-51207927D02*
X75739714Y-51244212D01*
X75739714Y-51244212D02*
X75630857Y-51244212D01*
X75630857Y-51244212D02*
X75558285Y-51207927D01*
X75884857Y-50953927D02*
X75812285Y-50990212D01*
X75812285Y-50990212D02*
X75667142Y-50990212D01*
X75667142Y-50990212D02*
X75594571Y-50953927D01*
X75594571Y-50953927D02*
X75558285Y-50917641D01*
X75558285Y-50917641D02*
X75521999Y-50845069D01*
X75521999Y-50845069D02*
X75521999Y-50627355D01*
X75521999Y-50627355D02*
X75558285Y-50554784D01*
X75558285Y-50554784D02*
X75594571Y-50518498D01*
X75594571Y-50518498D02*
X75667142Y-50482212D01*
X75667142Y-50482212D02*
X75812285Y-50482212D01*
X75812285Y-50482212D02*
X75884857Y-50518498D01*
X77154857Y-50953927D02*
X77082285Y-50990212D01*
X77082285Y-50990212D02*
X76937142Y-50990212D01*
X76937142Y-50990212D02*
X76864571Y-50953927D01*
X76864571Y-50953927D02*
X76828285Y-50917641D01*
X76828285Y-50917641D02*
X76791999Y-50845069D01*
X76791999Y-50845069D02*
X76791999Y-50627355D01*
X76791999Y-50627355D02*
X76828285Y-50554784D01*
X76828285Y-50554784D02*
X76864571Y-50518498D01*
X76864571Y-50518498D02*
X76937142Y-50482212D01*
X76937142Y-50482212D02*
X77082285Y-50482212D01*
X77082285Y-50482212D02*
X77154857Y-50518498D01*
X77590285Y-50990212D02*
X77517714Y-50953927D01*
X77517714Y-50953927D02*
X77481428Y-50917641D01*
X77481428Y-50917641D02*
X77445142Y-50845069D01*
X77445142Y-50845069D02*
X77445142Y-50627355D01*
X77445142Y-50627355D02*
X77481428Y-50554784D01*
X77481428Y-50554784D02*
X77517714Y-50518498D01*
X77517714Y-50518498D02*
X77590285Y-50482212D01*
X77590285Y-50482212D02*
X77699142Y-50482212D01*
X77699142Y-50482212D02*
X77771714Y-50518498D01*
X77771714Y-50518498D02*
X77808000Y-50554784D01*
X77808000Y-50554784D02*
X77844285Y-50627355D01*
X77844285Y-50627355D02*
X77844285Y-50845069D01*
X77844285Y-50845069D02*
X77808000Y-50917641D01*
X77808000Y-50917641D02*
X77771714Y-50953927D01*
X77771714Y-50953927D02*
X77699142Y-50990212D01*
X77699142Y-50990212D02*
X77590285Y-50990212D01*
X78170857Y-50990212D02*
X78170857Y-50482212D01*
X78170857Y-50627355D02*
X78207143Y-50554784D01*
X78207143Y-50554784D02*
X78243429Y-50518498D01*
X78243429Y-50518498D02*
X78316000Y-50482212D01*
X78316000Y-50482212D02*
X78388571Y-50482212D01*
X78642571Y-50990212D02*
X78642571Y-50482212D01*
X78642571Y-50627355D02*
X78678857Y-50554784D01*
X78678857Y-50554784D02*
X78715143Y-50518498D01*
X78715143Y-50518498D02*
X78787714Y-50482212D01*
X78787714Y-50482212D02*
X78860285Y-50482212D01*
X79404571Y-50953927D02*
X79331999Y-50990212D01*
X79331999Y-50990212D02*
X79186857Y-50990212D01*
X79186857Y-50990212D02*
X79114285Y-50953927D01*
X79114285Y-50953927D02*
X79077999Y-50881355D01*
X79077999Y-50881355D02*
X79077999Y-50591069D01*
X79077999Y-50591069D02*
X79114285Y-50518498D01*
X79114285Y-50518498D02*
X79186857Y-50482212D01*
X79186857Y-50482212D02*
X79331999Y-50482212D01*
X79331999Y-50482212D02*
X79404571Y-50518498D01*
X79404571Y-50518498D02*
X79440857Y-50591069D01*
X79440857Y-50591069D02*
X79440857Y-50663641D01*
X79440857Y-50663641D02*
X79077999Y-50736212D01*
X80094000Y-50953927D02*
X80021428Y-50990212D01*
X80021428Y-50990212D02*
X79876285Y-50990212D01*
X79876285Y-50990212D02*
X79803714Y-50953927D01*
X79803714Y-50953927D02*
X79767428Y-50917641D01*
X79767428Y-50917641D02*
X79731142Y-50845069D01*
X79731142Y-50845069D02*
X79731142Y-50627355D01*
X79731142Y-50627355D02*
X79767428Y-50554784D01*
X79767428Y-50554784D02*
X79803714Y-50518498D01*
X79803714Y-50518498D02*
X79876285Y-50482212D01*
X79876285Y-50482212D02*
X80021428Y-50482212D01*
X80021428Y-50482212D02*
X80094000Y-50518498D01*
X80311714Y-50482212D02*
X80602000Y-50482212D01*
X80420571Y-50228212D02*
X80420571Y-50881355D01*
X80420571Y-50881355D02*
X80456857Y-50953927D01*
X80456857Y-50953927D02*
X80529428Y-50990212D01*
X80529428Y-50990212D02*
X80602000Y-50990212D01*
X80964857Y-50990212D02*
X80892286Y-50953927D01*
X80892286Y-50953927D02*
X80856000Y-50881355D01*
X80856000Y-50881355D02*
X80856000Y-50228212D01*
X81182572Y-50482212D02*
X81364000Y-50990212D01*
X81545429Y-50482212D02*
X81364000Y-50990212D01*
X81364000Y-50990212D02*
X81291429Y-51171641D01*
X81291429Y-51171641D02*
X81255143Y-51207927D01*
X81255143Y-51207927D02*
X81182572Y-51244212D01*
X71403571Y-49665981D02*
X71367285Y-49702267D01*
X71367285Y-49702267D02*
X71258428Y-49738552D01*
X71258428Y-49738552D02*
X71185856Y-49738552D01*
X71185856Y-49738552D02*
X71076999Y-49702267D01*
X71076999Y-49702267D02*
X71004428Y-49629695D01*
X71004428Y-49629695D02*
X70968142Y-49557124D01*
X70968142Y-49557124D02*
X70931856Y-49411981D01*
X70931856Y-49411981D02*
X70931856Y-49303124D01*
X70931856Y-49303124D02*
X70968142Y-49157981D01*
X70968142Y-49157981D02*
X71004428Y-49085409D01*
X71004428Y-49085409D02*
X71076999Y-49012838D01*
X71076999Y-49012838D02*
X71185856Y-48976552D01*
X71185856Y-48976552D02*
X71258428Y-48976552D01*
X71258428Y-48976552D02*
X71367285Y-49012838D01*
X71367285Y-49012838D02*
X71403571Y-49049124D01*
X71730142Y-49738552D02*
X71730142Y-49230552D01*
X71730142Y-49375695D02*
X71766428Y-49303124D01*
X71766428Y-49303124D02*
X71802714Y-49266838D01*
X71802714Y-49266838D02*
X71875285Y-49230552D01*
X71875285Y-49230552D02*
X71947856Y-49230552D01*
X72201856Y-49738552D02*
X72201856Y-49230552D01*
X72201856Y-48976552D02*
X72165570Y-49012838D01*
X72165570Y-49012838D02*
X72201856Y-49049124D01*
X72201856Y-49049124D02*
X72238142Y-49012838D01*
X72238142Y-49012838D02*
X72201856Y-48976552D01*
X72201856Y-48976552D02*
X72201856Y-49049124D01*
X72455856Y-49230552D02*
X72746142Y-49230552D01*
X72564713Y-48976552D02*
X72564713Y-49629695D01*
X72564713Y-49629695D02*
X72600999Y-49702267D01*
X72600999Y-49702267D02*
X72673570Y-49738552D01*
X72673570Y-49738552D02*
X72746142Y-49738552D01*
X73000142Y-49738552D02*
X73000142Y-49230552D01*
X73000142Y-48976552D02*
X72963856Y-49012838D01*
X72963856Y-49012838D02*
X73000142Y-49049124D01*
X73000142Y-49049124D02*
X73036428Y-49012838D01*
X73036428Y-49012838D02*
X73000142Y-48976552D01*
X73000142Y-48976552D02*
X73000142Y-49049124D01*
X73689571Y-49702267D02*
X73616999Y-49738552D01*
X73616999Y-49738552D02*
X73471856Y-49738552D01*
X73471856Y-49738552D02*
X73399285Y-49702267D01*
X73399285Y-49702267D02*
X73362999Y-49665981D01*
X73362999Y-49665981D02*
X73326713Y-49593409D01*
X73326713Y-49593409D02*
X73326713Y-49375695D01*
X73326713Y-49375695D02*
X73362999Y-49303124D01*
X73362999Y-49303124D02*
X73399285Y-49266838D01*
X73399285Y-49266838D02*
X73471856Y-49230552D01*
X73471856Y-49230552D02*
X73616999Y-49230552D01*
X73616999Y-49230552D02*
X73689571Y-49266838D01*
X74342714Y-49738552D02*
X74342714Y-49339409D01*
X74342714Y-49339409D02*
X74306428Y-49266838D01*
X74306428Y-49266838D02*
X74233856Y-49230552D01*
X74233856Y-49230552D02*
X74088714Y-49230552D01*
X74088714Y-49230552D02*
X74016142Y-49266838D01*
X74342714Y-49702267D02*
X74270142Y-49738552D01*
X74270142Y-49738552D02*
X74088714Y-49738552D01*
X74088714Y-49738552D02*
X74016142Y-49702267D01*
X74016142Y-49702267D02*
X73979856Y-49629695D01*
X73979856Y-49629695D02*
X73979856Y-49557124D01*
X73979856Y-49557124D02*
X74016142Y-49484552D01*
X74016142Y-49484552D02*
X74088714Y-49448267D01*
X74088714Y-49448267D02*
X74270142Y-49448267D01*
X74270142Y-49448267D02*
X74342714Y-49411981D01*
X74814428Y-49738552D02*
X74741857Y-49702267D01*
X74741857Y-49702267D02*
X74705571Y-49629695D01*
X74705571Y-49629695D02*
X74705571Y-48976552D01*
X76011857Y-49738552D02*
X76011857Y-48976552D01*
X76011857Y-49702267D02*
X75939285Y-49738552D01*
X75939285Y-49738552D02*
X75794142Y-49738552D01*
X75794142Y-49738552D02*
X75721571Y-49702267D01*
X75721571Y-49702267D02*
X75685285Y-49665981D01*
X75685285Y-49665981D02*
X75648999Y-49593409D01*
X75648999Y-49593409D02*
X75648999Y-49375695D01*
X75648999Y-49375695D02*
X75685285Y-49303124D01*
X75685285Y-49303124D02*
X75721571Y-49266838D01*
X75721571Y-49266838D02*
X75794142Y-49230552D01*
X75794142Y-49230552D02*
X75939285Y-49230552D01*
X75939285Y-49230552D02*
X76011857Y-49266838D01*
X76374714Y-49738552D02*
X76374714Y-49230552D01*
X76374714Y-48976552D02*
X76338428Y-49012838D01*
X76338428Y-49012838D02*
X76374714Y-49049124D01*
X76374714Y-49049124D02*
X76411000Y-49012838D01*
X76411000Y-49012838D02*
X76374714Y-48976552D01*
X76374714Y-48976552D02*
X76374714Y-49049124D01*
X76737571Y-49738552D02*
X76737571Y-49230552D01*
X76737571Y-49303124D02*
X76773857Y-49266838D01*
X76773857Y-49266838D02*
X76846428Y-49230552D01*
X76846428Y-49230552D02*
X76955285Y-49230552D01*
X76955285Y-49230552D02*
X77027857Y-49266838D01*
X77027857Y-49266838D02*
X77064143Y-49339409D01*
X77064143Y-49339409D02*
X77064143Y-49738552D01*
X77064143Y-49339409D02*
X77100428Y-49266838D01*
X77100428Y-49266838D02*
X77173000Y-49230552D01*
X77173000Y-49230552D02*
X77281857Y-49230552D01*
X77281857Y-49230552D02*
X77354428Y-49266838D01*
X77354428Y-49266838D02*
X77390714Y-49339409D01*
X77390714Y-49339409D02*
X77390714Y-49738552D01*
X78043857Y-49702267D02*
X77971285Y-49738552D01*
X77971285Y-49738552D02*
X77826143Y-49738552D01*
X77826143Y-49738552D02*
X77753571Y-49702267D01*
X77753571Y-49702267D02*
X77717285Y-49629695D01*
X77717285Y-49629695D02*
X77717285Y-49339409D01*
X77717285Y-49339409D02*
X77753571Y-49266838D01*
X77753571Y-49266838D02*
X77826143Y-49230552D01*
X77826143Y-49230552D02*
X77971285Y-49230552D01*
X77971285Y-49230552D02*
X78043857Y-49266838D01*
X78043857Y-49266838D02*
X78080143Y-49339409D01*
X78080143Y-49339409D02*
X78080143Y-49411981D01*
X78080143Y-49411981D02*
X77717285Y-49484552D01*
X78406714Y-49230552D02*
X78406714Y-49738552D01*
X78406714Y-49303124D02*
X78443000Y-49266838D01*
X78443000Y-49266838D02*
X78515571Y-49230552D01*
X78515571Y-49230552D02*
X78624428Y-49230552D01*
X78624428Y-49230552D02*
X78697000Y-49266838D01*
X78697000Y-49266838D02*
X78733286Y-49339409D01*
X78733286Y-49339409D02*
X78733286Y-49738552D01*
X79059857Y-49702267D02*
X79132429Y-49738552D01*
X79132429Y-49738552D02*
X79277572Y-49738552D01*
X79277572Y-49738552D02*
X79350143Y-49702267D01*
X79350143Y-49702267D02*
X79386429Y-49629695D01*
X79386429Y-49629695D02*
X79386429Y-49593409D01*
X79386429Y-49593409D02*
X79350143Y-49520838D01*
X79350143Y-49520838D02*
X79277572Y-49484552D01*
X79277572Y-49484552D02*
X79168715Y-49484552D01*
X79168715Y-49484552D02*
X79096143Y-49448267D01*
X79096143Y-49448267D02*
X79059857Y-49375695D01*
X79059857Y-49375695D02*
X79059857Y-49339409D01*
X79059857Y-49339409D02*
X79096143Y-49266838D01*
X79096143Y-49266838D02*
X79168715Y-49230552D01*
X79168715Y-49230552D02*
X79277572Y-49230552D01*
X79277572Y-49230552D02*
X79350143Y-49266838D01*
X79713000Y-49738552D02*
X79713000Y-49230552D01*
X79713000Y-48976552D02*
X79676714Y-49012838D01*
X79676714Y-49012838D02*
X79713000Y-49049124D01*
X79713000Y-49049124D02*
X79749286Y-49012838D01*
X79749286Y-49012838D02*
X79713000Y-48976552D01*
X79713000Y-48976552D02*
X79713000Y-49049124D01*
X80184714Y-49738552D02*
X80112143Y-49702267D01*
X80112143Y-49702267D02*
X80075857Y-49665981D01*
X80075857Y-49665981D02*
X80039571Y-49593409D01*
X80039571Y-49593409D02*
X80039571Y-49375695D01*
X80039571Y-49375695D02*
X80075857Y-49303124D01*
X80075857Y-49303124D02*
X80112143Y-49266838D01*
X80112143Y-49266838D02*
X80184714Y-49230552D01*
X80184714Y-49230552D02*
X80293571Y-49230552D01*
X80293571Y-49230552D02*
X80366143Y-49266838D01*
X80366143Y-49266838D02*
X80402429Y-49303124D01*
X80402429Y-49303124D02*
X80438714Y-49375695D01*
X80438714Y-49375695D02*
X80438714Y-49593409D01*
X80438714Y-49593409D02*
X80402429Y-49665981D01*
X80402429Y-49665981D02*
X80366143Y-49702267D01*
X80366143Y-49702267D02*
X80293571Y-49738552D01*
X80293571Y-49738552D02*
X80184714Y-49738552D01*
X80765286Y-49230552D02*
X80765286Y-49738552D01*
X80765286Y-49303124D02*
X80801572Y-49266838D01*
X80801572Y-49266838D02*
X80874143Y-49230552D01*
X80874143Y-49230552D02*
X80983000Y-49230552D01*
X80983000Y-49230552D02*
X81055572Y-49266838D01*
X81055572Y-49266838D02*
X81091858Y-49339409D01*
X81091858Y-49339409D02*
X81091858Y-49738552D01*
X65520143Y-44586552D02*
X65592714Y-44586552D01*
X65592714Y-44586552D02*
X65665286Y-44622838D01*
X65665286Y-44622838D02*
X65701572Y-44659124D01*
X65701572Y-44659124D02*
X65737857Y-44731695D01*
X65737857Y-44731695D02*
X65774143Y-44876838D01*
X65774143Y-44876838D02*
X65774143Y-45058267D01*
X65774143Y-45058267D02*
X65737857Y-45203409D01*
X65737857Y-45203409D02*
X65701572Y-45275981D01*
X65701572Y-45275981D02*
X65665286Y-45312267D01*
X65665286Y-45312267D02*
X65592714Y-45348552D01*
X65592714Y-45348552D02*
X65520143Y-45348552D01*
X65520143Y-45348552D02*
X65447572Y-45312267D01*
X65447572Y-45312267D02*
X65411286Y-45275981D01*
X65411286Y-45275981D02*
X65375000Y-45203409D01*
X65375000Y-45203409D02*
X65338714Y-45058267D01*
X65338714Y-45058267D02*
X65338714Y-44876838D01*
X65338714Y-44876838D02*
X65375000Y-44731695D01*
X65375000Y-44731695D02*
X65411286Y-44659124D01*
X65411286Y-44659124D02*
X65447572Y-44622838D01*
X65447572Y-44622838D02*
X65520143Y-44586552D01*
X66100714Y-45275981D02*
X66137000Y-45312267D01*
X66137000Y-45312267D02*
X66100714Y-45348552D01*
X66100714Y-45348552D02*
X66064428Y-45312267D01*
X66064428Y-45312267D02*
X66100714Y-45275981D01*
X66100714Y-45275981D02*
X66100714Y-45348552D01*
X66572428Y-44913124D02*
X66499857Y-44876838D01*
X66499857Y-44876838D02*
X66463571Y-44840552D01*
X66463571Y-44840552D02*
X66427285Y-44767981D01*
X66427285Y-44767981D02*
X66427285Y-44731695D01*
X66427285Y-44731695D02*
X66463571Y-44659124D01*
X66463571Y-44659124D02*
X66499857Y-44622838D01*
X66499857Y-44622838D02*
X66572428Y-44586552D01*
X66572428Y-44586552D02*
X66717571Y-44586552D01*
X66717571Y-44586552D02*
X66790143Y-44622838D01*
X66790143Y-44622838D02*
X66826428Y-44659124D01*
X66826428Y-44659124D02*
X66862714Y-44731695D01*
X66862714Y-44731695D02*
X66862714Y-44767981D01*
X66862714Y-44767981D02*
X66826428Y-44840552D01*
X66826428Y-44840552D02*
X66790143Y-44876838D01*
X66790143Y-44876838D02*
X66717571Y-44913124D01*
X66717571Y-44913124D02*
X66572428Y-44913124D01*
X66572428Y-44913124D02*
X66499857Y-44949409D01*
X66499857Y-44949409D02*
X66463571Y-44985695D01*
X66463571Y-44985695D02*
X66427285Y-45058267D01*
X66427285Y-45058267D02*
X66427285Y-45203409D01*
X66427285Y-45203409D02*
X66463571Y-45275981D01*
X66463571Y-45275981D02*
X66499857Y-45312267D01*
X66499857Y-45312267D02*
X66572428Y-45348552D01*
X66572428Y-45348552D02*
X66717571Y-45348552D01*
X66717571Y-45348552D02*
X66790143Y-45312267D01*
X66790143Y-45312267D02*
X66826428Y-45275981D01*
X66826428Y-45275981D02*
X66862714Y-45203409D01*
X66862714Y-45203409D02*
X66862714Y-45058267D01*
X66862714Y-45058267D02*
X66826428Y-44985695D01*
X66826428Y-44985695D02*
X66790143Y-44949409D01*
X66790143Y-44949409D02*
X66717571Y-44913124D01*
X67189285Y-45348552D02*
X67189285Y-44840552D01*
X67189285Y-44913124D02*
X67225571Y-44876838D01*
X67225571Y-44876838D02*
X67298142Y-44840552D01*
X67298142Y-44840552D02*
X67406999Y-44840552D01*
X67406999Y-44840552D02*
X67479571Y-44876838D01*
X67479571Y-44876838D02*
X67515857Y-44949409D01*
X67515857Y-44949409D02*
X67515857Y-45348552D01*
X67515857Y-44949409D02*
X67552142Y-44876838D01*
X67552142Y-44876838D02*
X67624714Y-44840552D01*
X67624714Y-44840552D02*
X67733571Y-44840552D01*
X67733571Y-44840552D02*
X67806142Y-44876838D01*
X67806142Y-44876838D02*
X67842428Y-44949409D01*
X67842428Y-44949409D02*
X67842428Y-45348552D01*
X68205285Y-45348552D02*
X68205285Y-44840552D01*
X68205285Y-44913124D02*
X68241571Y-44876838D01*
X68241571Y-44876838D02*
X68314142Y-44840552D01*
X68314142Y-44840552D02*
X68422999Y-44840552D01*
X68422999Y-44840552D02*
X68495571Y-44876838D01*
X68495571Y-44876838D02*
X68531857Y-44949409D01*
X68531857Y-44949409D02*
X68531857Y-45348552D01*
X68531857Y-44949409D02*
X68568142Y-44876838D01*
X68568142Y-44876838D02*
X68640714Y-44840552D01*
X68640714Y-44840552D02*
X68749571Y-44840552D01*
X68749571Y-44840552D02*
X68822142Y-44876838D01*
X68822142Y-44876838D02*
X68858428Y-44949409D01*
X68858428Y-44949409D02*
X68858428Y-45348552D01*
X69801856Y-45348552D02*
X69801856Y-44586552D01*
X69801856Y-44586552D02*
X70092142Y-44586552D01*
X70092142Y-44586552D02*
X70164713Y-44622838D01*
X70164713Y-44622838D02*
X70200999Y-44659124D01*
X70200999Y-44659124D02*
X70237285Y-44731695D01*
X70237285Y-44731695D02*
X70237285Y-44840552D01*
X70237285Y-44840552D02*
X70200999Y-44913124D01*
X70200999Y-44913124D02*
X70164713Y-44949409D01*
X70164713Y-44949409D02*
X70092142Y-44985695D01*
X70092142Y-44985695D02*
X69801856Y-44985695D01*
X70999285Y-45275981D02*
X70962999Y-45312267D01*
X70962999Y-45312267D02*
X70854142Y-45348552D01*
X70854142Y-45348552D02*
X70781570Y-45348552D01*
X70781570Y-45348552D02*
X70672713Y-45312267D01*
X70672713Y-45312267D02*
X70600142Y-45239695D01*
X70600142Y-45239695D02*
X70563856Y-45167124D01*
X70563856Y-45167124D02*
X70527570Y-45021981D01*
X70527570Y-45021981D02*
X70527570Y-44913124D01*
X70527570Y-44913124D02*
X70563856Y-44767981D01*
X70563856Y-44767981D02*
X70600142Y-44695409D01*
X70600142Y-44695409D02*
X70672713Y-44622838D01*
X70672713Y-44622838D02*
X70781570Y-44586552D01*
X70781570Y-44586552D02*
X70854142Y-44586552D01*
X70854142Y-44586552D02*
X70962999Y-44622838D01*
X70962999Y-44622838D02*
X70999285Y-44659124D01*
X71579856Y-44949409D02*
X71688713Y-44985695D01*
X71688713Y-44985695D02*
X71724999Y-45021981D01*
X71724999Y-45021981D02*
X71761285Y-45094552D01*
X71761285Y-45094552D02*
X71761285Y-45203409D01*
X71761285Y-45203409D02*
X71724999Y-45275981D01*
X71724999Y-45275981D02*
X71688713Y-45312267D01*
X71688713Y-45312267D02*
X71616142Y-45348552D01*
X71616142Y-45348552D02*
X71325856Y-45348552D01*
X71325856Y-45348552D02*
X71325856Y-44586552D01*
X71325856Y-44586552D02*
X71579856Y-44586552D01*
X71579856Y-44586552D02*
X71652428Y-44622838D01*
X71652428Y-44622838D02*
X71688713Y-44659124D01*
X71688713Y-44659124D02*
X71724999Y-44731695D01*
X71724999Y-44731695D02*
X71724999Y-44804267D01*
X71724999Y-44804267D02*
X71688713Y-44876838D01*
X71688713Y-44876838D02*
X71652428Y-44913124D01*
X71652428Y-44913124D02*
X71579856Y-44949409D01*
X71579856Y-44949409D02*
X71325856Y-44949409D01*
D11*
X74385713Y-46872295D02*
X73928570Y-46872295D01*
X74157142Y-46872295D02*
X74157142Y-46072295D01*
X74157142Y-46072295D02*
X74080951Y-46186580D01*
X74080951Y-46186580D02*
X74004761Y-46262771D01*
X74004761Y-46262771D02*
X73928570Y-46300866D01*
X74728571Y-46796104D02*
X74766666Y-46834200D01*
X74766666Y-46834200D02*
X74728571Y-46872295D01*
X74728571Y-46872295D02*
X74690475Y-46834200D01*
X74690475Y-46834200D02*
X74728571Y-46796104D01*
X74728571Y-46796104D02*
X74728571Y-46872295D01*
X75071427Y-46148485D02*
X75109523Y-46110390D01*
X75109523Y-46110390D02*
X75185713Y-46072295D01*
X75185713Y-46072295D02*
X75376189Y-46072295D01*
X75376189Y-46072295D02*
X75452380Y-46110390D01*
X75452380Y-46110390D02*
X75490475Y-46148485D01*
X75490475Y-46148485D02*
X75528570Y-46224676D01*
X75528570Y-46224676D02*
X75528570Y-46300866D01*
X75528570Y-46300866D02*
X75490475Y-46415152D01*
X75490475Y-46415152D02*
X75033332Y-46872295D01*
X75033332Y-46872295D02*
X75528570Y-46872295D01*
X76480952Y-46872295D02*
X76480952Y-46338961D01*
X76480952Y-46415152D02*
X76519047Y-46377057D01*
X76519047Y-46377057D02*
X76595237Y-46338961D01*
X76595237Y-46338961D02*
X76709523Y-46338961D01*
X76709523Y-46338961D02*
X76785714Y-46377057D01*
X76785714Y-46377057D02*
X76823809Y-46453247D01*
X76823809Y-46453247D02*
X76823809Y-46872295D01*
X76823809Y-46453247D02*
X76861904Y-46377057D01*
X76861904Y-46377057D02*
X76938095Y-46338961D01*
X76938095Y-46338961D02*
X77052380Y-46338961D01*
X77052380Y-46338961D02*
X77128571Y-46377057D01*
X77128571Y-46377057D02*
X77166666Y-46453247D01*
X77166666Y-46453247D02*
X77166666Y-46872295D01*
X77547619Y-46872295D02*
X77547619Y-46338961D01*
X77547619Y-46415152D02*
X77585714Y-46377057D01*
X77585714Y-46377057D02*
X77661904Y-46338961D01*
X77661904Y-46338961D02*
X77776190Y-46338961D01*
X77776190Y-46338961D02*
X77852381Y-46377057D01*
X77852381Y-46377057D02*
X77890476Y-46453247D01*
X77890476Y-46453247D02*
X77890476Y-46872295D01*
X77890476Y-46453247D02*
X77928571Y-46377057D01*
X77928571Y-46377057D02*
X78004762Y-46338961D01*
X78004762Y-46338961D02*
X78119047Y-46338961D01*
X78119047Y-46338961D02*
X78195238Y-46377057D01*
X78195238Y-46377057D02*
X78233333Y-46453247D01*
X78233333Y-46453247D02*
X78233333Y-46872295D01*
X82693548Y-24952572D02*
X83693548Y-24285906D01*
X82693548Y-24285906D02*
X83693548Y-24952572D01*
X82693548Y-24000191D02*
X82693548Y-23381144D01*
X82693548Y-23381144D02*
X83074500Y-23714477D01*
X83074500Y-23714477D02*
X83074500Y-23571620D01*
X83074500Y-23571620D02*
X83122119Y-23476382D01*
X83122119Y-23476382D02*
X83169738Y-23428763D01*
X83169738Y-23428763D02*
X83264976Y-23381144D01*
X83264976Y-23381144D02*
X83503071Y-23381144D01*
X83503071Y-23381144D02*
X83598309Y-23428763D01*
X83598309Y-23428763D02*
X83645929Y-23476382D01*
X83645929Y-23476382D02*
X83693548Y-23571620D01*
X83693548Y-23571620D02*
X83693548Y-23857334D01*
X83693548Y-23857334D02*
X83645929Y-23952572D01*
X83645929Y-23952572D02*
X83598309Y-24000191D01*
D12*
X70833967Y-21680458D02*
X71167300Y-22180458D01*
X71167300Y-21680458D02*
X70833967Y-22180458D01*
X71333967Y-21728077D02*
X71357776Y-21704268D01*
X71357776Y-21704268D02*
X71405395Y-21680458D01*
X71405395Y-21680458D02*
X71524443Y-21680458D01*
X71524443Y-21680458D02*
X71572062Y-21704268D01*
X71572062Y-21704268D02*
X71595871Y-21728077D01*
X71595871Y-21728077D02*
X71619681Y-21775696D01*
X71619681Y-21775696D02*
X71619681Y-21823315D01*
X71619681Y-21823315D02*
X71595871Y-21894744D01*
X71595871Y-21894744D02*
X71310157Y-22180458D01*
X71310157Y-22180458D02*
X71619681Y-22180458D01*
D13*
X72078014Y-23442814D02*
X72066110Y-23454719D01*
X72066110Y-23454719D02*
X72030395Y-23466623D01*
X72030395Y-23466623D02*
X72006586Y-23466623D01*
X72006586Y-23466623D02*
X71970872Y-23454719D01*
X71970872Y-23454719D02*
X71947062Y-23430909D01*
X71947062Y-23430909D02*
X71935157Y-23407099D01*
X71935157Y-23407099D02*
X71923253Y-23359480D01*
X71923253Y-23359480D02*
X71923253Y-23323766D01*
X71923253Y-23323766D02*
X71935157Y-23276147D01*
X71935157Y-23276147D02*
X71947062Y-23252338D01*
X71947062Y-23252338D02*
X71970872Y-23228528D01*
X71970872Y-23228528D02*
X72006586Y-23216623D01*
X72006586Y-23216623D02*
X72030395Y-23216623D01*
X72030395Y-23216623D02*
X72066110Y-23228528D01*
X72066110Y-23228528D02*
X72078014Y-23240433D01*
X72316110Y-23466623D02*
X72173253Y-23466623D01*
X72244681Y-23466623D02*
X72244681Y-23216623D01*
X72244681Y-23216623D02*
X72220872Y-23252338D01*
X72220872Y-23252338D02*
X72197062Y-23276147D01*
X72197062Y-23276147D02*
X72173253Y-23288052D01*
X72554205Y-23466623D02*
X72411348Y-23466623D01*
X72482776Y-23466623D02*
X72482776Y-23216623D01*
X72482776Y-23216623D02*
X72458967Y-23252338D01*
X72458967Y-23252338D02*
X72435157Y-23276147D01*
X72435157Y-23276147D02*
X72411348Y-23288052D01*
X70178014Y-23442814D02*
X70166110Y-23454719D01*
X70166110Y-23454719D02*
X70130395Y-23466623D01*
X70130395Y-23466623D02*
X70106586Y-23466623D01*
X70106586Y-23466623D02*
X70070872Y-23454719D01*
X70070872Y-23454719D02*
X70047062Y-23430909D01*
X70047062Y-23430909D02*
X70035157Y-23407099D01*
X70035157Y-23407099D02*
X70023253Y-23359480D01*
X70023253Y-23359480D02*
X70023253Y-23323766D01*
X70023253Y-23323766D02*
X70035157Y-23276147D01*
X70035157Y-23276147D02*
X70047062Y-23252338D01*
X70047062Y-23252338D02*
X70070872Y-23228528D01*
X70070872Y-23228528D02*
X70106586Y-23216623D01*
X70106586Y-23216623D02*
X70130395Y-23216623D01*
X70130395Y-23216623D02*
X70166110Y-23228528D01*
X70166110Y-23228528D02*
X70178014Y-23240433D01*
X70416110Y-23466623D02*
X70273253Y-23466623D01*
X70344681Y-23466623D02*
X70344681Y-23216623D01*
X70344681Y-23216623D02*
X70320872Y-23252338D01*
X70320872Y-23252338D02*
X70297062Y-23276147D01*
X70297062Y-23276147D02*
X70273253Y-23288052D01*
X70570871Y-23216623D02*
X70594681Y-23216623D01*
X70594681Y-23216623D02*
X70618490Y-23228528D01*
X70618490Y-23228528D02*
X70630395Y-23240433D01*
X70630395Y-23240433D02*
X70642300Y-23264242D01*
X70642300Y-23264242D02*
X70654205Y-23311861D01*
X70654205Y-23311861D02*
X70654205Y-23371385D01*
X70654205Y-23371385D02*
X70642300Y-23419004D01*
X70642300Y-23419004D02*
X70630395Y-23442814D01*
X70630395Y-23442814D02*
X70618490Y-23454719D01*
X70618490Y-23454719D02*
X70594681Y-23466623D01*
X70594681Y-23466623D02*
X70570871Y-23466623D01*
X70570871Y-23466623D02*
X70547062Y-23454719D01*
X70547062Y-23454719D02*
X70535157Y-23442814D01*
X70535157Y-23442814D02*
X70523252Y-23419004D01*
X70523252Y-23419004D02*
X70511348Y-23371385D01*
X70511348Y-23371385D02*
X70511348Y-23311861D01*
X70511348Y-23311861D02*
X70523252Y-23264242D01*
X70523252Y-23264242D02*
X70535157Y-23240433D01*
X70535157Y-23240433D02*
X70547062Y-23228528D01*
X70547062Y-23228528D02*
X70570871Y-23216623D01*
X74497062Y-24142814D02*
X74485158Y-24154719D01*
X74485158Y-24154719D02*
X74449443Y-24166623D01*
X74449443Y-24166623D02*
X74425634Y-24166623D01*
X74425634Y-24166623D02*
X74389920Y-24154719D01*
X74389920Y-24154719D02*
X74366110Y-24130909D01*
X74366110Y-24130909D02*
X74354205Y-24107099D01*
X74354205Y-24107099D02*
X74342301Y-24059480D01*
X74342301Y-24059480D02*
X74342301Y-24023766D01*
X74342301Y-24023766D02*
X74354205Y-23976147D01*
X74354205Y-23976147D02*
X74366110Y-23952338D01*
X74366110Y-23952338D02*
X74389920Y-23928528D01*
X74389920Y-23928528D02*
X74425634Y-23916623D01*
X74425634Y-23916623D02*
X74449443Y-23916623D01*
X74449443Y-23916623D02*
X74485158Y-23928528D01*
X74485158Y-23928528D02*
X74497062Y-23940433D01*
X74639920Y-24023766D02*
X74616110Y-24011861D01*
X74616110Y-24011861D02*
X74604205Y-23999957D01*
X74604205Y-23999957D02*
X74592301Y-23976147D01*
X74592301Y-23976147D02*
X74592301Y-23964242D01*
X74592301Y-23964242D02*
X74604205Y-23940433D01*
X74604205Y-23940433D02*
X74616110Y-23928528D01*
X74616110Y-23928528D02*
X74639920Y-23916623D01*
X74639920Y-23916623D02*
X74687539Y-23916623D01*
X74687539Y-23916623D02*
X74711348Y-23928528D01*
X74711348Y-23928528D02*
X74723253Y-23940433D01*
X74723253Y-23940433D02*
X74735158Y-23964242D01*
X74735158Y-23964242D02*
X74735158Y-23976147D01*
X74735158Y-23976147D02*
X74723253Y-23999957D01*
X74723253Y-23999957D02*
X74711348Y-24011861D01*
X74711348Y-24011861D02*
X74687539Y-24023766D01*
X74687539Y-24023766D02*
X74639920Y-24023766D01*
X74639920Y-24023766D02*
X74616110Y-24035671D01*
X74616110Y-24035671D02*
X74604205Y-24047576D01*
X74604205Y-24047576D02*
X74592301Y-24071385D01*
X74592301Y-24071385D02*
X74592301Y-24119004D01*
X74592301Y-24119004D02*
X74604205Y-24142814D01*
X74604205Y-24142814D02*
X74616110Y-24154719D01*
X74616110Y-24154719D02*
X74639920Y-24166623D01*
X74639920Y-24166623D02*
X74687539Y-24166623D01*
X74687539Y-24166623D02*
X74711348Y-24154719D01*
X74711348Y-24154719D02*
X74723253Y-24142814D01*
X74723253Y-24142814D02*
X74735158Y-24119004D01*
X74735158Y-24119004D02*
X74735158Y-24071385D01*
X74735158Y-24071385D02*
X74723253Y-24047576D01*
X74723253Y-24047576D02*
X74711348Y-24035671D01*
X74711348Y-24035671D02*
X74687539Y-24023766D01*
X80767062Y-34202814D02*
X80755158Y-34214719D01*
X80755158Y-34214719D02*
X80719443Y-34226623D01*
X80719443Y-34226623D02*
X80695634Y-34226623D01*
X80695634Y-34226623D02*
X80659920Y-34214719D01*
X80659920Y-34214719D02*
X80636110Y-34190909D01*
X80636110Y-34190909D02*
X80624205Y-34167099D01*
X80624205Y-34167099D02*
X80612301Y-34119480D01*
X80612301Y-34119480D02*
X80612301Y-34083766D01*
X80612301Y-34083766D02*
X80624205Y-34036147D01*
X80624205Y-34036147D02*
X80636110Y-34012338D01*
X80636110Y-34012338D02*
X80659920Y-33988528D01*
X80659920Y-33988528D02*
X80695634Y-33976623D01*
X80695634Y-33976623D02*
X80719443Y-33976623D01*
X80719443Y-33976623D02*
X80755158Y-33988528D01*
X80755158Y-33988528D02*
X80767062Y-34000433D01*
X80886110Y-34226623D02*
X80933729Y-34226623D01*
X80933729Y-34226623D02*
X80957539Y-34214719D01*
X80957539Y-34214719D02*
X80969443Y-34202814D01*
X80969443Y-34202814D02*
X80993253Y-34167099D01*
X80993253Y-34167099D02*
X81005158Y-34119480D01*
X81005158Y-34119480D02*
X81005158Y-34024242D01*
X81005158Y-34024242D02*
X80993253Y-34000433D01*
X80993253Y-34000433D02*
X80981348Y-33988528D01*
X80981348Y-33988528D02*
X80957539Y-33976623D01*
X80957539Y-33976623D02*
X80909920Y-33976623D01*
X80909920Y-33976623D02*
X80886110Y-33988528D01*
X80886110Y-33988528D02*
X80874205Y-34000433D01*
X80874205Y-34000433D02*
X80862301Y-34024242D01*
X80862301Y-34024242D02*
X80862301Y-34083766D01*
X80862301Y-34083766D02*
X80874205Y-34107576D01*
X80874205Y-34107576D02*
X80886110Y-34119480D01*
X80886110Y-34119480D02*
X80909920Y-34131385D01*
X80909920Y-34131385D02*
X80957539Y-34131385D01*
X80957539Y-34131385D02*
X80981348Y-34119480D01*
X80981348Y-34119480D02*
X80993253Y-34107576D01*
X80993253Y-34107576D02*
X81005158Y-34083766D01*
X66907062Y-34572814D02*
X66895158Y-34584719D01*
X66895158Y-34584719D02*
X66859443Y-34596623D01*
X66859443Y-34596623D02*
X66835634Y-34596623D01*
X66835634Y-34596623D02*
X66799920Y-34584719D01*
X66799920Y-34584719D02*
X66776110Y-34560909D01*
X66776110Y-34560909D02*
X66764205Y-34537099D01*
X66764205Y-34537099D02*
X66752301Y-34489480D01*
X66752301Y-34489480D02*
X66752301Y-34453766D01*
X66752301Y-34453766D02*
X66764205Y-34406147D01*
X66764205Y-34406147D02*
X66776110Y-34382338D01*
X66776110Y-34382338D02*
X66799920Y-34358528D01*
X66799920Y-34358528D02*
X66835634Y-34346623D01*
X66835634Y-34346623D02*
X66859443Y-34346623D01*
X66859443Y-34346623D02*
X66895158Y-34358528D01*
X66895158Y-34358528D02*
X66907062Y-34370433D01*
X67121348Y-34346623D02*
X67073729Y-34346623D01*
X67073729Y-34346623D02*
X67049920Y-34358528D01*
X67049920Y-34358528D02*
X67038015Y-34370433D01*
X67038015Y-34370433D02*
X67014205Y-34406147D01*
X67014205Y-34406147D02*
X67002301Y-34453766D01*
X67002301Y-34453766D02*
X67002301Y-34549004D01*
X67002301Y-34549004D02*
X67014205Y-34572814D01*
X67014205Y-34572814D02*
X67026110Y-34584719D01*
X67026110Y-34584719D02*
X67049920Y-34596623D01*
X67049920Y-34596623D02*
X67097539Y-34596623D01*
X67097539Y-34596623D02*
X67121348Y-34584719D01*
X67121348Y-34584719D02*
X67133253Y-34572814D01*
X67133253Y-34572814D02*
X67145158Y-34549004D01*
X67145158Y-34549004D02*
X67145158Y-34489480D01*
X67145158Y-34489480D02*
X67133253Y-34465671D01*
X67133253Y-34465671D02*
X67121348Y-34453766D01*
X67121348Y-34453766D02*
X67097539Y-34441861D01*
X67097539Y-34441861D02*
X67049920Y-34441861D01*
X67049920Y-34441861D02*
X67026110Y-34453766D01*
X67026110Y-34453766D02*
X67014205Y-34465671D01*
X67014205Y-34465671D02*
X67002301Y-34489480D01*
X67297062Y-26312814D02*
X67285158Y-26324719D01*
X67285158Y-26324719D02*
X67249443Y-26336623D01*
X67249443Y-26336623D02*
X67225634Y-26336623D01*
X67225634Y-26336623D02*
X67189920Y-26324719D01*
X67189920Y-26324719D02*
X67166110Y-26300909D01*
X67166110Y-26300909D02*
X67154205Y-26277099D01*
X67154205Y-26277099D02*
X67142301Y-26229480D01*
X67142301Y-26229480D02*
X67142301Y-26193766D01*
X67142301Y-26193766D02*
X67154205Y-26146147D01*
X67154205Y-26146147D02*
X67166110Y-26122338D01*
X67166110Y-26122338D02*
X67189920Y-26098528D01*
X67189920Y-26098528D02*
X67225634Y-26086623D01*
X67225634Y-26086623D02*
X67249443Y-26086623D01*
X67249443Y-26086623D02*
X67285158Y-26098528D01*
X67285158Y-26098528D02*
X67297062Y-26110433D01*
X67535158Y-26336623D02*
X67392301Y-26336623D01*
X67463729Y-26336623D02*
X67463729Y-26086623D01*
X67463729Y-26086623D02*
X67439920Y-26122338D01*
X67439920Y-26122338D02*
X67416110Y-26146147D01*
X67416110Y-26146147D02*
X67392301Y-26158052D01*
X68853462Y-24542814D02*
X68841558Y-24554719D01*
X68841558Y-24554719D02*
X68805843Y-24566623D01*
X68805843Y-24566623D02*
X68782034Y-24566623D01*
X68782034Y-24566623D02*
X68746320Y-24554719D01*
X68746320Y-24554719D02*
X68722510Y-24530909D01*
X68722510Y-24530909D02*
X68710605Y-24507099D01*
X68710605Y-24507099D02*
X68698701Y-24459480D01*
X68698701Y-24459480D02*
X68698701Y-24423766D01*
X68698701Y-24423766D02*
X68710605Y-24376147D01*
X68710605Y-24376147D02*
X68722510Y-24352338D01*
X68722510Y-24352338D02*
X68746320Y-24328528D01*
X68746320Y-24328528D02*
X68782034Y-24316623D01*
X68782034Y-24316623D02*
X68805843Y-24316623D01*
X68805843Y-24316623D02*
X68841558Y-24328528D01*
X68841558Y-24328528D02*
X68853462Y-24340433D01*
X68948701Y-24340433D02*
X68960605Y-24328528D01*
X68960605Y-24328528D02*
X68984415Y-24316623D01*
X68984415Y-24316623D02*
X69043939Y-24316623D01*
X69043939Y-24316623D02*
X69067748Y-24328528D01*
X69067748Y-24328528D02*
X69079653Y-24340433D01*
X69079653Y-24340433D02*
X69091558Y-24364242D01*
X69091558Y-24364242D02*
X69091558Y-24388052D01*
X69091558Y-24388052D02*
X69079653Y-24423766D01*
X69079653Y-24423766D02*
X68936796Y-24566623D01*
X68936796Y-24566623D02*
X69091558Y-24566623D01*
X66907062Y-33322814D02*
X66895158Y-33334719D01*
X66895158Y-33334719D02*
X66859443Y-33346623D01*
X66859443Y-33346623D02*
X66835634Y-33346623D01*
X66835634Y-33346623D02*
X66799920Y-33334719D01*
X66799920Y-33334719D02*
X66776110Y-33310909D01*
X66776110Y-33310909D02*
X66764205Y-33287099D01*
X66764205Y-33287099D02*
X66752301Y-33239480D01*
X66752301Y-33239480D02*
X66752301Y-33203766D01*
X66752301Y-33203766D02*
X66764205Y-33156147D01*
X66764205Y-33156147D02*
X66776110Y-33132338D01*
X66776110Y-33132338D02*
X66799920Y-33108528D01*
X66799920Y-33108528D02*
X66835634Y-33096623D01*
X66835634Y-33096623D02*
X66859443Y-33096623D01*
X66859443Y-33096623D02*
X66895158Y-33108528D01*
X66895158Y-33108528D02*
X66907062Y-33120433D01*
X66990396Y-33096623D02*
X67157062Y-33096623D01*
X67157062Y-33096623D02*
X67049920Y-33346623D01*
X80028494Y-26994715D02*
X80040399Y-27006619D01*
X80040399Y-27006619D02*
X80052303Y-27042334D01*
X80052303Y-27042334D02*
X80052303Y-27066143D01*
X80052303Y-27066143D02*
X80040399Y-27101857D01*
X80040399Y-27101857D02*
X80016589Y-27125667D01*
X80016589Y-27125667D02*
X79992779Y-27137572D01*
X79992779Y-27137572D02*
X79945160Y-27149476D01*
X79945160Y-27149476D02*
X79909446Y-27149476D01*
X79909446Y-27149476D02*
X79861827Y-27137572D01*
X79861827Y-27137572D02*
X79838018Y-27125667D01*
X79838018Y-27125667D02*
X79814208Y-27101857D01*
X79814208Y-27101857D02*
X79802303Y-27066143D01*
X79802303Y-27066143D02*
X79802303Y-27042334D01*
X79802303Y-27042334D02*
X79814208Y-27006619D01*
X79814208Y-27006619D02*
X79826113Y-26994715D01*
X79802303Y-26911381D02*
X79802303Y-26756619D01*
X79802303Y-26756619D02*
X79897541Y-26839953D01*
X79897541Y-26839953D02*
X79897541Y-26804238D01*
X79897541Y-26804238D02*
X79909446Y-26780429D01*
X79909446Y-26780429D02*
X79921351Y-26768524D01*
X79921351Y-26768524D02*
X79945160Y-26756619D01*
X79945160Y-26756619D02*
X80004684Y-26756619D01*
X80004684Y-26756619D02*
X80028494Y-26768524D01*
X80028494Y-26768524D02*
X80040399Y-26780429D01*
X80040399Y-26780429D02*
X80052303Y-26804238D01*
X80052303Y-26804238D02*
X80052303Y-26875667D01*
X80052303Y-26875667D02*
X80040399Y-26899476D01*
X80040399Y-26899476D02*
X80028494Y-26911381D01*
D11*
X73183548Y-30964953D02*
X73993071Y-30964953D01*
X73993071Y-30964953D02*
X74088309Y-30917334D01*
X74088309Y-30917334D02*
X74135929Y-30869715D01*
X74135929Y-30869715D02*
X74183548Y-30774477D01*
X74183548Y-30774477D02*
X74183548Y-30584001D01*
X74183548Y-30584001D02*
X74135929Y-30488763D01*
X74135929Y-30488763D02*
X74088309Y-30441144D01*
X74088309Y-30441144D02*
X73993071Y-30393525D01*
X73993071Y-30393525D02*
X73183548Y-30393525D01*
X74183548Y-29393525D02*
X74183548Y-29964953D01*
X74183548Y-29679239D02*
X73183548Y-29679239D01*
X73183548Y-29679239D02*
X73326405Y-29774477D01*
X73326405Y-29774477D02*
X73421643Y-29869715D01*
X73421643Y-29869715D02*
X73469262Y-29964953D01*
D13*
X74048494Y-36804715D02*
X74060399Y-36816619D01*
X74060399Y-36816619D02*
X74072303Y-36852334D01*
X74072303Y-36852334D02*
X74072303Y-36876143D01*
X74072303Y-36876143D02*
X74060399Y-36911857D01*
X74060399Y-36911857D02*
X74036589Y-36935667D01*
X74036589Y-36935667D02*
X74012779Y-36947572D01*
X74012779Y-36947572D02*
X73965160Y-36959476D01*
X73965160Y-36959476D02*
X73929446Y-36959476D01*
X73929446Y-36959476D02*
X73881827Y-36947572D01*
X73881827Y-36947572D02*
X73858018Y-36935667D01*
X73858018Y-36935667D02*
X73834208Y-36911857D01*
X73834208Y-36911857D02*
X73822303Y-36876143D01*
X73822303Y-36876143D02*
X73822303Y-36852334D01*
X73822303Y-36852334D02*
X73834208Y-36816619D01*
X73834208Y-36816619D02*
X73846113Y-36804715D01*
X73822303Y-36578524D02*
X73822303Y-36697572D01*
X73822303Y-36697572D02*
X73941351Y-36709476D01*
X73941351Y-36709476D02*
X73929446Y-36697572D01*
X73929446Y-36697572D02*
X73917541Y-36673762D01*
X73917541Y-36673762D02*
X73917541Y-36614238D01*
X73917541Y-36614238D02*
X73929446Y-36590429D01*
X73929446Y-36590429D02*
X73941351Y-36578524D01*
X73941351Y-36578524D02*
X73965160Y-36566619D01*
X73965160Y-36566619D02*
X74024684Y-36566619D01*
X74024684Y-36566619D02*
X74048494Y-36578524D01*
X74048494Y-36578524D02*
X74060399Y-36590429D01*
X74060399Y-36590429D02*
X74072303Y-36614238D01*
X74072303Y-36614238D02*
X74072303Y-36673762D01*
X74072303Y-36673762D02*
X74060399Y-36697572D01*
X74060399Y-36697572D02*
X74048494Y-36709476D01*
X80767062Y-33136014D02*
X80755158Y-33147919D01*
X80755158Y-33147919D02*
X80719443Y-33159823D01*
X80719443Y-33159823D02*
X80695634Y-33159823D01*
X80695634Y-33159823D02*
X80659920Y-33147919D01*
X80659920Y-33147919D02*
X80636110Y-33124109D01*
X80636110Y-33124109D02*
X80624205Y-33100299D01*
X80624205Y-33100299D02*
X80612301Y-33052680D01*
X80612301Y-33052680D02*
X80612301Y-33016966D01*
X80612301Y-33016966D02*
X80624205Y-32969347D01*
X80624205Y-32969347D02*
X80636110Y-32945538D01*
X80636110Y-32945538D02*
X80659920Y-32921728D01*
X80659920Y-32921728D02*
X80695634Y-32909823D01*
X80695634Y-32909823D02*
X80719443Y-32909823D01*
X80719443Y-32909823D02*
X80755158Y-32921728D01*
X80755158Y-32921728D02*
X80767062Y-32933633D01*
X80981348Y-32993157D02*
X80981348Y-33159823D01*
X80921824Y-32897919D02*
X80862301Y-33076490D01*
X80862301Y-33076490D02*
X81017062Y-33076490D01*
D14*
X62699010Y-43299720D02*
X63300990Y-42700280D01*
X63300990Y-42700280D02*
X62899670Y-42700280D01*
X63300990Y-42700280D02*
X63300990Y-43099060D01*
X83550280Y-42700280D02*
X83550280Y-43099060D01*
X83550280Y-42700280D02*
X83949060Y-42700280D01*
X84149720Y-43299720D02*
X83550280Y-42700280D01*
D11*
X74385713Y-46872295D02*
X73928570Y-46872295D01*
X74157142Y-46872295D02*
X74157142Y-46072295D01*
X74157142Y-46072295D02*
X74080951Y-46186580D01*
X74080951Y-46186580D02*
X74004761Y-46262771D01*
X74004761Y-46262771D02*
X73928570Y-46300866D01*
X74728571Y-46796104D02*
X74766666Y-46834200D01*
X74766666Y-46834200D02*
X74728571Y-46872295D01*
X74728571Y-46872295D02*
X74690475Y-46834200D01*
X74690475Y-46834200D02*
X74728571Y-46796104D01*
X74728571Y-46796104D02*
X74728571Y-46872295D01*
X75071427Y-46148485D02*
X75109523Y-46110390D01*
X75109523Y-46110390D02*
X75185713Y-46072295D01*
X75185713Y-46072295D02*
X75376189Y-46072295D01*
X75376189Y-46072295D02*
X75452380Y-46110390D01*
X75452380Y-46110390D02*
X75490475Y-46148485D01*
X75490475Y-46148485D02*
X75528570Y-46224676D01*
X75528570Y-46224676D02*
X75528570Y-46300866D01*
X75528570Y-46300866D02*
X75490475Y-46415152D01*
X75490475Y-46415152D02*
X75033332Y-46872295D01*
X75033332Y-46872295D02*
X75528570Y-46872295D01*
X76480952Y-46872295D02*
X76480952Y-46338961D01*
X76480952Y-46415152D02*
X76519047Y-46377057D01*
X76519047Y-46377057D02*
X76595237Y-46338961D01*
X76595237Y-46338961D02*
X76709523Y-46338961D01*
X76709523Y-46338961D02*
X76785714Y-46377057D01*
X76785714Y-46377057D02*
X76823809Y-46453247D01*
X76823809Y-46453247D02*
X76823809Y-46872295D01*
X76823809Y-46453247D02*
X76861904Y-46377057D01*
X76861904Y-46377057D02*
X76938095Y-46338961D01*
X76938095Y-46338961D02*
X77052380Y-46338961D01*
X77052380Y-46338961D02*
X77128571Y-46377057D01*
X77128571Y-46377057D02*
X77166666Y-46453247D01*
X77166666Y-46453247D02*
X77166666Y-46872295D01*
X77547619Y-46872295D02*
X77547619Y-46338961D01*
X77547619Y-46415152D02*
X77585714Y-46377057D01*
X77585714Y-46377057D02*
X77661904Y-46338961D01*
X77661904Y-46338961D02*
X77776190Y-46338961D01*
X77776190Y-46338961D02*
X77852381Y-46377057D01*
X77852381Y-46377057D02*
X77890476Y-46453247D01*
X77890476Y-46453247D02*
X77890476Y-46872295D01*
X77890476Y-46453247D02*
X77928571Y-46377057D01*
X77928571Y-46377057D02*
X78004762Y-46338961D01*
X78004762Y-46338961D02*
X78119047Y-46338961D01*
X78119047Y-46338961D02*
X78195238Y-46377057D01*
X78195238Y-46377057D02*
X78233333Y-46453247D01*
X78233333Y-46453247D02*
X78233333Y-46872295D01*
D15*
X75500000Y-43000000D02*
X75500000Y-48046420D01*
X76700000Y-43000000D02*
X76700000Y-48046420D01*
X75500000Y-47460000D02*
X76700000Y-47460000D01*
X75500000Y-47460000D02*
X76700000Y-47460000D01*
X75500000Y-47460000D02*
X75943505Y-47229126D01*
X75500000Y-47460000D02*
X75943505Y-47690874D01*
X76700000Y-47460000D02*
X76256495Y-47690874D01*
X76700000Y-47460000D02*
X76256495Y-47229126D01*
D16*
X85563729Y-27268048D02*
G75*
G02*
X80913729Y-27268049I-2325000J-1D01*
G01*
X85238730Y-27143049D02*
G75*
G02*
X81238730Y-27143048I-2000000J0D01*
G01*
X81238729Y-21143049D02*
G75*
G02*
X85238729Y-21143049I2000000J0D01*
G01*
X80913729Y-21018050D02*
G75*
G02*
X85563729Y-21018050I2325000J0D01*
G01*
X81238729Y-21143049D02*
X81238729Y-27143048D01*
X85238730Y-21143049D02*
X85238730Y-27143049D01*
X80913729Y-21018050D02*
X80913729Y-27268049D01*
X85563729Y-21018050D02*
X85563729Y-27268048D01*
X70238729Y-21353049D02*
X70238729Y-22553049D01*
X70238729Y-22053049D02*
X70738729Y-22553049D01*
X70238729Y-22553049D02*
X72238729Y-22553049D01*
X72238729Y-21353049D02*
X70238729Y-21353049D01*
X72238729Y-22553049D02*
X72238729Y-21353049D01*
X71738729Y-23103049D02*
X72738729Y-23103049D01*
X71738729Y-23603049D02*
X71738729Y-23103049D01*
X72738729Y-23103049D02*
X72738729Y-23603049D01*
X72738729Y-23603049D02*
X71738729Y-23603049D01*
X69838729Y-23103049D02*
X70838729Y-23103049D01*
X69838729Y-23603049D02*
X69838729Y-23103049D01*
X70838729Y-23103049D02*
X70838729Y-23603049D01*
X70838729Y-23603049D02*
X69838729Y-23603049D01*
X74038729Y-23803049D02*
X75038729Y-23803049D01*
X74038729Y-24303049D02*
X74038729Y-23803049D01*
X75038729Y-23803049D02*
X75038729Y-24303049D01*
X75038729Y-24303049D02*
X74038729Y-24303049D01*
X80308729Y-33863049D02*
X81308729Y-33863049D01*
X80308729Y-34363049D02*
X80308729Y-33863049D01*
X81308729Y-33863049D02*
X81308729Y-34363049D01*
X81308729Y-34363049D02*
X80308729Y-34363049D01*
X66448729Y-34233049D02*
X67448729Y-34233049D01*
X66448729Y-34733049D02*
X66448729Y-34233049D01*
X67448729Y-34233049D02*
X67448729Y-34733049D01*
X67448729Y-34733049D02*
X66448729Y-34733049D01*
X66838729Y-25973049D02*
X67838729Y-25973049D01*
X66838729Y-26473049D02*
X66838729Y-25973049D01*
X67838729Y-25973049D02*
X67838729Y-26473049D01*
X67838729Y-26473049D02*
X66838729Y-26473049D01*
X69395129Y-24703049D02*
X68395129Y-24703049D01*
X69395129Y-24203049D02*
X69395129Y-24703049D01*
X68395129Y-24703049D02*
X68395129Y-24203049D01*
X68395129Y-24203049D02*
X69395129Y-24203049D01*
X66448729Y-32983049D02*
X67448729Y-32983049D01*
X66448729Y-33483049D02*
X66448729Y-32983049D01*
X67448729Y-32983049D02*
X67448729Y-33483049D01*
X67448729Y-33483049D02*
X66448729Y-33483049D01*
X79688729Y-26453049D02*
X80188729Y-26453049D01*
X79688729Y-27453049D02*
X79688729Y-26453049D01*
X80188729Y-26453049D02*
X80188729Y-27453049D01*
X80188729Y-27453049D02*
X79688729Y-27453049D01*
X69228729Y-25703049D02*
X78228729Y-25703049D01*
X69228729Y-33703049D02*
X69228729Y-25703049D01*
X70228729Y-34703049D02*
X69228729Y-33703049D01*
X78228729Y-25703049D02*
X78228729Y-34703049D01*
X78228729Y-34703049D02*
X70228729Y-34703049D01*
X73708729Y-36263049D02*
X74208729Y-36263049D01*
X73708729Y-37263049D02*
X73708729Y-36263049D01*
X74208729Y-36263049D02*
X74208729Y-37263049D01*
X74208729Y-37263049D02*
X73708729Y-37263049D01*
X80308729Y-32796249D02*
X81308729Y-32796249D01*
X80308729Y-33296249D02*
X80308729Y-32796249D01*
X81308729Y-32796249D02*
X81308729Y-33296249D01*
X81308729Y-33296249D02*
X80308729Y-33296249D01*
M02*
