%TF.GenerationSoftware,KiCad,Pcbnew,8.0.8*%
%TF.CreationDate,2025-02-14T18:20:32-05:00*%
%TF.ProjectId,caravel-M.2-card-QFN,63617261-7665-46c2-9d4d-2e322d636172,1*%
%TF.SameCoordinates,Original*%
%TF.FileFunction,Soldermask,Bot*%
%TF.FilePolarity,Negative*%
%FSLAX46Y46*%
G04 Gerber Fmt 4.6, Leading zero omitted, Abs format (unit mm)*
G04 Created by KiCad (PCBNEW 8.0.8) date 2025-02-14 18:20:32*
%MOMM*%
%LPD*%
G01*
G04 APERTURE LIST*
G04 Aperture macros list*
%AMRoundRect*
0 Rectangle with rounded corners*
0 $1 Rounding radius*
0 $2 $3 $4 $5 $6 $7 $8 $9 X,Y pos of 4 corners*
0 Add a 4 corners polygon primitive as box body*
4,1,4,$2,$3,$4,$5,$6,$7,$8,$9,$2,$3,0*
0 Add four circle primitives for the rounded corners*
1,1,$1+$1,$2,$3*
1,1,$1+$1,$4,$5*
1,1,$1+$1,$6,$7*
1,1,$1+$1,$8,$9*
0 Add four rect primitives between the rounded corners*
20,1,$1+$1,$2,$3,$4,$5,0*
20,1,$1+$1,$4,$5,$6,$7,0*
20,1,$1+$1,$6,$7,$8,$9,0*
20,1,$1+$1,$8,$9,$2,$3,0*%
%AMFreePoly0*
4,1,6,0.300000,0.000000,0.400000,-0.300000,-0.300000,-0.300000,-0.300000,0.300000,0.400000,0.300000,0.300000,0.000000,0.300000,0.000000,$1*%
%AMFreePoly1*
4,1,6,0.250000,-0.300000,-0.250000,-0.300000,-0.350000,0.000000,-0.250000,0.300000,0.250000,0.300000,0.250000,-0.300000,0.250000,-0.300000,$1*%
G04 Aperture macros list end*
%ADD10R,1.600000X1.250000*%
%ADD11FreePoly0,270.000000*%
%ADD12FreePoly1,270.000000*%
%ADD13R,0.350000X1.950000*%
%ADD14C,5.703200*%
%ADD15C,1.500000*%
%ADD16RoundRect,0.155000X-0.155000X0.212500X-0.155000X-0.212500X0.155000X-0.212500X0.155000X0.212500X0*%
%ADD17RoundRect,0.155000X-0.212500X-0.155000X0.212500X-0.155000X0.212500X0.155000X-0.212500X0.155000X0*%
%ADD18RoundRect,0.160000X0.197500X0.160000X-0.197500X0.160000X-0.197500X-0.160000X0.197500X-0.160000X0*%
G04 APERTURE END LIST*
G36*
X76638729Y-28803049D02*
G01*
X77238729Y-28803049D01*
X77238729Y-30203049D01*
X76638729Y-30203049D01*
X76638729Y-28803049D01*
G37*
G36*
X73438729Y-28803049D02*
G01*
X74038729Y-28803049D01*
X74038729Y-30203049D01*
X73438729Y-30203049D01*
X73438729Y-28803049D01*
G37*
D10*
X73738729Y-33453049D03*
X75838729Y-33453049D03*
X75838729Y-31853049D03*
X73738729Y-31853049D03*
D11*
X76938729Y-29103049D03*
D12*
X76938729Y-29953049D03*
X73738729Y-29953049D03*
D11*
X73738729Y-29103049D03*
D13*
X82499220Y-40976000D03*
X81998840Y-40976000D03*
X81498460Y-40976000D03*
X80998080Y-40976000D03*
X80497700Y-40976000D03*
X79999860Y-40976000D03*
X79499480Y-40976000D03*
X78999100Y-40976000D03*
X78498720Y-40976000D03*
X77998340Y-40976000D03*
X77497960Y-40976000D03*
X74998600Y-40976000D03*
X74498220Y-40976000D03*
X73997840Y-40976000D03*
X73500000Y-40976000D03*
X73002160Y-40976000D03*
X72501780Y-40976000D03*
X72001400Y-40976000D03*
X71501020Y-40976000D03*
X71000640Y-40976000D03*
X70500260Y-40976000D03*
X70002420Y-40976000D03*
X69502040Y-40976000D03*
X69001660Y-40976000D03*
X68501280Y-40976000D03*
X68000900Y-40976000D03*
X67500520Y-40976000D03*
X67000140Y-40976000D03*
X66502300Y-40976000D03*
X66001920Y-40976000D03*
X65501540Y-40976000D03*
X65001160Y-40976000D03*
X64500780Y-40976000D03*
D14*
X77450000Y-20500000D03*
D15*
X83238729Y-26583049D03*
X83238729Y-21703049D03*
D16*
X77438729Y-32085549D03*
X77438729Y-33220549D03*
D17*
X74706229Y-34953049D03*
X73571229Y-34953049D03*
D18*
X75741229Y-34953049D03*
X76936229Y-34953049D03*
G36*
X83343039Y-40022734D02*
G01*
X83388794Y-40075538D01*
X83400000Y-40127049D01*
X83400000Y-42376000D01*
X83380315Y-42443039D01*
X83327511Y-42488794D01*
X83276000Y-42500000D01*
X76824000Y-42500000D01*
X76756961Y-42480315D01*
X76711206Y-42427511D01*
X76700000Y-42376000D01*
X76700000Y-40127049D01*
X76719685Y-40060010D01*
X76772489Y-40014255D01*
X76824000Y-40003049D01*
X83276000Y-40003049D01*
X83343039Y-40022734D01*
G37*
G36*
X75443039Y-40022734D02*
G01*
X75488794Y-40075538D01*
X75500000Y-40127049D01*
X75500000Y-42376000D01*
X75480315Y-42443039D01*
X75427511Y-42488794D01*
X75376000Y-42500000D01*
X63624000Y-42500000D01*
X63556961Y-42480315D01*
X63511206Y-42427511D01*
X63500000Y-42376000D01*
X63500000Y-40127049D01*
X63519685Y-40060010D01*
X63572489Y-40014255D01*
X63624000Y-40003049D01*
X75376000Y-40003049D01*
X75443039Y-40022734D01*
G37*
M02*
