%TF.GenerationSoftware,KiCad,Pcbnew,8.0.8*%
%TF.CreationDate,2025-02-14T18:20:21-05:00*%
%TF.ProjectId,caravel-M.2-card-QFN,63617261-7665-46c2-9d4d-2e322d636172,1*%
%TF.SameCoordinates,Original*%
%TF.FileFunction,Drillmap*%
%TF.FilePolarity,Positive*%
%FSLAX45Y45*%
G04 Gerber Fmt 4.5, Leading zero omitted, Abs format (unit mm)*
G04 Created by KiCad (PCBNEW 8.0.8) date 2025-02-14 18:20:21*
%MOMM*%
%LPD*%
G01*
G04 APERTURE LIST*
%ADD10C,0.010000*%
%ADD11C,0.200000*%
%ADD12C,0.100000*%
%ADD13C,0.350000*%
G04 APERTURE END LIST*
D10*
X6245000Y-2150000D02*
X6245000Y-3795000D01*
X6350000Y-4250000D02*
X6350000Y-3900000D01*
X7550000Y-3960000D02*
X7550000Y-4250000D01*
X7550000Y-4250000D02*
X6350000Y-4250000D01*
X7570000Y-2050000D02*
X6345000Y-2050000D01*
X7670000Y-3960000D02*
X7670000Y-4250000D01*
X8340000Y-3900000D02*
X8340000Y-4250000D01*
X8340000Y-4250000D02*
X7670000Y-4250000D01*
X8345000Y-2050000D02*
X7920000Y-2050000D01*
X8445000Y-2150000D02*
X8445000Y-3795000D01*
X6245000Y-2150000D02*
G75*
G02*
X6345000Y-2050000I100000J0D01*
G01*
X6297500Y-3847500D02*
G75*
G02*
X6245000Y-3795000I0J52500D01*
G01*
X6297500Y-3847500D02*
G75*
G02*
X6350000Y-3900000I0J-52500D01*
G01*
X7550000Y-3960000D02*
G75*
G02*
X7670000Y-3960000I60000J0D01*
G01*
X7920000Y-2050000D02*
G75*
G02*
X7570000Y-2050000I-175000J0D01*
G01*
X8340000Y-3900000D02*
G75*
G02*
X8392500Y-3847500I52500J0D01*
G01*
X8345000Y-2050000D02*
G75*
G02*
X8445000Y-2150000I0J-100000D01*
G01*
X8445000Y-3795000D02*
G75*
G02*
X8392500Y-3847500I-52500J0D01*
G01*
D11*
D12*
X6294103Y-2563145D02*
X6314423Y-2583465D01*
X6314423Y-2563145D02*
X6294103Y-2583465D01*
X6295153Y-2505505D02*
X6315473Y-2525825D01*
X6315473Y-2505505D02*
X6295153Y-2525825D01*
X6345953Y-2469945D02*
X6366273Y-2490265D01*
X6366273Y-2469945D02*
X6345953Y-2490265D01*
X6457713Y-2373425D02*
X6478033Y-2393745D01*
X6478033Y-2373425D02*
X6457713Y-2393745D01*
X6504260Y-2342506D02*
X6524580Y-2362826D01*
X6524580Y-2342506D02*
X6504260Y-2362826D01*
X6543553Y-2302774D02*
X6563873Y-2323094D01*
X6563873Y-2302774D02*
X6543553Y-2323094D01*
X6589793Y-2266745D02*
X6610113Y-2287065D01*
X6610113Y-2266745D02*
X6589793Y-2287065D01*
X6640593Y-2231185D02*
X6660913Y-2251505D01*
X6660913Y-2231185D02*
X6640593Y-2251505D01*
X6681233Y-2175305D02*
X6701553Y-2195625D01*
X6701553Y-2175305D02*
X6681233Y-2195625D01*
X6748713Y-2935145D02*
X6769033Y-2955465D01*
X6769033Y-2935145D02*
X6748713Y-2955465D01*
X6753373Y-2725805D02*
X6773693Y-2746125D01*
X6773693Y-2725805D02*
X6753373Y-2746125D01*
X6753990Y-3229868D02*
X6774310Y-3250188D01*
X6774310Y-3229868D02*
X6753990Y-3250188D01*
X6755713Y-2786145D02*
X6776033Y-2806465D01*
X6776033Y-2786145D02*
X6755713Y-2806465D01*
X6778134Y-3131724D02*
X6798454Y-3152044D01*
X6798454Y-3131724D02*
X6778134Y-3152044D01*
X6780496Y-3037570D02*
X6800816Y-3057890D01*
X6800816Y-3037570D02*
X6780496Y-3057890D01*
X6788189Y-2834840D02*
X6808509Y-2855160D01*
X6808509Y-2834840D02*
X6788189Y-2855160D01*
X6796713Y-3540145D02*
X6817033Y-3560465D01*
X6817033Y-3540145D02*
X6796713Y-3560465D01*
X6803713Y-3278275D02*
X6824033Y-3298595D01*
X6824033Y-3278275D02*
X6803713Y-3298595D01*
X6805713Y-3185145D02*
X6826033Y-3205465D01*
X6826033Y-3185145D02*
X6805713Y-3205465D01*
X6807713Y-2887145D02*
X6828033Y-2907465D01*
X6828033Y-2887145D02*
X6807713Y-2907465D01*
X6809713Y-3085145D02*
X6830033Y-3105465D01*
X6830033Y-3085145D02*
X6809713Y-3105465D01*
X6836713Y-3583145D02*
X6857033Y-3603465D01*
X6857033Y-3583145D02*
X6836713Y-3603465D01*
X6874547Y-2561978D02*
X6894867Y-2582298D01*
X6894867Y-2561978D02*
X6874547Y-2582298D01*
X6887713Y-3623145D02*
X6908033Y-3643465D01*
X6908033Y-3623145D02*
X6887713Y-3643465D01*
X6940713Y-3651145D02*
X6961033Y-3671465D01*
X6961033Y-3651145D02*
X6940713Y-3671465D01*
X7004713Y-3686145D02*
X7025033Y-3706465D01*
X7025033Y-3686145D02*
X7004713Y-3706465D01*
X7057153Y-2480145D02*
X7077473Y-2500465D01*
X7077473Y-2480145D02*
X7057153Y-2500465D01*
X7080713Y-3727145D02*
X7101033Y-3747465D01*
X7101033Y-3727145D02*
X7080713Y-3747465D01*
X7150713Y-3701145D02*
X7171033Y-3721465D01*
X7171033Y-3701145D02*
X7150713Y-3721465D01*
X7233713Y-3687645D02*
X7254033Y-3707965D01*
X7254033Y-3687645D02*
X7233713Y-3707965D01*
X7237713Y-2480145D02*
X7258033Y-2500465D01*
X7258033Y-2480145D02*
X7237713Y-2500465D01*
X7258066Y-3737939D02*
X7278386Y-3758259D01*
X7278386Y-3737939D02*
X7258066Y-3758259D01*
X7287713Y-2455145D02*
X7308033Y-2475465D01*
X7308033Y-2455145D02*
X7287713Y-2475465D01*
X7312713Y-3877275D02*
X7333033Y-3897595D01*
X7333033Y-3877275D02*
X7312713Y-3897595D01*
X7316713Y-3754145D02*
X7337033Y-3774465D01*
X7337033Y-3754145D02*
X7316713Y-3774465D01*
X7337713Y-2480145D02*
X7358033Y-2500465D01*
X7358033Y-2480145D02*
X7337713Y-2500465D01*
X7493713Y-3030145D02*
X7514033Y-3050465D01*
X7514033Y-3030145D02*
X7493713Y-3050465D01*
X7493713Y-3575145D02*
X7514033Y-3595465D01*
X7514033Y-3575145D02*
X7493713Y-3595465D01*
X7536711Y-2477213D02*
X7557031Y-2497533D01*
X7557031Y-2477213D02*
X7536711Y-2497533D01*
X7553713Y-3575145D02*
X7574033Y-3595465D01*
X7574033Y-3575145D02*
X7553713Y-3595465D01*
X7592001Y-2469116D02*
X7612321Y-2489436D01*
X7612321Y-2469116D02*
X7592001Y-2489436D01*
X7612545Y-3615559D02*
X7632865Y-3635879D01*
X7632865Y-3615559D02*
X7612545Y-3635879D01*
X7647613Y-2464177D02*
X7667933Y-2484497D01*
X7667933Y-2464177D02*
X7647613Y-2484497D01*
X7667894Y-3607867D02*
X7688214Y-3628187D01*
X7688214Y-3607867D02*
X7667894Y-3628187D01*
X7703402Y-2466328D02*
X7723722Y-2486648D01*
X7723722Y-2466328D02*
X7703402Y-2486648D01*
X7718508Y-3584186D02*
X7738828Y-3604506D01*
X7738828Y-3584186D02*
X7718508Y-3604506D01*
X7763713Y-3085145D02*
X7784033Y-3105465D01*
X7784033Y-3085145D02*
X7763713Y-3105465D01*
X7770006Y-3562494D02*
X7790326Y-3582814D01*
X7790326Y-3562494D02*
X7770006Y-3582814D01*
X7773713Y-2475145D02*
X7794033Y-2495465D01*
X7794033Y-2475145D02*
X7773713Y-2495465D01*
X7843713Y-2485145D02*
X7864033Y-2505465D01*
X7864033Y-2485145D02*
X7843713Y-2505465D01*
X7883713Y-2535145D02*
X7904033Y-2555465D01*
X7904033Y-2535145D02*
X7883713Y-2555465D01*
X7961713Y-3550145D02*
X7982033Y-3570465D01*
X7982033Y-3550145D02*
X7961713Y-3570465D01*
X7962713Y-3483145D02*
X7983033Y-3503465D01*
X7983033Y-3483145D02*
X7962713Y-3503465D01*
X7985713Y-2958145D02*
X8006033Y-2978465D01*
X8006033Y-2958145D02*
X7985713Y-2978465D01*
X8011213Y-2832645D02*
X8031533Y-2852965D01*
X8031533Y-2832645D02*
X8011213Y-2852965D01*
X8087713Y-2880145D02*
X8108033Y-2900465D01*
X8108033Y-2880145D02*
X8087713Y-2900465D01*
X8161713Y-2930145D02*
X8182033Y-2950465D01*
X8182033Y-2930145D02*
X8161713Y-2950465D01*
X8179833Y-3592625D02*
X8200153Y-3612945D01*
X8200153Y-3592625D02*
X8179833Y-3612945D01*
X8188713Y-3361145D02*
X8209033Y-3381465D01*
X8209033Y-3361145D02*
X8188713Y-3381465D01*
X8199713Y-3297145D02*
X8220033Y-3317465D01*
X8220033Y-3297145D02*
X8199713Y-3317465D01*
X8211713Y-2979145D02*
X8232033Y-2999465D01*
X8232033Y-2979145D02*
X8211713Y-2999465D01*
X8220473Y-3536745D02*
X8240793Y-3557065D01*
X8240793Y-3536745D02*
X8220473Y-3557065D01*
X8229713Y-3237145D02*
X8250033Y-3257465D01*
X8250033Y-3237145D02*
X8229713Y-3257465D01*
X8254713Y-3063145D02*
X8275033Y-3083465D01*
X8275033Y-3063145D02*
X8254713Y-3083465D01*
X8290713Y-3230145D02*
X8311033Y-3250465D01*
X8311033Y-3230145D02*
X8290713Y-3250465D01*
X6306373Y-3800305D02*
G75*
G02*
X6281373Y-3800305I-12500J0D01*
G01*
X6281373Y-3800305D02*
G75*
G02*
X6306373Y-3800305I12500J0D01*
G01*
X6698373Y-2696305D02*
G75*
G02*
X6673373Y-2696305I-12500J0D01*
G01*
X6673373Y-2696305D02*
G75*
G02*
X6698373Y-2696305I12500J0D01*
G01*
X6756373Y-2104185D02*
G75*
G02*
X6731373Y-2104185I-12500J0D01*
G01*
X6731373Y-2104185D02*
G75*
G02*
X6756373Y-2104185I12500J0D01*
G01*
X6780093Y-2444545D02*
G75*
G02*
X6755093Y-2444545I-12500J0D01*
G01*
X6755093Y-2444545D02*
G75*
G02*
X6780093Y-2444545I12500J0D01*
G01*
X6833373Y-2995305D02*
G75*
G02*
X6808373Y-2995305I-12500J0D01*
G01*
X6808373Y-2995305D02*
G75*
G02*
X6833373Y-2995305I12500J0D01*
G01*
X6843373Y-3347305D02*
G75*
G02*
X6818373Y-3347305I-12500J0D01*
G01*
X6818373Y-3347305D02*
G75*
G02*
X6843373Y-3347305I12500J0D01*
G01*
X6845373Y-2795305D02*
G75*
G02*
X6820373Y-2795305I-12500J0D01*
G01*
X6820373Y-2795305D02*
G75*
G02*
X6845373Y-2795305I12500J0D01*
G01*
X6849373Y-3429305D02*
G75*
G02*
X6824373Y-3429305I-12500J0D01*
G01*
X6824373Y-3429305D02*
G75*
G02*
X6849373Y-3429305I12500J0D01*
G01*
X6863373Y-2645305D02*
G75*
G02*
X6838373Y-2645305I-12500J0D01*
G01*
X6838373Y-2645305D02*
G75*
G02*
X6863373Y-2645305I12500J0D01*
G01*
X6898373Y-3492305D02*
G75*
G02*
X6873373Y-3492305I-12500J0D01*
G01*
X6873373Y-3492305D02*
G75*
G02*
X6898373Y-3492305I12500J0D01*
G01*
X7018853Y-2434385D02*
G75*
G02*
X6993853Y-2434385I-12500J0D01*
G01*
X6993853Y-2434385D02*
G75*
G02*
X7018853Y-2434385I12500J0D01*
G01*
X7166373Y-2435305D02*
G75*
G02*
X7141373Y-2435305I-12500J0D01*
G01*
X7141373Y-2435305D02*
G75*
G02*
X7166373Y-2435305I12500J0D01*
G01*
X7359213Y-2368345D02*
G75*
G02*
X7334213Y-2368345I-12500J0D01*
G01*
X7334213Y-2368345D02*
G75*
G02*
X7359213Y-2368345I12500J0D01*
G01*
X7410373Y-3565305D02*
G75*
G02*
X7385373Y-3565305I-12500J0D01*
G01*
X7385373Y-3565305D02*
G75*
G02*
X7410373Y-3565305I12500J0D01*
G01*
X7484886Y-2485134D02*
G75*
G02*
X7459886Y-2485134I-12500J0D01*
G01*
X7459886Y-2485134D02*
G75*
G02*
X7484886Y-2485134I12500J0D01*
G01*
X7546373Y-3755305D02*
G75*
G02*
X7521373Y-3755305I-12500J0D01*
G01*
X7521373Y-3755305D02*
G75*
G02*
X7546373Y-3755305I12500J0D01*
G01*
X7664013Y-3800905D02*
G75*
G02*
X7639013Y-3800905I-12500J0D01*
G01*
X7639013Y-3800905D02*
G75*
G02*
X7664013Y-3800905I12500J0D01*
G01*
X7864373Y-3877105D02*
G75*
G02*
X7839373Y-3877105I-12500J0D01*
G01*
X7839373Y-3877105D02*
G75*
G02*
X7864373Y-3877105I12500J0D01*
G01*
X7869753Y-3793285D02*
G75*
G02*
X7844753Y-3793285I-12500J0D01*
G01*
X7844753Y-3793285D02*
G75*
G02*
X7869753Y-3793285I12500J0D01*
G01*
X7946373Y-2795305D02*
G75*
G02*
X7921373Y-2795305I-12500J0D01*
G01*
X7921373Y-2795305D02*
G75*
G02*
X7946373Y-2795305I12500J0D01*
G01*
X7948373Y-3274305D02*
G75*
G02*
X7923373Y-3274305I-12500J0D01*
G01*
X7923373Y-3274305D02*
G75*
G02*
X7948373Y-3274305I12500J0D01*
G01*
X7953373Y-3345305D02*
G75*
G02*
X7928373Y-3345305I-12500J0D01*
G01*
X7928373Y-3345305D02*
G75*
G02*
X7953373Y-3345305I12500J0D01*
G01*
X7956373Y-3096305D02*
G75*
G02*
X7931373Y-3096305I-12500J0D01*
G01*
X7931373Y-3096305D02*
G75*
G02*
X7956373Y-3096305I12500J0D01*
G01*
X7956373Y-3415305D02*
G75*
G02*
X7931373Y-3415305I-12500J0D01*
G01*
X7931373Y-3415305D02*
G75*
G02*
X7956373Y-3415305I12500J0D01*
G01*
X7995873Y-3734805D02*
G75*
G02*
X7970873Y-3734805I-12500J0D01*
G01*
X7970873Y-3734805D02*
G75*
G02*
X7995873Y-3734805I12500J0D01*
G01*
X8096373Y-3695305D02*
G75*
G02*
X8071373Y-3695305I-12500J0D01*
G01*
X8071373Y-3695305D02*
G75*
G02*
X8096373Y-3695305I12500J0D01*
G01*
X8146373Y-2765305D02*
G75*
G02*
X8121373Y-2765305I-12500J0D01*
G01*
X8121373Y-2765305D02*
G75*
G02*
X8146373Y-2765305I12500J0D01*
G01*
X8253293Y-3831385D02*
G75*
G02*
X8228293Y-3831385I-12500J0D01*
G01*
X8228293Y-3831385D02*
G75*
G02*
X8253293Y-3831385I12500J0D01*
G01*
X8346373Y-3065305D02*
G75*
G02*
X8321373Y-3065305I-12500J0D01*
G01*
X8321373Y-3065305D02*
G75*
G02*
X8346373Y-3065305I12500J0D01*
G01*
X8372373Y-3764631D02*
G75*
G02*
X8347373Y-3764631I-12500J0D01*
G01*
X8347373Y-3764631D02*
G75*
G02*
X8372373Y-3764631I12500J0D01*
G01*
X8400613Y-2906825D02*
G75*
G02*
X8375613Y-2906825I-12500J0D01*
G01*
X8375613Y-2906825D02*
G75*
G02*
X8400613Y-2906825I12500J0D01*
G01*
X8406373Y-2445305D02*
G75*
G02*
X8381373Y-2445305I-12500J0D01*
G01*
X8381373Y-2445305D02*
G75*
G02*
X8406373Y-2445305I12500J0D01*
G01*
X8323873Y-2130305D02*
X8323873Y-2210305D01*
X8283873Y-2170305D02*
X8363873Y-2170305D01*
X8323873Y-2618305D02*
X8323873Y-2698305D01*
X8283873Y-2658305D02*
X8363873Y-2658305D01*
D13*
X7868745Y-2173745D02*
X7868745Y-1926255D01*
X7621255Y-1926255D01*
X7621255Y-2173745D01*
X7868745Y-2173745D01*
D11*
X6505277Y-4561984D02*
X6505277Y-4361984D01*
X6505277Y-4361984D02*
X6552896Y-4361984D01*
X6552896Y-4361984D02*
X6581467Y-4371508D01*
X6581467Y-4371508D02*
X6600515Y-4390555D01*
X6600515Y-4390555D02*
X6610039Y-4409603D01*
X6610039Y-4409603D02*
X6619562Y-4447698D01*
X6619562Y-4447698D02*
X6619562Y-4476270D01*
X6619562Y-4476270D02*
X6610039Y-4514365D01*
X6610039Y-4514365D02*
X6600515Y-4533412D01*
X6600515Y-4533412D02*
X6581467Y-4552460D01*
X6581467Y-4552460D02*
X6552896Y-4561984D01*
X6552896Y-4561984D02*
X6505277Y-4561984D01*
X6705277Y-4561984D02*
X6705277Y-4428650D01*
X6705277Y-4466746D02*
X6714801Y-4447698D01*
X6714801Y-4447698D02*
X6724324Y-4438174D01*
X6724324Y-4438174D02*
X6743372Y-4428650D01*
X6743372Y-4428650D02*
X6762420Y-4428650D01*
X6829086Y-4561984D02*
X6829086Y-4428650D01*
X6829086Y-4361984D02*
X6819562Y-4371508D01*
X6819562Y-4371508D02*
X6829086Y-4381031D01*
X6829086Y-4381031D02*
X6838610Y-4371508D01*
X6838610Y-4371508D02*
X6829086Y-4361984D01*
X6829086Y-4361984D02*
X6829086Y-4381031D01*
X6952896Y-4561984D02*
X6933848Y-4552460D01*
X6933848Y-4552460D02*
X6924324Y-4533412D01*
X6924324Y-4533412D02*
X6924324Y-4361984D01*
X7057658Y-4561984D02*
X7038610Y-4552460D01*
X7038610Y-4552460D02*
X7029086Y-4533412D01*
X7029086Y-4533412D02*
X7029086Y-4361984D01*
X7286229Y-4561984D02*
X7286229Y-4361984D01*
X7286229Y-4361984D02*
X7352896Y-4504841D01*
X7352896Y-4504841D02*
X7419562Y-4361984D01*
X7419562Y-4361984D02*
X7419562Y-4561984D01*
X7600515Y-4561984D02*
X7600515Y-4457222D01*
X7600515Y-4457222D02*
X7590991Y-4438174D01*
X7590991Y-4438174D02*
X7571943Y-4428650D01*
X7571943Y-4428650D02*
X7533848Y-4428650D01*
X7533848Y-4428650D02*
X7514801Y-4438174D01*
X7600515Y-4552460D02*
X7581467Y-4561984D01*
X7581467Y-4561984D02*
X7533848Y-4561984D01*
X7533848Y-4561984D02*
X7514801Y-4552460D01*
X7514801Y-4552460D02*
X7505277Y-4533412D01*
X7505277Y-4533412D02*
X7505277Y-4514365D01*
X7505277Y-4514365D02*
X7514801Y-4495317D01*
X7514801Y-4495317D02*
X7533848Y-4485793D01*
X7533848Y-4485793D02*
X7581467Y-4485793D01*
X7581467Y-4485793D02*
X7600515Y-4476270D01*
X7695753Y-4428650D02*
X7695753Y-4628650D01*
X7695753Y-4438174D02*
X7714801Y-4428650D01*
X7714801Y-4428650D02*
X7752896Y-4428650D01*
X7752896Y-4428650D02*
X7771943Y-4438174D01*
X7771943Y-4438174D02*
X7781467Y-4447698D01*
X7781467Y-4447698D02*
X7790991Y-4466746D01*
X7790991Y-4466746D02*
X7790991Y-4523889D01*
X7790991Y-4523889D02*
X7781467Y-4542936D01*
X7781467Y-4542936D02*
X7771943Y-4552460D01*
X7771943Y-4552460D02*
X7752896Y-4561984D01*
X7752896Y-4561984D02*
X7714801Y-4561984D01*
X7714801Y-4561984D02*
X7695753Y-4552460D01*
X7876705Y-4542936D02*
X7886229Y-4552460D01*
X7886229Y-4552460D02*
X7876705Y-4561984D01*
X7876705Y-4561984D02*
X7867182Y-4552460D01*
X7867182Y-4552460D02*
X7876705Y-4542936D01*
X7876705Y-4542936D02*
X7876705Y-4561984D01*
X7876705Y-4438174D02*
X7886229Y-4447698D01*
X7886229Y-4447698D02*
X7876705Y-4457222D01*
X7876705Y-4457222D02*
X7867182Y-4447698D01*
X7867182Y-4447698D02*
X7876705Y-4438174D01*
X7876705Y-4438174D02*
X7876705Y-4457222D01*
D12*
X6224180Y-4880340D02*
X6244500Y-4900660D01*
X6244500Y-4880340D02*
X6224180Y-4900660D01*
D11*
X6543372Y-4781984D02*
X6562420Y-4781984D01*
X6562420Y-4781984D02*
X6581467Y-4791508D01*
X6581467Y-4791508D02*
X6590991Y-4801031D01*
X6590991Y-4801031D02*
X6600515Y-4820079D01*
X6600515Y-4820079D02*
X6610039Y-4858174D01*
X6610039Y-4858174D02*
X6610039Y-4905793D01*
X6610039Y-4905793D02*
X6600515Y-4943889D01*
X6600515Y-4943889D02*
X6590991Y-4962936D01*
X6590991Y-4962936D02*
X6581467Y-4972460D01*
X6581467Y-4972460D02*
X6562420Y-4981984D01*
X6562420Y-4981984D02*
X6543372Y-4981984D01*
X6543372Y-4981984D02*
X6524324Y-4972460D01*
X6524324Y-4972460D02*
X6514801Y-4962936D01*
X6514801Y-4962936D02*
X6505277Y-4943889D01*
X6505277Y-4943889D02*
X6495753Y-4905793D01*
X6495753Y-4905793D02*
X6495753Y-4858174D01*
X6495753Y-4858174D02*
X6505277Y-4820079D01*
X6505277Y-4820079D02*
X6514801Y-4801031D01*
X6514801Y-4801031D02*
X6524324Y-4791508D01*
X6524324Y-4791508D02*
X6543372Y-4781984D01*
X6695753Y-4962936D02*
X6705277Y-4972460D01*
X6705277Y-4972460D02*
X6695753Y-4981984D01*
X6695753Y-4981984D02*
X6686229Y-4972460D01*
X6686229Y-4972460D02*
X6695753Y-4962936D01*
X6695753Y-4962936D02*
X6695753Y-4981984D01*
X6781467Y-4801031D02*
X6790991Y-4791508D01*
X6790991Y-4791508D02*
X6810039Y-4781984D01*
X6810039Y-4781984D02*
X6857658Y-4781984D01*
X6857658Y-4781984D02*
X6876705Y-4791508D01*
X6876705Y-4791508D02*
X6886229Y-4801031D01*
X6886229Y-4801031D02*
X6895753Y-4820079D01*
X6895753Y-4820079D02*
X6895753Y-4839127D01*
X6895753Y-4839127D02*
X6886229Y-4867698D01*
X6886229Y-4867698D02*
X6771943Y-4981984D01*
X6771943Y-4981984D02*
X6895753Y-4981984D01*
X7019562Y-4781984D02*
X7038610Y-4781984D01*
X7038610Y-4781984D02*
X7057658Y-4791508D01*
X7057658Y-4791508D02*
X7067182Y-4801031D01*
X7067182Y-4801031D02*
X7076705Y-4820079D01*
X7076705Y-4820079D02*
X7086229Y-4858174D01*
X7086229Y-4858174D02*
X7086229Y-4905793D01*
X7086229Y-4905793D02*
X7076705Y-4943889D01*
X7076705Y-4943889D02*
X7067182Y-4962936D01*
X7067182Y-4962936D02*
X7057658Y-4972460D01*
X7057658Y-4972460D02*
X7038610Y-4981984D01*
X7038610Y-4981984D02*
X7019562Y-4981984D01*
X7019562Y-4981984D02*
X7000515Y-4972460D01*
X7000515Y-4972460D02*
X6990991Y-4962936D01*
X6990991Y-4962936D02*
X6981467Y-4943889D01*
X6981467Y-4943889D02*
X6971943Y-4905793D01*
X6971943Y-4905793D02*
X6971943Y-4858174D01*
X6971943Y-4858174D02*
X6981467Y-4820079D01*
X6981467Y-4820079D02*
X6990991Y-4801031D01*
X6990991Y-4801031D02*
X7000515Y-4791508D01*
X7000515Y-4791508D02*
X7019562Y-4781984D01*
X7152896Y-4781984D02*
X7276705Y-4781984D01*
X7276705Y-4781984D02*
X7210039Y-4858174D01*
X7210039Y-4858174D02*
X7238610Y-4858174D01*
X7238610Y-4858174D02*
X7257658Y-4867698D01*
X7257658Y-4867698D02*
X7267182Y-4877222D01*
X7267182Y-4877222D02*
X7276705Y-4896270D01*
X7276705Y-4896270D02*
X7276705Y-4943889D01*
X7276705Y-4943889D02*
X7267182Y-4962936D01*
X7267182Y-4962936D02*
X7257658Y-4972460D01*
X7257658Y-4972460D02*
X7238610Y-4981984D01*
X7238610Y-4981984D02*
X7181467Y-4981984D01*
X7181467Y-4981984D02*
X7162420Y-4972460D01*
X7162420Y-4972460D02*
X7152896Y-4962936D01*
X7362420Y-4981984D02*
X7362420Y-4848650D01*
X7362420Y-4867698D02*
X7371943Y-4858174D01*
X7371943Y-4858174D02*
X7390991Y-4848650D01*
X7390991Y-4848650D02*
X7419563Y-4848650D01*
X7419563Y-4848650D02*
X7438610Y-4858174D01*
X7438610Y-4858174D02*
X7448134Y-4877222D01*
X7448134Y-4877222D02*
X7448134Y-4981984D01*
X7448134Y-4877222D02*
X7457658Y-4858174D01*
X7457658Y-4858174D02*
X7476705Y-4848650D01*
X7476705Y-4848650D02*
X7505277Y-4848650D01*
X7505277Y-4848650D02*
X7524324Y-4858174D01*
X7524324Y-4858174D02*
X7533848Y-4877222D01*
X7533848Y-4877222D02*
X7533848Y-4981984D01*
X7629086Y-4981984D02*
X7629086Y-4848650D01*
X7629086Y-4867698D02*
X7638610Y-4858174D01*
X7638610Y-4858174D02*
X7657658Y-4848650D01*
X7657658Y-4848650D02*
X7686229Y-4848650D01*
X7686229Y-4848650D02*
X7705277Y-4858174D01*
X7705277Y-4858174D02*
X7714801Y-4877222D01*
X7714801Y-4877222D02*
X7714801Y-4981984D01*
X7714801Y-4877222D02*
X7724324Y-4858174D01*
X7724324Y-4858174D02*
X7743372Y-4848650D01*
X7743372Y-4848650D02*
X7771943Y-4848650D01*
X7771943Y-4848650D02*
X7790991Y-4858174D01*
X7790991Y-4858174D02*
X7800515Y-4877222D01*
X7800515Y-4877222D02*
X7800515Y-4981984D01*
X8190991Y-4772460D02*
X8019563Y-5029603D01*
X8448134Y-4781984D02*
X8467182Y-4781984D01*
X8467182Y-4781984D02*
X8486229Y-4791508D01*
X8486229Y-4791508D02*
X8495753Y-4801031D01*
X8495753Y-4801031D02*
X8505277Y-4820079D01*
X8505277Y-4820079D02*
X8514801Y-4858174D01*
X8514801Y-4858174D02*
X8514801Y-4905793D01*
X8514801Y-4905793D02*
X8505277Y-4943889D01*
X8505277Y-4943889D02*
X8495753Y-4962936D01*
X8495753Y-4962936D02*
X8486229Y-4972460D01*
X8486229Y-4972460D02*
X8467182Y-4981984D01*
X8467182Y-4981984D02*
X8448134Y-4981984D01*
X8448134Y-4981984D02*
X8429087Y-4972460D01*
X8429087Y-4972460D02*
X8419563Y-4962936D01*
X8419563Y-4962936D02*
X8410039Y-4943889D01*
X8410039Y-4943889D02*
X8400515Y-4905793D01*
X8400515Y-4905793D02*
X8400515Y-4858174D01*
X8400515Y-4858174D02*
X8410039Y-4820079D01*
X8410039Y-4820079D02*
X8419563Y-4801031D01*
X8419563Y-4801031D02*
X8429087Y-4791508D01*
X8429087Y-4791508D02*
X8448134Y-4781984D01*
X8600515Y-4962936D02*
X8610039Y-4972460D01*
X8610039Y-4972460D02*
X8600515Y-4981984D01*
X8600515Y-4981984D02*
X8590991Y-4972460D01*
X8590991Y-4972460D02*
X8600515Y-4962936D01*
X8600515Y-4962936D02*
X8600515Y-4981984D01*
X8733848Y-4781984D02*
X8752896Y-4781984D01*
X8752896Y-4781984D02*
X8771944Y-4791508D01*
X8771944Y-4791508D02*
X8781468Y-4801031D01*
X8781468Y-4801031D02*
X8790991Y-4820079D01*
X8790991Y-4820079D02*
X8800515Y-4858174D01*
X8800515Y-4858174D02*
X8800515Y-4905793D01*
X8800515Y-4905793D02*
X8790991Y-4943889D01*
X8790991Y-4943889D02*
X8781468Y-4962936D01*
X8781468Y-4962936D02*
X8771944Y-4972460D01*
X8771944Y-4972460D02*
X8752896Y-4981984D01*
X8752896Y-4981984D02*
X8733848Y-4981984D01*
X8733848Y-4981984D02*
X8714801Y-4972460D01*
X8714801Y-4972460D02*
X8705277Y-4962936D01*
X8705277Y-4962936D02*
X8695753Y-4943889D01*
X8695753Y-4943889D02*
X8686229Y-4905793D01*
X8686229Y-4905793D02*
X8686229Y-4858174D01*
X8686229Y-4858174D02*
X8695753Y-4820079D01*
X8695753Y-4820079D02*
X8705277Y-4801031D01*
X8705277Y-4801031D02*
X8714801Y-4791508D01*
X8714801Y-4791508D02*
X8733848Y-4781984D01*
X8924325Y-4781984D02*
X8943372Y-4781984D01*
X8943372Y-4781984D02*
X8962420Y-4791508D01*
X8962420Y-4791508D02*
X8971944Y-4801031D01*
X8971944Y-4801031D02*
X8981468Y-4820079D01*
X8981468Y-4820079D02*
X8990991Y-4858174D01*
X8990991Y-4858174D02*
X8990991Y-4905793D01*
X8990991Y-4905793D02*
X8981468Y-4943889D01*
X8981468Y-4943889D02*
X8971944Y-4962936D01*
X8971944Y-4962936D02*
X8962420Y-4972460D01*
X8962420Y-4972460D02*
X8943372Y-4981984D01*
X8943372Y-4981984D02*
X8924325Y-4981984D01*
X8924325Y-4981984D02*
X8905277Y-4972460D01*
X8905277Y-4972460D02*
X8895753Y-4962936D01*
X8895753Y-4962936D02*
X8886229Y-4943889D01*
X8886229Y-4943889D02*
X8876706Y-4905793D01*
X8876706Y-4905793D02*
X8876706Y-4858174D01*
X8876706Y-4858174D02*
X8886229Y-4820079D01*
X8886229Y-4820079D02*
X8895753Y-4801031D01*
X8895753Y-4801031D02*
X8905277Y-4791508D01*
X8905277Y-4791508D02*
X8924325Y-4781984D01*
X9105277Y-4867698D02*
X9086229Y-4858174D01*
X9086229Y-4858174D02*
X9076706Y-4848650D01*
X9076706Y-4848650D02*
X9067182Y-4829603D01*
X9067182Y-4829603D02*
X9067182Y-4820079D01*
X9067182Y-4820079D02*
X9076706Y-4801031D01*
X9076706Y-4801031D02*
X9086229Y-4791508D01*
X9086229Y-4791508D02*
X9105277Y-4781984D01*
X9105277Y-4781984D02*
X9143372Y-4781984D01*
X9143372Y-4781984D02*
X9162420Y-4791508D01*
X9162420Y-4791508D02*
X9171944Y-4801031D01*
X9171944Y-4801031D02*
X9181468Y-4820079D01*
X9181468Y-4820079D02*
X9181468Y-4829603D01*
X9181468Y-4829603D02*
X9171944Y-4848650D01*
X9171944Y-4848650D02*
X9162420Y-4858174D01*
X9162420Y-4858174D02*
X9143372Y-4867698D01*
X9143372Y-4867698D02*
X9105277Y-4867698D01*
X9105277Y-4867698D02*
X9086229Y-4877222D01*
X9086229Y-4877222D02*
X9076706Y-4886746D01*
X9076706Y-4886746D02*
X9067182Y-4905793D01*
X9067182Y-4905793D02*
X9067182Y-4943889D01*
X9067182Y-4943889D02*
X9076706Y-4962936D01*
X9076706Y-4962936D02*
X9086229Y-4972460D01*
X9086229Y-4972460D02*
X9105277Y-4981984D01*
X9105277Y-4981984D02*
X9143372Y-4981984D01*
X9143372Y-4981984D02*
X9162420Y-4972460D01*
X9162420Y-4972460D02*
X9171944Y-4962936D01*
X9171944Y-4962936D02*
X9181468Y-4943889D01*
X9181468Y-4943889D02*
X9181468Y-4905793D01*
X9181468Y-4905793D02*
X9171944Y-4886746D01*
X9171944Y-4886746D02*
X9162420Y-4877222D01*
X9162420Y-4877222D02*
X9143372Y-4867698D01*
X9305277Y-4781984D02*
X9324325Y-4781984D01*
X9324325Y-4781984D02*
X9343372Y-4791508D01*
X9343372Y-4791508D02*
X9352896Y-4801031D01*
X9352896Y-4801031D02*
X9362420Y-4820079D01*
X9362420Y-4820079D02*
X9371944Y-4858174D01*
X9371944Y-4858174D02*
X9371944Y-4905793D01*
X9371944Y-4905793D02*
X9362420Y-4943889D01*
X9362420Y-4943889D02*
X9352896Y-4962936D01*
X9352896Y-4962936D02*
X9343372Y-4972460D01*
X9343372Y-4972460D02*
X9324325Y-4981984D01*
X9324325Y-4981984D02*
X9305277Y-4981984D01*
X9305277Y-4981984D02*
X9286229Y-4972460D01*
X9286229Y-4972460D02*
X9276706Y-4962936D01*
X9276706Y-4962936D02*
X9267182Y-4943889D01*
X9267182Y-4943889D02*
X9257658Y-4905793D01*
X9257658Y-4905793D02*
X9257658Y-4858174D01*
X9257658Y-4858174D02*
X9267182Y-4820079D01*
X9267182Y-4820079D02*
X9276706Y-4801031D01*
X9276706Y-4801031D02*
X9286229Y-4791508D01*
X9286229Y-4791508D02*
X9305277Y-4781984D01*
X9448134Y-4781984D02*
X9448134Y-4820079D01*
X9524325Y-4781984D02*
X9524325Y-4820079D01*
X9819563Y-5058174D02*
X9810039Y-5048650D01*
X9810039Y-5048650D02*
X9790991Y-5020079D01*
X9790991Y-5020079D02*
X9781468Y-5001031D01*
X9781468Y-5001031D02*
X9771944Y-4972460D01*
X9771944Y-4972460D02*
X9762420Y-4924841D01*
X9762420Y-4924841D02*
X9762420Y-4886746D01*
X9762420Y-4886746D02*
X9771944Y-4839127D01*
X9771944Y-4839127D02*
X9781468Y-4810555D01*
X9781468Y-4810555D02*
X9790991Y-4791508D01*
X9790991Y-4791508D02*
X9810039Y-4762936D01*
X9810039Y-4762936D02*
X9819563Y-4753412D01*
X9981468Y-4781984D02*
X9943372Y-4781984D01*
X9943372Y-4781984D02*
X9924325Y-4791508D01*
X9924325Y-4791508D02*
X9914801Y-4801031D01*
X9914801Y-4801031D02*
X9895753Y-4829603D01*
X9895753Y-4829603D02*
X9886230Y-4867698D01*
X9886230Y-4867698D02*
X9886230Y-4943889D01*
X9886230Y-4943889D02*
X9895753Y-4962936D01*
X9895753Y-4962936D02*
X9905277Y-4972460D01*
X9905277Y-4972460D02*
X9924325Y-4981984D01*
X9924325Y-4981984D02*
X9962420Y-4981984D01*
X9962420Y-4981984D02*
X9981468Y-4972460D01*
X9981468Y-4972460D02*
X9990991Y-4962936D01*
X9990991Y-4962936D02*
X10000515Y-4943889D01*
X10000515Y-4943889D02*
X10000515Y-4896270D01*
X10000515Y-4896270D02*
X9990991Y-4877222D01*
X9990991Y-4877222D02*
X9981468Y-4867698D01*
X9981468Y-4867698D02*
X9962420Y-4858174D01*
X9962420Y-4858174D02*
X9924325Y-4858174D01*
X9924325Y-4858174D02*
X9905277Y-4867698D01*
X9905277Y-4867698D02*
X9895753Y-4877222D01*
X9895753Y-4877222D02*
X9886230Y-4896270D01*
X10181468Y-4781984D02*
X10086230Y-4781984D01*
X10086230Y-4781984D02*
X10076706Y-4877222D01*
X10076706Y-4877222D02*
X10086230Y-4867698D01*
X10086230Y-4867698D02*
X10105277Y-4858174D01*
X10105277Y-4858174D02*
X10152896Y-4858174D01*
X10152896Y-4858174D02*
X10171944Y-4867698D01*
X10171944Y-4867698D02*
X10181468Y-4877222D01*
X10181468Y-4877222D02*
X10190991Y-4896270D01*
X10190991Y-4896270D02*
X10190991Y-4943889D01*
X10190991Y-4943889D02*
X10181468Y-4962936D01*
X10181468Y-4962936D02*
X10171944Y-4972460D01*
X10171944Y-4972460D02*
X10152896Y-4981984D01*
X10152896Y-4981984D02*
X10105277Y-4981984D01*
X10105277Y-4981984D02*
X10086230Y-4972460D01*
X10086230Y-4972460D02*
X10076706Y-4962936D01*
X10429087Y-4981984D02*
X10429087Y-4781984D01*
X10514801Y-4981984D02*
X10514801Y-4877222D01*
X10514801Y-4877222D02*
X10505277Y-4858174D01*
X10505277Y-4858174D02*
X10486230Y-4848650D01*
X10486230Y-4848650D02*
X10457658Y-4848650D01*
X10457658Y-4848650D02*
X10438611Y-4858174D01*
X10438611Y-4858174D02*
X10429087Y-4867698D01*
X10638611Y-4981984D02*
X10619563Y-4972460D01*
X10619563Y-4972460D02*
X10610039Y-4962936D01*
X10610039Y-4962936D02*
X10600515Y-4943889D01*
X10600515Y-4943889D02*
X10600515Y-4886746D01*
X10600515Y-4886746D02*
X10610039Y-4867698D01*
X10610039Y-4867698D02*
X10619563Y-4858174D01*
X10619563Y-4858174D02*
X10638611Y-4848650D01*
X10638611Y-4848650D02*
X10667182Y-4848650D01*
X10667182Y-4848650D02*
X10686230Y-4858174D01*
X10686230Y-4858174D02*
X10695753Y-4867698D01*
X10695753Y-4867698D02*
X10705277Y-4886746D01*
X10705277Y-4886746D02*
X10705277Y-4943889D01*
X10705277Y-4943889D02*
X10695753Y-4962936D01*
X10695753Y-4962936D02*
X10686230Y-4972460D01*
X10686230Y-4972460D02*
X10667182Y-4981984D01*
X10667182Y-4981984D02*
X10638611Y-4981984D01*
X10819563Y-4981984D02*
X10800515Y-4972460D01*
X10800515Y-4972460D02*
X10790992Y-4953412D01*
X10790992Y-4953412D02*
X10790992Y-4781984D01*
X10971944Y-4972460D02*
X10952896Y-4981984D01*
X10952896Y-4981984D02*
X10914801Y-4981984D01*
X10914801Y-4981984D02*
X10895753Y-4972460D01*
X10895753Y-4972460D02*
X10886230Y-4953412D01*
X10886230Y-4953412D02*
X10886230Y-4877222D01*
X10886230Y-4877222D02*
X10895753Y-4858174D01*
X10895753Y-4858174D02*
X10914801Y-4848650D01*
X10914801Y-4848650D02*
X10952896Y-4848650D01*
X10952896Y-4848650D02*
X10971944Y-4858174D01*
X10971944Y-4858174D02*
X10981468Y-4877222D01*
X10981468Y-4877222D02*
X10981468Y-4896270D01*
X10981468Y-4896270D02*
X10886230Y-4915317D01*
X11057658Y-4972460D02*
X11076706Y-4981984D01*
X11076706Y-4981984D02*
X11114801Y-4981984D01*
X11114801Y-4981984D02*
X11133849Y-4972460D01*
X11133849Y-4972460D02*
X11143373Y-4953412D01*
X11143373Y-4953412D02*
X11143373Y-4943889D01*
X11143373Y-4943889D02*
X11133849Y-4924841D01*
X11133849Y-4924841D02*
X11114801Y-4915317D01*
X11114801Y-4915317D02*
X11086230Y-4915317D01*
X11086230Y-4915317D02*
X11067182Y-4905793D01*
X11067182Y-4905793D02*
X11057658Y-4886746D01*
X11057658Y-4886746D02*
X11057658Y-4877222D01*
X11057658Y-4877222D02*
X11067182Y-4858174D01*
X11067182Y-4858174D02*
X11086230Y-4848650D01*
X11086230Y-4848650D02*
X11114801Y-4848650D01*
X11114801Y-4848650D02*
X11133849Y-4858174D01*
X11210039Y-5058174D02*
X11219563Y-5048650D01*
X11219563Y-5048650D02*
X11238611Y-5020079D01*
X11238611Y-5020079D02*
X11248134Y-5001031D01*
X11248134Y-5001031D02*
X11257658Y-4972460D01*
X11257658Y-4972460D02*
X11267182Y-4924841D01*
X11267182Y-4924841D02*
X11267182Y-4886746D01*
X11267182Y-4886746D02*
X11257658Y-4839127D01*
X11257658Y-4839127D02*
X11248134Y-4810555D01*
X11248134Y-4810555D02*
X11238611Y-4791508D01*
X11238611Y-4791508D02*
X11219563Y-4762936D01*
X11219563Y-4762936D02*
X11210039Y-4753412D01*
D12*
X6244500Y-5154500D02*
G75*
G02*
X6219500Y-5154500I-12500J0D01*
G01*
X6219500Y-5154500D02*
G75*
G02*
X6244500Y-5154500I12500J0D01*
G01*
D11*
X6543372Y-5045984D02*
X6562420Y-5045984D01*
X6562420Y-5045984D02*
X6581467Y-5055508D01*
X6581467Y-5055508D02*
X6590991Y-5065031D01*
X6590991Y-5065031D02*
X6600515Y-5084079D01*
X6600515Y-5084079D02*
X6610039Y-5122174D01*
X6610039Y-5122174D02*
X6610039Y-5169793D01*
X6610039Y-5169793D02*
X6600515Y-5207889D01*
X6600515Y-5207889D02*
X6590991Y-5226936D01*
X6590991Y-5226936D02*
X6581467Y-5236460D01*
X6581467Y-5236460D02*
X6562420Y-5245984D01*
X6562420Y-5245984D02*
X6543372Y-5245984D01*
X6543372Y-5245984D02*
X6524324Y-5236460D01*
X6524324Y-5236460D02*
X6514801Y-5226936D01*
X6514801Y-5226936D02*
X6505277Y-5207889D01*
X6505277Y-5207889D02*
X6495753Y-5169793D01*
X6495753Y-5169793D02*
X6495753Y-5122174D01*
X6495753Y-5122174D02*
X6505277Y-5084079D01*
X6505277Y-5084079D02*
X6514801Y-5065031D01*
X6514801Y-5065031D02*
X6524324Y-5055508D01*
X6524324Y-5055508D02*
X6543372Y-5045984D01*
X6695753Y-5226936D02*
X6705277Y-5236460D01*
X6705277Y-5236460D02*
X6695753Y-5245984D01*
X6695753Y-5245984D02*
X6686229Y-5236460D01*
X6686229Y-5236460D02*
X6695753Y-5226936D01*
X6695753Y-5226936D02*
X6695753Y-5245984D01*
X6781467Y-5065031D02*
X6790991Y-5055508D01*
X6790991Y-5055508D02*
X6810039Y-5045984D01*
X6810039Y-5045984D02*
X6857658Y-5045984D01*
X6857658Y-5045984D02*
X6876705Y-5055508D01*
X6876705Y-5055508D02*
X6886229Y-5065031D01*
X6886229Y-5065031D02*
X6895753Y-5084079D01*
X6895753Y-5084079D02*
X6895753Y-5103127D01*
X6895753Y-5103127D02*
X6886229Y-5131698D01*
X6886229Y-5131698D02*
X6771943Y-5245984D01*
X6771943Y-5245984D02*
X6895753Y-5245984D01*
X7076705Y-5045984D02*
X6981467Y-5045984D01*
X6981467Y-5045984D02*
X6971943Y-5141222D01*
X6971943Y-5141222D02*
X6981467Y-5131698D01*
X6981467Y-5131698D02*
X7000515Y-5122174D01*
X7000515Y-5122174D02*
X7048134Y-5122174D01*
X7048134Y-5122174D02*
X7067182Y-5131698D01*
X7067182Y-5131698D02*
X7076705Y-5141222D01*
X7076705Y-5141222D02*
X7086229Y-5160270D01*
X7086229Y-5160270D02*
X7086229Y-5207889D01*
X7086229Y-5207889D02*
X7076705Y-5226936D01*
X7076705Y-5226936D02*
X7067182Y-5236460D01*
X7067182Y-5236460D02*
X7048134Y-5245984D01*
X7048134Y-5245984D02*
X7000515Y-5245984D01*
X7000515Y-5245984D02*
X6981467Y-5236460D01*
X6981467Y-5236460D02*
X6971943Y-5226936D01*
X7210039Y-5045984D02*
X7229086Y-5045984D01*
X7229086Y-5045984D02*
X7248134Y-5055508D01*
X7248134Y-5055508D02*
X7257658Y-5065031D01*
X7257658Y-5065031D02*
X7267182Y-5084079D01*
X7267182Y-5084079D02*
X7276705Y-5122174D01*
X7276705Y-5122174D02*
X7276705Y-5169793D01*
X7276705Y-5169793D02*
X7267182Y-5207889D01*
X7267182Y-5207889D02*
X7257658Y-5226936D01*
X7257658Y-5226936D02*
X7248134Y-5236460D01*
X7248134Y-5236460D02*
X7229086Y-5245984D01*
X7229086Y-5245984D02*
X7210039Y-5245984D01*
X7210039Y-5245984D02*
X7190991Y-5236460D01*
X7190991Y-5236460D02*
X7181467Y-5226936D01*
X7181467Y-5226936D02*
X7171943Y-5207889D01*
X7171943Y-5207889D02*
X7162420Y-5169793D01*
X7162420Y-5169793D02*
X7162420Y-5122174D01*
X7162420Y-5122174D02*
X7171943Y-5084079D01*
X7171943Y-5084079D02*
X7181467Y-5065031D01*
X7181467Y-5065031D02*
X7190991Y-5055508D01*
X7190991Y-5055508D02*
X7210039Y-5045984D01*
X7362420Y-5245984D02*
X7362420Y-5112650D01*
X7362420Y-5131698D02*
X7371943Y-5122174D01*
X7371943Y-5122174D02*
X7390991Y-5112650D01*
X7390991Y-5112650D02*
X7419563Y-5112650D01*
X7419563Y-5112650D02*
X7438610Y-5122174D01*
X7438610Y-5122174D02*
X7448134Y-5141222D01*
X7448134Y-5141222D02*
X7448134Y-5245984D01*
X7448134Y-5141222D02*
X7457658Y-5122174D01*
X7457658Y-5122174D02*
X7476705Y-5112650D01*
X7476705Y-5112650D02*
X7505277Y-5112650D01*
X7505277Y-5112650D02*
X7524324Y-5122174D01*
X7524324Y-5122174D02*
X7533848Y-5141222D01*
X7533848Y-5141222D02*
X7533848Y-5245984D01*
X7629086Y-5245984D02*
X7629086Y-5112650D01*
X7629086Y-5131698D02*
X7638610Y-5122174D01*
X7638610Y-5122174D02*
X7657658Y-5112650D01*
X7657658Y-5112650D02*
X7686229Y-5112650D01*
X7686229Y-5112650D02*
X7705277Y-5122174D01*
X7705277Y-5122174D02*
X7714801Y-5141222D01*
X7714801Y-5141222D02*
X7714801Y-5245984D01*
X7714801Y-5141222D02*
X7724324Y-5122174D01*
X7724324Y-5122174D02*
X7743372Y-5112650D01*
X7743372Y-5112650D02*
X7771943Y-5112650D01*
X7771943Y-5112650D02*
X7790991Y-5122174D01*
X7790991Y-5122174D02*
X7800515Y-5141222D01*
X7800515Y-5141222D02*
X7800515Y-5245984D01*
X8190991Y-5036460D02*
X8019563Y-5293603D01*
X8448134Y-5045984D02*
X8467182Y-5045984D01*
X8467182Y-5045984D02*
X8486229Y-5055508D01*
X8486229Y-5055508D02*
X8495753Y-5065031D01*
X8495753Y-5065031D02*
X8505277Y-5084079D01*
X8505277Y-5084079D02*
X8514801Y-5122174D01*
X8514801Y-5122174D02*
X8514801Y-5169793D01*
X8514801Y-5169793D02*
X8505277Y-5207889D01*
X8505277Y-5207889D02*
X8495753Y-5226936D01*
X8495753Y-5226936D02*
X8486229Y-5236460D01*
X8486229Y-5236460D02*
X8467182Y-5245984D01*
X8467182Y-5245984D02*
X8448134Y-5245984D01*
X8448134Y-5245984D02*
X8429087Y-5236460D01*
X8429087Y-5236460D02*
X8419563Y-5226936D01*
X8419563Y-5226936D02*
X8410039Y-5207889D01*
X8410039Y-5207889D02*
X8400515Y-5169793D01*
X8400515Y-5169793D02*
X8400515Y-5122174D01*
X8400515Y-5122174D02*
X8410039Y-5084079D01*
X8410039Y-5084079D02*
X8419563Y-5065031D01*
X8419563Y-5065031D02*
X8429087Y-5055508D01*
X8429087Y-5055508D02*
X8448134Y-5045984D01*
X8600515Y-5226936D02*
X8610039Y-5236460D01*
X8610039Y-5236460D02*
X8600515Y-5245984D01*
X8600515Y-5245984D02*
X8590991Y-5236460D01*
X8590991Y-5236460D02*
X8600515Y-5226936D01*
X8600515Y-5226936D02*
X8600515Y-5245984D01*
X8733848Y-5045984D02*
X8752896Y-5045984D01*
X8752896Y-5045984D02*
X8771944Y-5055508D01*
X8771944Y-5055508D02*
X8781468Y-5065031D01*
X8781468Y-5065031D02*
X8790991Y-5084079D01*
X8790991Y-5084079D02*
X8800515Y-5122174D01*
X8800515Y-5122174D02*
X8800515Y-5169793D01*
X8800515Y-5169793D02*
X8790991Y-5207889D01*
X8790991Y-5207889D02*
X8781468Y-5226936D01*
X8781468Y-5226936D02*
X8771944Y-5236460D01*
X8771944Y-5236460D02*
X8752896Y-5245984D01*
X8752896Y-5245984D02*
X8733848Y-5245984D01*
X8733848Y-5245984D02*
X8714801Y-5236460D01*
X8714801Y-5236460D02*
X8705277Y-5226936D01*
X8705277Y-5226936D02*
X8695753Y-5207889D01*
X8695753Y-5207889D02*
X8686229Y-5169793D01*
X8686229Y-5169793D02*
X8686229Y-5122174D01*
X8686229Y-5122174D02*
X8695753Y-5084079D01*
X8695753Y-5084079D02*
X8705277Y-5065031D01*
X8705277Y-5065031D02*
X8714801Y-5055508D01*
X8714801Y-5055508D02*
X8733848Y-5045984D01*
X8924325Y-5045984D02*
X8943372Y-5045984D01*
X8943372Y-5045984D02*
X8962420Y-5055508D01*
X8962420Y-5055508D02*
X8971944Y-5065031D01*
X8971944Y-5065031D02*
X8981468Y-5084079D01*
X8981468Y-5084079D02*
X8990991Y-5122174D01*
X8990991Y-5122174D02*
X8990991Y-5169793D01*
X8990991Y-5169793D02*
X8981468Y-5207889D01*
X8981468Y-5207889D02*
X8971944Y-5226936D01*
X8971944Y-5226936D02*
X8962420Y-5236460D01*
X8962420Y-5236460D02*
X8943372Y-5245984D01*
X8943372Y-5245984D02*
X8924325Y-5245984D01*
X8924325Y-5245984D02*
X8905277Y-5236460D01*
X8905277Y-5236460D02*
X8895753Y-5226936D01*
X8895753Y-5226936D02*
X8886229Y-5207889D01*
X8886229Y-5207889D02*
X8876706Y-5169793D01*
X8876706Y-5169793D02*
X8876706Y-5122174D01*
X8876706Y-5122174D02*
X8886229Y-5084079D01*
X8886229Y-5084079D02*
X8895753Y-5065031D01*
X8895753Y-5065031D02*
X8905277Y-5055508D01*
X8905277Y-5055508D02*
X8924325Y-5045984D01*
X9086229Y-5245984D02*
X9124325Y-5245984D01*
X9124325Y-5245984D02*
X9143372Y-5236460D01*
X9143372Y-5236460D02*
X9152896Y-5226936D01*
X9152896Y-5226936D02*
X9171944Y-5198365D01*
X9171944Y-5198365D02*
X9181468Y-5160270D01*
X9181468Y-5160270D02*
X9181468Y-5084079D01*
X9181468Y-5084079D02*
X9171944Y-5065031D01*
X9171944Y-5065031D02*
X9162420Y-5055508D01*
X9162420Y-5055508D02*
X9143372Y-5045984D01*
X9143372Y-5045984D02*
X9105277Y-5045984D01*
X9105277Y-5045984D02*
X9086229Y-5055508D01*
X9086229Y-5055508D02*
X9076706Y-5065031D01*
X9076706Y-5065031D02*
X9067182Y-5084079D01*
X9067182Y-5084079D02*
X9067182Y-5131698D01*
X9067182Y-5131698D02*
X9076706Y-5150746D01*
X9076706Y-5150746D02*
X9086229Y-5160270D01*
X9086229Y-5160270D02*
X9105277Y-5169793D01*
X9105277Y-5169793D02*
X9143372Y-5169793D01*
X9143372Y-5169793D02*
X9162420Y-5160270D01*
X9162420Y-5160270D02*
X9171944Y-5150746D01*
X9171944Y-5150746D02*
X9181468Y-5131698D01*
X9295753Y-5131698D02*
X9276706Y-5122174D01*
X9276706Y-5122174D02*
X9267182Y-5112650D01*
X9267182Y-5112650D02*
X9257658Y-5093603D01*
X9257658Y-5093603D02*
X9257658Y-5084079D01*
X9257658Y-5084079D02*
X9267182Y-5065031D01*
X9267182Y-5065031D02*
X9276706Y-5055508D01*
X9276706Y-5055508D02*
X9295753Y-5045984D01*
X9295753Y-5045984D02*
X9333849Y-5045984D01*
X9333849Y-5045984D02*
X9352896Y-5055508D01*
X9352896Y-5055508D02*
X9362420Y-5065031D01*
X9362420Y-5065031D02*
X9371944Y-5084079D01*
X9371944Y-5084079D02*
X9371944Y-5093603D01*
X9371944Y-5093603D02*
X9362420Y-5112650D01*
X9362420Y-5112650D02*
X9352896Y-5122174D01*
X9352896Y-5122174D02*
X9333849Y-5131698D01*
X9333849Y-5131698D02*
X9295753Y-5131698D01*
X9295753Y-5131698D02*
X9276706Y-5141222D01*
X9276706Y-5141222D02*
X9267182Y-5150746D01*
X9267182Y-5150746D02*
X9257658Y-5169793D01*
X9257658Y-5169793D02*
X9257658Y-5207889D01*
X9257658Y-5207889D02*
X9267182Y-5226936D01*
X9267182Y-5226936D02*
X9276706Y-5236460D01*
X9276706Y-5236460D02*
X9295753Y-5245984D01*
X9295753Y-5245984D02*
X9333849Y-5245984D01*
X9333849Y-5245984D02*
X9352896Y-5236460D01*
X9352896Y-5236460D02*
X9362420Y-5226936D01*
X9362420Y-5226936D02*
X9371944Y-5207889D01*
X9371944Y-5207889D02*
X9371944Y-5169793D01*
X9371944Y-5169793D02*
X9362420Y-5150746D01*
X9362420Y-5150746D02*
X9352896Y-5141222D01*
X9352896Y-5141222D02*
X9333849Y-5131698D01*
X9448134Y-5045984D02*
X9448134Y-5084079D01*
X9524325Y-5045984D02*
X9524325Y-5084079D01*
X9819563Y-5322174D02*
X9810039Y-5312650D01*
X9810039Y-5312650D02*
X9790991Y-5284079D01*
X9790991Y-5284079D02*
X9781468Y-5265031D01*
X9781468Y-5265031D02*
X9771944Y-5236460D01*
X9771944Y-5236460D02*
X9762420Y-5188841D01*
X9762420Y-5188841D02*
X9762420Y-5150746D01*
X9762420Y-5150746D02*
X9771944Y-5103127D01*
X9771944Y-5103127D02*
X9781468Y-5074555D01*
X9781468Y-5074555D02*
X9790991Y-5055508D01*
X9790991Y-5055508D02*
X9810039Y-5026936D01*
X9810039Y-5026936D02*
X9819563Y-5017412D01*
X9876706Y-5045984D02*
X10000515Y-5045984D01*
X10000515Y-5045984D02*
X9933849Y-5122174D01*
X9933849Y-5122174D02*
X9962420Y-5122174D01*
X9962420Y-5122174D02*
X9981468Y-5131698D01*
X9981468Y-5131698D02*
X9990991Y-5141222D01*
X9990991Y-5141222D02*
X10000515Y-5160270D01*
X10000515Y-5160270D02*
X10000515Y-5207889D01*
X10000515Y-5207889D02*
X9990991Y-5226936D01*
X9990991Y-5226936D02*
X9981468Y-5236460D01*
X9981468Y-5236460D02*
X9962420Y-5245984D01*
X9962420Y-5245984D02*
X9905277Y-5245984D01*
X9905277Y-5245984D02*
X9886230Y-5236460D01*
X9886230Y-5236460D02*
X9876706Y-5226936D01*
X10076706Y-5065031D02*
X10086230Y-5055508D01*
X10086230Y-5055508D02*
X10105277Y-5045984D01*
X10105277Y-5045984D02*
X10152896Y-5045984D01*
X10152896Y-5045984D02*
X10171944Y-5055508D01*
X10171944Y-5055508D02*
X10181468Y-5065031D01*
X10181468Y-5065031D02*
X10190991Y-5084079D01*
X10190991Y-5084079D02*
X10190991Y-5103127D01*
X10190991Y-5103127D02*
X10181468Y-5131698D01*
X10181468Y-5131698D02*
X10067182Y-5245984D01*
X10067182Y-5245984D02*
X10190991Y-5245984D01*
X10429087Y-5245984D02*
X10429087Y-5045984D01*
X10514801Y-5245984D02*
X10514801Y-5141222D01*
X10514801Y-5141222D02*
X10505277Y-5122174D01*
X10505277Y-5122174D02*
X10486230Y-5112650D01*
X10486230Y-5112650D02*
X10457658Y-5112650D01*
X10457658Y-5112650D02*
X10438611Y-5122174D01*
X10438611Y-5122174D02*
X10429087Y-5131698D01*
X10638611Y-5245984D02*
X10619563Y-5236460D01*
X10619563Y-5236460D02*
X10610039Y-5226936D01*
X10610039Y-5226936D02*
X10600515Y-5207889D01*
X10600515Y-5207889D02*
X10600515Y-5150746D01*
X10600515Y-5150746D02*
X10610039Y-5131698D01*
X10610039Y-5131698D02*
X10619563Y-5122174D01*
X10619563Y-5122174D02*
X10638611Y-5112650D01*
X10638611Y-5112650D02*
X10667182Y-5112650D01*
X10667182Y-5112650D02*
X10686230Y-5122174D01*
X10686230Y-5122174D02*
X10695753Y-5131698D01*
X10695753Y-5131698D02*
X10705277Y-5150746D01*
X10705277Y-5150746D02*
X10705277Y-5207889D01*
X10705277Y-5207889D02*
X10695753Y-5226936D01*
X10695753Y-5226936D02*
X10686230Y-5236460D01*
X10686230Y-5236460D02*
X10667182Y-5245984D01*
X10667182Y-5245984D02*
X10638611Y-5245984D01*
X10819563Y-5245984D02*
X10800515Y-5236460D01*
X10800515Y-5236460D02*
X10790992Y-5217412D01*
X10790992Y-5217412D02*
X10790992Y-5045984D01*
X10971944Y-5236460D02*
X10952896Y-5245984D01*
X10952896Y-5245984D02*
X10914801Y-5245984D01*
X10914801Y-5245984D02*
X10895753Y-5236460D01*
X10895753Y-5236460D02*
X10886230Y-5217412D01*
X10886230Y-5217412D02*
X10886230Y-5141222D01*
X10886230Y-5141222D02*
X10895753Y-5122174D01*
X10895753Y-5122174D02*
X10914801Y-5112650D01*
X10914801Y-5112650D02*
X10952896Y-5112650D01*
X10952896Y-5112650D02*
X10971944Y-5122174D01*
X10971944Y-5122174D02*
X10981468Y-5141222D01*
X10981468Y-5141222D02*
X10981468Y-5160270D01*
X10981468Y-5160270D02*
X10886230Y-5179317D01*
X11057658Y-5236460D02*
X11076706Y-5245984D01*
X11076706Y-5245984D02*
X11114801Y-5245984D01*
X11114801Y-5245984D02*
X11133849Y-5236460D01*
X11133849Y-5236460D02*
X11143373Y-5217412D01*
X11143373Y-5217412D02*
X11143373Y-5207889D01*
X11143373Y-5207889D02*
X11133849Y-5188841D01*
X11133849Y-5188841D02*
X11114801Y-5179317D01*
X11114801Y-5179317D02*
X11086230Y-5179317D01*
X11086230Y-5179317D02*
X11067182Y-5169793D01*
X11067182Y-5169793D02*
X11057658Y-5150746D01*
X11057658Y-5150746D02*
X11057658Y-5141222D01*
X11057658Y-5141222D02*
X11067182Y-5122174D01*
X11067182Y-5122174D02*
X11086230Y-5112650D01*
X11086230Y-5112650D02*
X11114801Y-5112650D01*
X11114801Y-5112650D02*
X11133849Y-5122174D01*
X11210039Y-5322174D02*
X11219563Y-5312650D01*
X11219563Y-5312650D02*
X11238611Y-5284079D01*
X11238611Y-5284079D02*
X11248134Y-5265031D01*
X11248134Y-5265031D02*
X11257658Y-5236460D01*
X11257658Y-5236460D02*
X11267182Y-5188841D01*
X11267182Y-5188841D02*
X11267182Y-5150746D01*
X11267182Y-5150746D02*
X11257658Y-5103127D01*
X11257658Y-5103127D02*
X11248134Y-5074555D01*
X11248134Y-5074555D02*
X11238611Y-5055508D01*
X11238611Y-5055508D02*
X11219563Y-5026936D01*
X11219563Y-5026936D02*
X11210039Y-5017412D01*
D12*
X6204500Y-5378500D02*
X6204500Y-5458500D01*
X6164500Y-5418500D02*
X6244500Y-5418500D01*
D11*
X6543372Y-5309984D02*
X6562420Y-5309984D01*
X6562420Y-5309984D02*
X6581467Y-5319508D01*
X6581467Y-5319508D02*
X6590991Y-5329031D01*
X6590991Y-5329031D02*
X6600515Y-5348079D01*
X6600515Y-5348079D02*
X6610039Y-5386174D01*
X6610039Y-5386174D02*
X6610039Y-5433793D01*
X6610039Y-5433793D02*
X6600515Y-5471889D01*
X6600515Y-5471889D02*
X6590991Y-5490936D01*
X6590991Y-5490936D02*
X6581467Y-5500460D01*
X6581467Y-5500460D02*
X6562420Y-5509984D01*
X6562420Y-5509984D02*
X6543372Y-5509984D01*
X6543372Y-5509984D02*
X6524324Y-5500460D01*
X6524324Y-5500460D02*
X6514801Y-5490936D01*
X6514801Y-5490936D02*
X6505277Y-5471889D01*
X6505277Y-5471889D02*
X6495753Y-5433793D01*
X6495753Y-5433793D02*
X6495753Y-5386174D01*
X6495753Y-5386174D02*
X6505277Y-5348079D01*
X6505277Y-5348079D02*
X6514801Y-5329031D01*
X6514801Y-5329031D02*
X6524324Y-5319508D01*
X6524324Y-5319508D02*
X6543372Y-5309984D01*
X6695753Y-5490936D02*
X6705277Y-5500460D01*
X6705277Y-5500460D02*
X6695753Y-5509984D01*
X6695753Y-5509984D02*
X6686229Y-5500460D01*
X6686229Y-5500460D02*
X6695753Y-5490936D01*
X6695753Y-5490936D02*
X6695753Y-5509984D01*
X6819562Y-5395698D02*
X6800515Y-5386174D01*
X6800515Y-5386174D02*
X6790991Y-5376650D01*
X6790991Y-5376650D02*
X6781467Y-5357603D01*
X6781467Y-5357603D02*
X6781467Y-5348079D01*
X6781467Y-5348079D02*
X6790991Y-5329031D01*
X6790991Y-5329031D02*
X6800515Y-5319508D01*
X6800515Y-5319508D02*
X6819562Y-5309984D01*
X6819562Y-5309984D02*
X6857658Y-5309984D01*
X6857658Y-5309984D02*
X6876705Y-5319508D01*
X6876705Y-5319508D02*
X6886229Y-5329031D01*
X6886229Y-5329031D02*
X6895753Y-5348079D01*
X6895753Y-5348079D02*
X6895753Y-5357603D01*
X6895753Y-5357603D02*
X6886229Y-5376650D01*
X6886229Y-5376650D02*
X6876705Y-5386174D01*
X6876705Y-5386174D02*
X6857658Y-5395698D01*
X6857658Y-5395698D02*
X6819562Y-5395698D01*
X6819562Y-5395698D02*
X6800515Y-5405222D01*
X6800515Y-5405222D02*
X6790991Y-5414746D01*
X6790991Y-5414746D02*
X6781467Y-5433793D01*
X6781467Y-5433793D02*
X6781467Y-5471889D01*
X6781467Y-5471889D02*
X6790991Y-5490936D01*
X6790991Y-5490936D02*
X6800515Y-5500460D01*
X6800515Y-5500460D02*
X6819562Y-5509984D01*
X6819562Y-5509984D02*
X6857658Y-5509984D01*
X6857658Y-5509984D02*
X6876705Y-5500460D01*
X6876705Y-5500460D02*
X6886229Y-5490936D01*
X6886229Y-5490936D02*
X6895753Y-5471889D01*
X6895753Y-5471889D02*
X6895753Y-5433793D01*
X6895753Y-5433793D02*
X6886229Y-5414746D01*
X6886229Y-5414746D02*
X6876705Y-5405222D01*
X6876705Y-5405222D02*
X6857658Y-5395698D01*
X7019562Y-5309984D02*
X7038610Y-5309984D01*
X7038610Y-5309984D02*
X7057658Y-5319508D01*
X7057658Y-5319508D02*
X7067182Y-5329031D01*
X7067182Y-5329031D02*
X7076705Y-5348079D01*
X7076705Y-5348079D02*
X7086229Y-5386174D01*
X7086229Y-5386174D02*
X7086229Y-5433793D01*
X7086229Y-5433793D02*
X7076705Y-5471889D01*
X7076705Y-5471889D02*
X7067182Y-5490936D01*
X7067182Y-5490936D02*
X7057658Y-5500460D01*
X7057658Y-5500460D02*
X7038610Y-5509984D01*
X7038610Y-5509984D02*
X7019562Y-5509984D01*
X7019562Y-5509984D02*
X7000515Y-5500460D01*
X7000515Y-5500460D02*
X6990991Y-5490936D01*
X6990991Y-5490936D02*
X6981467Y-5471889D01*
X6981467Y-5471889D02*
X6971943Y-5433793D01*
X6971943Y-5433793D02*
X6971943Y-5386174D01*
X6971943Y-5386174D02*
X6981467Y-5348079D01*
X6981467Y-5348079D02*
X6990991Y-5329031D01*
X6990991Y-5329031D02*
X7000515Y-5319508D01*
X7000515Y-5319508D02*
X7019562Y-5309984D01*
X7210039Y-5309984D02*
X7229086Y-5309984D01*
X7229086Y-5309984D02*
X7248134Y-5319508D01*
X7248134Y-5319508D02*
X7257658Y-5329031D01*
X7257658Y-5329031D02*
X7267182Y-5348079D01*
X7267182Y-5348079D02*
X7276705Y-5386174D01*
X7276705Y-5386174D02*
X7276705Y-5433793D01*
X7276705Y-5433793D02*
X7267182Y-5471889D01*
X7267182Y-5471889D02*
X7257658Y-5490936D01*
X7257658Y-5490936D02*
X7248134Y-5500460D01*
X7248134Y-5500460D02*
X7229086Y-5509984D01*
X7229086Y-5509984D02*
X7210039Y-5509984D01*
X7210039Y-5509984D02*
X7190991Y-5500460D01*
X7190991Y-5500460D02*
X7181467Y-5490936D01*
X7181467Y-5490936D02*
X7171943Y-5471889D01*
X7171943Y-5471889D02*
X7162420Y-5433793D01*
X7162420Y-5433793D02*
X7162420Y-5386174D01*
X7162420Y-5386174D02*
X7171943Y-5348079D01*
X7171943Y-5348079D02*
X7181467Y-5329031D01*
X7181467Y-5329031D02*
X7190991Y-5319508D01*
X7190991Y-5319508D02*
X7210039Y-5309984D01*
X7362420Y-5509984D02*
X7362420Y-5376650D01*
X7362420Y-5395698D02*
X7371943Y-5386174D01*
X7371943Y-5386174D02*
X7390991Y-5376650D01*
X7390991Y-5376650D02*
X7419563Y-5376650D01*
X7419563Y-5376650D02*
X7438610Y-5386174D01*
X7438610Y-5386174D02*
X7448134Y-5405222D01*
X7448134Y-5405222D02*
X7448134Y-5509984D01*
X7448134Y-5405222D02*
X7457658Y-5386174D01*
X7457658Y-5386174D02*
X7476705Y-5376650D01*
X7476705Y-5376650D02*
X7505277Y-5376650D01*
X7505277Y-5376650D02*
X7524324Y-5386174D01*
X7524324Y-5386174D02*
X7533848Y-5405222D01*
X7533848Y-5405222D02*
X7533848Y-5509984D01*
X7629086Y-5509984D02*
X7629086Y-5376650D01*
X7629086Y-5395698D02*
X7638610Y-5386174D01*
X7638610Y-5386174D02*
X7657658Y-5376650D01*
X7657658Y-5376650D02*
X7686229Y-5376650D01*
X7686229Y-5376650D02*
X7705277Y-5386174D01*
X7705277Y-5386174D02*
X7714801Y-5405222D01*
X7714801Y-5405222D02*
X7714801Y-5509984D01*
X7714801Y-5405222D02*
X7724324Y-5386174D01*
X7724324Y-5386174D02*
X7743372Y-5376650D01*
X7743372Y-5376650D02*
X7771943Y-5376650D01*
X7771943Y-5376650D02*
X7790991Y-5386174D01*
X7790991Y-5386174D02*
X7800515Y-5405222D01*
X7800515Y-5405222D02*
X7800515Y-5509984D01*
X8190991Y-5300460D02*
X8019563Y-5557603D01*
X8448134Y-5309984D02*
X8467182Y-5309984D01*
X8467182Y-5309984D02*
X8486229Y-5319508D01*
X8486229Y-5319508D02*
X8495753Y-5329031D01*
X8495753Y-5329031D02*
X8505277Y-5348079D01*
X8505277Y-5348079D02*
X8514801Y-5386174D01*
X8514801Y-5386174D02*
X8514801Y-5433793D01*
X8514801Y-5433793D02*
X8505277Y-5471889D01*
X8505277Y-5471889D02*
X8495753Y-5490936D01*
X8495753Y-5490936D02*
X8486229Y-5500460D01*
X8486229Y-5500460D02*
X8467182Y-5509984D01*
X8467182Y-5509984D02*
X8448134Y-5509984D01*
X8448134Y-5509984D02*
X8429087Y-5500460D01*
X8429087Y-5500460D02*
X8419563Y-5490936D01*
X8419563Y-5490936D02*
X8410039Y-5471889D01*
X8410039Y-5471889D02*
X8400515Y-5433793D01*
X8400515Y-5433793D02*
X8400515Y-5386174D01*
X8400515Y-5386174D02*
X8410039Y-5348079D01*
X8410039Y-5348079D02*
X8419563Y-5329031D01*
X8419563Y-5329031D02*
X8429087Y-5319508D01*
X8429087Y-5319508D02*
X8448134Y-5309984D01*
X8600515Y-5490936D02*
X8610039Y-5500460D01*
X8610039Y-5500460D02*
X8600515Y-5509984D01*
X8600515Y-5509984D02*
X8590991Y-5500460D01*
X8590991Y-5500460D02*
X8600515Y-5490936D01*
X8600515Y-5490936D02*
X8600515Y-5509984D01*
X8733848Y-5309984D02*
X8752896Y-5309984D01*
X8752896Y-5309984D02*
X8771944Y-5319508D01*
X8771944Y-5319508D02*
X8781468Y-5329031D01*
X8781468Y-5329031D02*
X8790991Y-5348079D01*
X8790991Y-5348079D02*
X8800515Y-5386174D01*
X8800515Y-5386174D02*
X8800515Y-5433793D01*
X8800515Y-5433793D02*
X8790991Y-5471889D01*
X8790991Y-5471889D02*
X8781468Y-5490936D01*
X8781468Y-5490936D02*
X8771944Y-5500460D01*
X8771944Y-5500460D02*
X8752896Y-5509984D01*
X8752896Y-5509984D02*
X8733848Y-5509984D01*
X8733848Y-5509984D02*
X8714801Y-5500460D01*
X8714801Y-5500460D02*
X8705277Y-5490936D01*
X8705277Y-5490936D02*
X8695753Y-5471889D01*
X8695753Y-5471889D02*
X8686229Y-5433793D01*
X8686229Y-5433793D02*
X8686229Y-5386174D01*
X8686229Y-5386174D02*
X8695753Y-5348079D01*
X8695753Y-5348079D02*
X8705277Y-5329031D01*
X8705277Y-5329031D02*
X8714801Y-5319508D01*
X8714801Y-5319508D02*
X8733848Y-5309984D01*
X8867182Y-5309984D02*
X8990991Y-5309984D01*
X8990991Y-5309984D02*
X8924325Y-5386174D01*
X8924325Y-5386174D02*
X8952896Y-5386174D01*
X8952896Y-5386174D02*
X8971944Y-5395698D01*
X8971944Y-5395698D02*
X8981468Y-5405222D01*
X8981468Y-5405222D02*
X8990991Y-5424270D01*
X8990991Y-5424270D02*
X8990991Y-5471889D01*
X8990991Y-5471889D02*
X8981468Y-5490936D01*
X8981468Y-5490936D02*
X8971944Y-5500460D01*
X8971944Y-5500460D02*
X8952896Y-5509984D01*
X8952896Y-5509984D02*
X8895753Y-5509984D01*
X8895753Y-5509984D02*
X8876706Y-5500460D01*
X8876706Y-5500460D02*
X8867182Y-5490936D01*
X9181468Y-5509984D02*
X9067182Y-5509984D01*
X9124325Y-5509984D02*
X9124325Y-5309984D01*
X9124325Y-5309984D02*
X9105277Y-5338555D01*
X9105277Y-5338555D02*
X9086229Y-5357603D01*
X9086229Y-5357603D02*
X9067182Y-5367127D01*
X9362420Y-5309984D02*
X9267182Y-5309984D01*
X9267182Y-5309984D02*
X9257658Y-5405222D01*
X9257658Y-5405222D02*
X9267182Y-5395698D01*
X9267182Y-5395698D02*
X9286229Y-5386174D01*
X9286229Y-5386174D02*
X9333849Y-5386174D01*
X9333849Y-5386174D02*
X9352896Y-5395698D01*
X9352896Y-5395698D02*
X9362420Y-5405222D01*
X9362420Y-5405222D02*
X9371944Y-5424270D01*
X9371944Y-5424270D02*
X9371944Y-5471889D01*
X9371944Y-5471889D02*
X9362420Y-5490936D01*
X9362420Y-5490936D02*
X9352896Y-5500460D01*
X9352896Y-5500460D02*
X9333849Y-5509984D01*
X9333849Y-5509984D02*
X9286229Y-5509984D01*
X9286229Y-5509984D02*
X9267182Y-5500460D01*
X9267182Y-5500460D02*
X9257658Y-5490936D01*
X9448134Y-5309984D02*
X9448134Y-5348079D01*
X9524325Y-5309984D02*
X9524325Y-5348079D01*
X9819563Y-5586174D02*
X9810039Y-5576650D01*
X9810039Y-5576650D02*
X9790991Y-5548079D01*
X9790991Y-5548079D02*
X9781468Y-5529031D01*
X9781468Y-5529031D02*
X9771944Y-5500460D01*
X9771944Y-5500460D02*
X9762420Y-5452841D01*
X9762420Y-5452841D02*
X9762420Y-5414746D01*
X9762420Y-5414746D02*
X9771944Y-5367127D01*
X9771944Y-5367127D02*
X9781468Y-5338555D01*
X9781468Y-5338555D02*
X9790991Y-5319508D01*
X9790991Y-5319508D02*
X9810039Y-5290936D01*
X9810039Y-5290936D02*
X9819563Y-5281412D01*
X9886230Y-5329031D02*
X9895753Y-5319508D01*
X9895753Y-5319508D02*
X9914801Y-5309984D01*
X9914801Y-5309984D02*
X9962420Y-5309984D01*
X9962420Y-5309984D02*
X9981468Y-5319508D01*
X9981468Y-5319508D02*
X9990991Y-5329031D01*
X9990991Y-5329031D02*
X10000515Y-5348079D01*
X10000515Y-5348079D02*
X10000515Y-5367127D01*
X10000515Y-5367127D02*
X9990991Y-5395698D01*
X9990991Y-5395698D02*
X9876706Y-5509984D01*
X9876706Y-5509984D02*
X10000515Y-5509984D01*
X10238611Y-5509984D02*
X10238611Y-5309984D01*
X10324325Y-5509984D02*
X10324325Y-5405222D01*
X10324325Y-5405222D02*
X10314801Y-5386174D01*
X10314801Y-5386174D02*
X10295753Y-5376650D01*
X10295753Y-5376650D02*
X10267182Y-5376650D01*
X10267182Y-5376650D02*
X10248134Y-5386174D01*
X10248134Y-5386174D02*
X10238611Y-5395698D01*
X10448134Y-5509984D02*
X10429087Y-5500460D01*
X10429087Y-5500460D02*
X10419563Y-5490936D01*
X10419563Y-5490936D02*
X10410039Y-5471889D01*
X10410039Y-5471889D02*
X10410039Y-5414746D01*
X10410039Y-5414746D02*
X10419563Y-5395698D01*
X10419563Y-5395698D02*
X10429087Y-5386174D01*
X10429087Y-5386174D02*
X10448134Y-5376650D01*
X10448134Y-5376650D02*
X10476706Y-5376650D01*
X10476706Y-5376650D02*
X10495753Y-5386174D01*
X10495753Y-5386174D02*
X10505277Y-5395698D01*
X10505277Y-5395698D02*
X10514801Y-5414746D01*
X10514801Y-5414746D02*
X10514801Y-5471889D01*
X10514801Y-5471889D02*
X10505277Y-5490936D01*
X10505277Y-5490936D02*
X10495753Y-5500460D01*
X10495753Y-5500460D02*
X10476706Y-5509984D01*
X10476706Y-5509984D02*
X10448134Y-5509984D01*
X10629087Y-5509984D02*
X10610039Y-5500460D01*
X10610039Y-5500460D02*
X10600515Y-5481412D01*
X10600515Y-5481412D02*
X10600515Y-5309984D01*
X10781468Y-5500460D02*
X10762420Y-5509984D01*
X10762420Y-5509984D02*
X10724325Y-5509984D01*
X10724325Y-5509984D02*
X10705277Y-5500460D01*
X10705277Y-5500460D02*
X10695753Y-5481412D01*
X10695753Y-5481412D02*
X10695753Y-5405222D01*
X10695753Y-5405222D02*
X10705277Y-5386174D01*
X10705277Y-5386174D02*
X10724325Y-5376650D01*
X10724325Y-5376650D02*
X10762420Y-5376650D01*
X10762420Y-5376650D02*
X10781468Y-5386174D01*
X10781468Y-5386174D02*
X10790992Y-5405222D01*
X10790992Y-5405222D02*
X10790992Y-5424270D01*
X10790992Y-5424270D02*
X10695753Y-5443317D01*
X10867182Y-5500460D02*
X10886230Y-5509984D01*
X10886230Y-5509984D02*
X10924325Y-5509984D01*
X10924325Y-5509984D02*
X10943373Y-5500460D01*
X10943373Y-5500460D02*
X10952896Y-5481412D01*
X10952896Y-5481412D02*
X10952896Y-5471889D01*
X10952896Y-5471889D02*
X10943373Y-5452841D01*
X10943373Y-5452841D02*
X10924325Y-5443317D01*
X10924325Y-5443317D02*
X10895753Y-5443317D01*
X10895753Y-5443317D02*
X10876706Y-5433793D01*
X10876706Y-5433793D02*
X10867182Y-5414746D01*
X10867182Y-5414746D02*
X10867182Y-5405222D01*
X10867182Y-5405222D02*
X10876706Y-5386174D01*
X10876706Y-5386174D02*
X10895753Y-5376650D01*
X10895753Y-5376650D02*
X10924325Y-5376650D01*
X10924325Y-5376650D02*
X10943373Y-5386174D01*
X11019563Y-5586174D02*
X11029087Y-5576650D01*
X11029087Y-5576650D02*
X11048134Y-5548079D01*
X11048134Y-5548079D02*
X11057658Y-5529031D01*
X11057658Y-5529031D02*
X11067182Y-5500460D01*
X11067182Y-5500460D02*
X11076706Y-5452841D01*
X11076706Y-5452841D02*
X11076706Y-5414746D01*
X11076706Y-5414746D02*
X11067182Y-5367127D01*
X11067182Y-5367127D02*
X11057658Y-5338555D01*
X11057658Y-5338555D02*
X11048134Y-5319508D01*
X11048134Y-5319508D02*
X11029087Y-5290936D01*
X11029087Y-5290936D02*
X11019563Y-5281412D01*
X6215211Y-5753211D02*
X6215211Y-5611789D01*
X6073789Y-5611789D01*
X6073789Y-5753211D01*
X6215211Y-5753211D01*
X6486229Y-5573984D02*
X6610039Y-5573984D01*
X6610039Y-5573984D02*
X6543372Y-5650174D01*
X6543372Y-5650174D02*
X6571943Y-5650174D01*
X6571943Y-5650174D02*
X6590991Y-5659698D01*
X6590991Y-5659698D02*
X6600515Y-5669222D01*
X6600515Y-5669222D02*
X6610039Y-5688269D01*
X6610039Y-5688269D02*
X6610039Y-5735888D01*
X6610039Y-5735888D02*
X6600515Y-5754936D01*
X6600515Y-5754936D02*
X6590991Y-5764460D01*
X6590991Y-5764460D02*
X6571943Y-5773984D01*
X6571943Y-5773984D02*
X6514801Y-5773984D01*
X6514801Y-5773984D02*
X6495753Y-5764460D01*
X6495753Y-5764460D02*
X6486229Y-5754936D01*
X6695753Y-5754936D02*
X6705277Y-5764460D01*
X6705277Y-5764460D02*
X6695753Y-5773984D01*
X6695753Y-5773984D02*
X6686229Y-5764460D01*
X6686229Y-5764460D02*
X6695753Y-5754936D01*
X6695753Y-5754936D02*
X6695753Y-5773984D01*
X6886229Y-5573984D02*
X6790991Y-5573984D01*
X6790991Y-5573984D02*
X6781467Y-5669222D01*
X6781467Y-5669222D02*
X6790991Y-5659698D01*
X6790991Y-5659698D02*
X6810039Y-5650174D01*
X6810039Y-5650174D02*
X6857658Y-5650174D01*
X6857658Y-5650174D02*
X6876705Y-5659698D01*
X6876705Y-5659698D02*
X6886229Y-5669222D01*
X6886229Y-5669222D02*
X6895753Y-5688269D01*
X6895753Y-5688269D02*
X6895753Y-5735888D01*
X6895753Y-5735888D02*
X6886229Y-5754936D01*
X6886229Y-5754936D02*
X6876705Y-5764460D01*
X6876705Y-5764460D02*
X6857658Y-5773984D01*
X6857658Y-5773984D02*
X6810039Y-5773984D01*
X6810039Y-5773984D02*
X6790991Y-5764460D01*
X6790991Y-5764460D02*
X6781467Y-5754936D01*
X7019562Y-5573984D02*
X7038610Y-5573984D01*
X7038610Y-5573984D02*
X7057658Y-5583508D01*
X7057658Y-5583508D02*
X7067182Y-5593031D01*
X7067182Y-5593031D02*
X7076705Y-5612079D01*
X7076705Y-5612079D02*
X7086229Y-5650174D01*
X7086229Y-5650174D02*
X7086229Y-5697793D01*
X7086229Y-5697793D02*
X7076705Y-5735888D01*
X7076705Y-5735888D02*
X7067182Y-5754936D01*
X7067182Y-5754936D02*
X7057658Y-5764460D01*
X7057658Y-5764460D02*
X7038610Y-5773984D01*
X7038610Y-5773984D02*
X7019562Y-5773984D01*
X7019562Y-5773984D02*
X7000515Y-5764460D01*
X7000515Y-5764460D02*
X6990991Y-5754936D01*
X6990991Y-5754936D02*
X6981467Y-5735888D01*
X6981467Y-5735888D02*
X6971943Y-5697793D01*
X6971943Y-5697793D02*
X6971943Y-5650174D01*
X6971943Y-5650174D02*
X6981467Y-5612079D01*
X6981467Y-5612079D02*
X6990991Y-5593031D01*
X6990991Y-5593031D02*
X7000515Y-5583508D01*
X7000515Y-5583508D02*
X7019562Y-5573984D01*
X7210039Y-5573984D02*
X7229086Y-5573984D01*
X7229086Y-5573984D02*
X7248134Y-5583508D01*
X7248134Y-5583508D02*
X7257658Y-5593031D01*
X7257658Y-5593031D02*
X7267182Y-5612079D01*
X7267182Y-5612079D02*
X7276705Y-5650174D01*
X7276705Y-5650174D02*
X7276705Y-5697793D01*
X7276705Y-5697793D02*
X7267182Y-5735888D01*
X7267182Y-5735888D02*
X7257658Y-5754936D01*
X7257658Y-5754936D02*
X7248134Y-5764460D01*
X7248134Y-5764460D02*
X7229086Y-5773984D01*
X7229086Y-5773984D02*
X7210039Y-5773984D01*
X7210039Y-5773984D02*
X7190991Y-5764460D01*
X7190991Y-5764460D02*
X7181467Y-5754936D01*
X7181467Y-5754936D02*
X7171943Y-5735888D01*
X7171943Y-5735888D02*
X7162420Y-5697793D01*
X7162420Y-5697793D02*
X7162420Y-5650174D01*
X7162420Y-5650174D02*
X7171943Y-5612079D01*
X7171943Y-5612079D02*
X7181467Y-5593031D01*
X7181467Y-5593031D02*
X7190991Y-5583508D01*
X7190991Y-5583508D02*
X7210039Y-5573984D01*
X7362420Y-5773984D02*
X7362420Y-5640650D01*
X7362420Y-5659698D02*
X7371943Y-5650174D01*
X7371943Y-5650174D02*
X7390991Y-5640650D01*
X7390991Y-5640650D02*
X7419563Y-5640650D01*
X7419563Y-5640650D02*
X7438610Y-5650174D01*
X7438610Y-5650174D02*
X7448134Y-5669222D01*
X7448134Y-5669222D02*
X7448134Y-5773984D01*
X7448134Y-5669222D02*
X7457658Y-5650174D01*
X7457658Y-5650174D02*
X7476705Y-5640650D01*
X7476705Y-5640650D02*
X7505277Y-5640650D01*
X7505277Y-5640650D02*
X7524324Y-5650174D01*
X7524324Y-5650174D02*
X7533848Y-5669222D01*
X7533848Y-5669222D02*
X7533848Y-5773984D01*
X7629086Y-5773984D02*
X7629086Y-5640650D01*
X7629086Y-5659698D02*
X7638610Y-5650174D01*
X7638610Y-5650174D02*
X7657658Y-5640650D01*
X7657658Y-5640650D02*
X7686229Y-5640650D01*
X7686229Y-5640650D02*
X7705277Y-5650174D01*
X7705277Y-5650174D02*
X7714801Y-5669222D01*
X7714801Y-5669222D02*
X7714801Y-5773984D01*
X7714801Y-5669222D02*
X7724324Y-5650174D01*
X7724324Y-5650174D02*
X7743372Y-5640650D01*
X7743372Y-5640650D02*
X7771943Y-5640650D01*
X7771943Y-5640650D02*
X7790991Y-5650174D01*
X7790991Y-5650174D02*
X7800515Y-5669222D01*
X7800515Y-5669222D02*
X7800515Y-5773984D01*
X8190991Y-5564460D02*
X8019563Y-5821603D01*
X8448134Y-5573984D02*
X8467182Y-5573984D01*
X8467182Y-5573984D02*
X8486229Y-5583508D01*
X8486229Y-5583508D02*
X8495753Y-5593031D01*
X8495753Y-5593031D02*
X8505277Y-5612079D01*
X8505277Y-5612079D02*
X8514801Y-5650174D01*
X8514801Y-5650174D02*
X8514801Y-5697793D01*
X8514801Y-5697793D02*
X8505277Y-5735888D01*
X8505277Y-5735888D02*
X8495753Y-5754936D01*
X8495753Y-5754936D02*
X8486229Y-5764460D01*
X8486229Y-5764460D02*
X8467182Y-5773984D01*
X8467182Y-5773984D02*
X8448134Y-5773984D01*
X8448134Y-5773984D02*
X8429087Y-5764460D01*
X8429087Y-5764460D02*
X8419563Y-5754936D01*
X8419563Y-5754936D02*
X8410039Y-5735888D01*
X8410039Y-5735888D02*
X8400515Y-5697793D01*
X8400515Y-5697793D02*
X8400515Y-5650174D01*
X8400515Y-5650174D02*
X8410039Y-5612079D01*
X8410039Y-5612079D02*
X8419563Y-5593031D01*
X8419563Y-5593031D02*
X8429087Y-5583508D01*
X8429087Y-5583508D02*
X8448134Y-5573984D01*
X8600515Y-5754936D02*
X8610039Y-5764460D01*
X8610039Y-5764460D02*
X8600515Y-5773984D01*
X8600515Y-5773984D02*
X8590991Y-5764460D01*
X8590991Y-5764460D02*
X8600515Y-5754936D01*
X8600515Y-5754936D02*
X8600515Y-5773984D01*
X8800515Y-5773984D02*
X8686229Y-5773984D01*
X8743372Y-5773984D02*
X8743372Y-5573984D01*
X8743372Y-5573984D02*
X8724325Y-5602555D01*
X8724325Y-5602555D02*
X8705277Y-5621603D01*
X8705277Y-5621603D02*
X8686229Y-5631127D01*
X8867182Y-5573984D02*
X8990991Y-5573984D01*
X8990991Y-5573984D02*
X8924325Y-5650174D01*
X8924325Y-5650174D02*
X8952896Y-5650174D01*
X8952896Y-5650174D02*
X8971944Y-5659698D01*
X8971944Y-5659698D02*
X8981468Y-5669222D01*
X8981468Y-5669222D02*
X8990991Y-5688269D01*
X8990991Y-5688269D02*
X8990991Y-5735888D01*
X8990991Y-5735888D02*
X8981468Y-5754936D01*
X8981468Y-5754936D02*
X8971944Y-5764460D01*
X8971944Y-5764460D02*
X8952896Y-5773984D01*
X8952896Y-5773984D02*
X8895753Y-5773984D01*
X8895753Y-5773984D02*
X8876706Y-5764460D01*
X8876706Y-5764460D02*
X8867182Y-5754936D01*
X9057658Y-5573984D02*
X9190991Y-5573984D01*
X9190991Y-5573984D02*
X9105277Y-5773984D01*
X9295753Y-5659698D02*
X9276706Y-5650174D01*
X9276706Y-5650174D02*
X9267182Y-5640650D01*
X9267182Y-5640650D02*
X9257658Y-5621603D01*
X9257658Y-5621603D02*
X9257658Y-5612079D01*
X9257658Y-5612079D02*
X9267182Y-5593031D01*
X9267182Y-5593031D02*
X9276706Y-5583508D01*
X9276706Y-5583508D02*
X9295753Y-5573984D01*
X9295753Y-5573984D02*
X9333849Y-5573984D01*
X9333849Y-5573984D02*
X9352896Y-5583508D01*
X9352896Y-5583508D02*
X9362420Y-5593031D01*
X9362420Y-5593031D02*
X9371944Y-5612079D01*
X9371944Y-5612079D02*
X9371944Y-5621603D01*
X9371944Y-5621603D02*
X9362420Y-5640650D01*
X9362420Y-5640650D02*
X9352896Y-5650174D01*
X9352896Y-5650174D02*
X9333849Y-5659698D01*
X9333849Y-5659698D02*
X9295753Y-5659698D01*
X9295753Y-5659698D02*
X9276706Y-5669222D01*
X9276706Y-5669222D02*
X9267182Y-5678746D01*
X9267182Y-5678746D02*
X9257658Y-5697793D01*
X9257658Y-5697793D02*
X9257658Y-5735888D01*
X9257658Y-5735888D02*
X9267182Y-5754936D01*
X9267182Y-5754936D02*
X9276706Y-5764460D01*
X9276706Y-5764460D02*
X9295753Y-5773984D01*
X9295753Y-5773984D02*
X9333849Y-5773984D01*
X9333849Y-5773984D02*
X9352896Y-5764460D01*
X9352896Y-5764460D02*
X9362420Y-5754936D01*
X9362420Y-5754936D02*
X9371944Y-5735888D01*
X9371944Y-5735888D02*
X9371944Y-5697793D01*
X9371944Y-5697793D02*
X9362420Y-5678746D01*
X9362420Y-5678746D02*
X9352896Y-5669222D01*
X9352896Y-5669222D02*
X9333849Y-5659698D01*
X9448134Y-5573984D02*
X9448134Y-5612079D01*
X9524325Y-5573984D02*
X9524325Y-5612079D01*
X9819563Y-5850174D02*
X9810039Y-5840650D01*
X9810039Y-5840650D02*
X9790991Y-5812079D01*
X9790991Y-5812079D02*
X9781468Y-5793031D01*
X9781468Y-5793031D02*
X9771944Y-5764460D01*
X9771944Y-5764460D02*
X9762420Y-5716841D01*
X9762420Y-5716841D02*
X9762420Y-5678746D01*
X9762420Y-5678746D02*
X9771944Y-5631127D01*
X9771944Y-5631127D02*
X9781468Y-5602555D01*
X9781468Y-5602555D02*
X9790991Y-5583508D01*
X9790991Y-5583508D02*
X9810039Y-5554936D01*
X9810039Y-5554936D02*
X9819563Y-5545412D01*
X10000515Y-5773984D02*
X9886230Y-5773984D01*
X9943372Y-5773984D02*
X9943372Y-5573984D01*
X9943372Y-5573984D02*
X9924325Y-5602555D01*
X9924325Y-5602555D02*
X9905277Y-5621603D01*
X9905277Y-5621603D02*
X9886230Y-5631127D01*
X10238611Y-5773984D02*
X10238611Y-5573984D01*
X10324325Y-5773984D02*
X10324325Y-5669222D01*
X10324325Y-5669222D02*
X10314801Y-5650174D01*
X10314801Y-5650174D02*
X10295753Y-5640650D01*
X10295753Y-5640650D02*
X10267182Y-5640650D01*
X10267182Y-5640650D02*
X10248134Y-5650174D01*
X10248134Y-5650174D02*
X10238611Y-5659698D01*
X10448134Y-5773984D02*
X10429087Y-5764460D01*
X10429087Y-5764460D02*
X10419563Y-5754936D01*
X10419563Y-5754936D02*
X10410039Y-5735888D01*
X10410039Y-5735888D02*
X10410039Y-5678746D01*
X10410039Y-5678746D02*
X10419563Y-5659698D01*
X10419563Y-5659698D02*
X10429087Y-5650174D01*
X10429087Y-5650174D02*
X10448134Y-5640650D01*
X10448134Y-5640650D02*
X10476706Y-5640650D01*
X10476706Y-5640650D02*
X10495753Y-5650174D01*
X10495753Y-5650174D02*
X10505277Y-5659698D01*
X10505277Y-5659698D02*
X10514801Y-5678746D01*
X10514801Y-5678746D02*
X10514801Y-5735888D01*
X10514801Y-5735888D02*
X10505277Y-5754936D01*
X10505277Y-5754936D02*
X10495753Y-5764460D01*
X10495753Y-5764460D02*
X10476706Y-5773984D01*
X10476706Y-5773984D02*
X10448134Y-5773984D01*
X10629087Y-5773984D02*
X10610039Y-5764460D01*
X10610039Y-5764460D02*
X10600515Y-5745412D01*
X10600515Y-5745412D02*
X10600515Y-5573984D01*
X10781468Y-5764460D02*
X10762420Y-5773984D01*
X10762420Y-5773984D02*
X10724325Y-5773984D01*
X10724325Y-5773984D02*
X10705277Y-5764460D01*
X10705277Y-5764460D02*
X10695753Y-5745412D01*
X10695753Y-5745412D02*
X10695753Y-5669222D01*
X10695753Y-5669222D02*
X10705277Y-5650174D01*
X10705277Y-5650174D02*
X10724325Y-5640650D01*
X10724325Y-5640650D02*
X10762420Y-5640650D01*
X10762420Y-5640650D02*
X10781468Y-5650174D01*
X10781468Y-5650174D02*
X10790992Y-5669222D01*
X10790992Y-5669222D02*
X10790992Y-5688269D01*
X10790992Y-5688269D02*
X10695753Y-5707317D01*
X10857658Y-5850174D02*
X10867182Y-5840650D01*
X10867182Y-5840650D02*
X10886230Y-5812079D01*
X10886230Y-5812079D02*
X10895753Y-5793031D01*
X10895753Y-5793031D02*
X10905277Y-5764460D01*
X10905277Y-5764460D02*
X10914801Y-5716841D01*
X10914801Y-5716841D02*
X10914801Y-5678746D01*
X10914801Y-5678746D02*
X10905277Y-5631127D01*
X10905277Y-5631127D02*
X10895753Y-5602555D01*
X10895753Y-5602555D02*
X10886230Y-5583508D01*
X10886230Y-5583508D02*
X10867182Y-5554936D01*
X10867182Y-5554936D02*
X10857658Y-5545412D01*
M02*
