%TF.GenerationSoftware,KiCad,Pcbnew,8.0.8*%
%TF.CreationDate,2025-02-15T11:44:30-05:00*%
%TF.ProjectId,caravel-M.2-card-QFN,63617261-7665-46c2-9d4d-2e322d636172,1*%
%TF.SameCoordinates,Original*%
%TF.FileFunction,Copper,L2,Inr*%
%TF.FilePolarity,Positive*%
%FSLAX46Y46*%
G04 Gerber Fmt 4.6, Leading zero omitted, Abs format (unit mm)*
G04 Created by KiCad (PCBNEW 8.0.8) date 2025-02-15 11:44:30*
%MOMM*%
%LPD*%
G01*
G04 APERTURE LIST*
%TA.AperFunction,ComponentPad*%
%ADD10C,5.500000*%
%TD*%
%TA.AperFunction,ComponentPad*%
%ADD11C,1.500000*%
%TD*%
%TA.AperFunction,ViaPad*%
%ADD12C,0.500000*%
%TD*%
%TA.AperFunction,ViaPad*%
%ADD13C,0.406400*%
%TD*%
%TA.AperFunction,Conductor*%
%ADD14C,0.304800*%
%TD*%
%TA.AperFunction,Conductor*%
%ADD15C,0.254000*%
%TD*%
G04 APERTURE END LIST*
D10*
X77450000Y-20500000D03*
D11*
X83238729Y-21703049D03*
X83238729Y-26583049D03*
D12*
X67438729Y-21041849D03*
D13*
X73228729Y-38874349D03*
D12*
X78518729Y-38771049D03*
X74723861Y-24851338D03*
X79338729Y-27953049D03*
X83881129Y-29068249D03*
D13*
X75038729Y-30403049D03*
X82306329Y-35469049D03*
D12*
X62938729Y-38003049D03*
X79358729Y-32743049D03*
D13*
X81899929Y-36027849D03*
D12*
X83938729Y-24453049D03*
X83338729Y-30653049D03*
X81338729Y-27653049D03*
X67675929Y-24445449D03*
X71538729Y-24353049D03*
X68328729Y-27953049D03*
X68208729Y-29953049D03*
X79438729Y-30963049D03*
X66858729Y-26963049D03*
X68858729Y-34923049D03*
D13*
X77738729Y-30953049D03*
D12*
X83598729Y-37646308D03*
X68308729Y-33473049D03*
X68508729Y-26453049D03*
X75338729Y-37553049D03*
X73978729Y-35653049D03*
X80838729Y-36953049D03*
X76515129Y-38009049D03*
X73467129Y-23683449D03*
X70063529Y-24343849D03*
X82407929Y-38313849D03*
X79438729Y-34153049D03*
X68368729Y-34293049D03*
X78572529Y-37932849D03*
X79833729Y-37348049D03*
X79408729Y-33453049D03*
D13*
X77801662Y-35726541D03*
X83008729Y-32403049D03*
X82648729Y-30733049D03*
X77286680Y-35943459D03*
X82398729Y-32473049D03*
X82218729Y-29893049D03*
X76780539Y-36180275D03*
X81718729Y-29403049D03*
X82098729Y-33073049D03*
X76227055Y-36257188D03*
X80978729Y-28903049D03*
X81988729Y-33713049D03*
X80213729Y-28428049D03*
X79718729Y-35603049D03*
X79958729Y-29683049D03*
X79728729Y-34933049D03*
X75638729Y-35853049D03*
X75038729Y-35853049D03*
X71608729Y-37113049D03*
X70908729Y-37373049D03*
X70148729Y-36963049D03*
X69508729Y-36613049D03*
X68978729Y-36333049D03*
X78938729Y-25453049D03*
X73268729Y-37643049D03*
X68468729Y-35933049D03*
X72682260Y-37480993D03*
X78538729Y-24953049D03*
X68068729Y-35503049D03*
X72438729Y-36978049D03*
X77838729Y-24853049D03*
X68138729Y-32884349D03*
X66913929Y-21854649D03*
X77135617Y-24764884D03*
X67641496Y-32400282D03*
X66507529Y-22413449D03*
X76577729Y-24743369D03*
X68158729Y-31953049D03*
X65999529Y-22769049D03*
X76021615Y-24792756D03*
X67882941Y-31418837D03*
X75468710Y-24873726D03*
X65537132Y-23129337D03*
X68198729Y-30953049D03*
X65144197Y-23526657D03*
X73478729Y-24903049D03*
X67906557Y-30477300D03*
X72978729Y-24653049D03*
X64678729Y-23835849D03*
X67588729Y-29453049D03*
X63561129Y-24801049D03*
X72478729Y-24903049D03*
X68178729Y-28973049D03*
X67983491Y-28449999D03*
X67658729Y-27963049D03*
X63053129Y-25156649D03*
X70673129Y-24903049D03*
X67635332Y-27359652D03*
X63042629Y-25733049D03*
X68847067Y-25721376D03*
D14*
X67838729Y-26653049D02*
X68328729Y-27143049D01*
D15*
X76288729Y-37353049D02*
X74988729Y-38653049D01*
D14*
X81674729Y-36253049D02*
X79938729Y-36253049D01*
D15*
X78518729Y-38771049D02*
X78231729Y-38771049D01*
D14*
X66858729Y-26963049D02*
X67128729Y-26963049D01*
X78938729Y-37253049D02*
X78338729Y-37253049D01*
D15*
X76813729Y-37353049D02*
X76288729Y-37353049D01*
D14*
X81899929Y-36027849D02*
X81674729Y-36253049D01*
X76288729Y-37353049D02*
X75688729Y-36753049D01*
X67438729Y-26653049D02*
X67838729Y-26653049D01*
X68328729Y-27143049D02*
X68328729Y-27953049D01*
D15*
X78231729Y-38771049D02*
X77576229Y-38115549D01*
D14*
X79938729Y-36253049D02*
X78938729Y-37253049D01*
X75688729Y-36753049D02*
X74938729Y-36753049D01*
X67128729Y-26963049D02*
X67438729Y-26653049D01*
D15*
X74988729Y-38653049D02*
X73450029Y-38653049D01*
D14*
X78518729Y-38771049D02*
X78518729Y-38683049D01*
D15*
X77576229Y-38115549D02*
X76813729Y-37353049D01*
D14*
X78338729Y-37253049D02*
X77576229Y-38015549D01*
D15*
X73450029Y-38653049D02*
X73228729Y-38874349D01*
%TA.AperFunction,Conductor*%
G36*
X75597838Y-20570185D02*
G01*
X75643593Y-20622989D01*
X75653537Y-20656853D01*
X75686151Y-20883696D01*
X75686154Y-20883706D01*
X75758714Y-21130822D01*
X75865696Y-21365080D01*
X75865709Y-21365103D01*
X76004939Y-21581749D01*
X76004943Y-21581755D01*
X76173601Y-21776398D01*
X76368244Y-21945056D01*
X76368250Y-21945060D01*
X76584896Y-22084290D01*
X76584919Y-22084303D01*
X76819177Y-22191285D01*
X76819181Y-22191286D01*
X76819183Y-22191287D01*
X77066299Y-22263847D01*
X77066300Y-22263847D01*
X77066303Y-22263848D01*
X77135351Y-22273775D01*
X77321226Y-22300500D01*
X77321229Y-22300500D01*
X77578771Y-22300500D01*
X77578774Y-22300500D01*
X77788013Y-22270415D01*
X77833696Y-22263848D01*
X77833697Y-22263847D01*
X77833701Y-22263847D01*
X78080817Y-22191287D01*
X78080820Y-22191285D01*
X78080822Y-22191285D01*
X78315080Y-22084303D01*
X78315084Y-22084300D01*
X78315092Y-22084297D01*
X78531756Y-21945056D01*
X78726398Y-21776398D01*
X78895056Y-21581756D01*
X79034297Y-21365092D01*
X79034300Y-21365084D01*
X79034303Y-21365080D01*
X79141285Y-21130822D01*
X79141285Y-21130820D01*
X79141287Y-21130817D01*
X79213847Y-20883701D01*
X79232251Y-20755703D01*
X79246463Y-20656853D01*
X79275488Y-20593297D01*
X79334266Y-20555523D01*
X79369201Y-20550500D01*
X82323440Y-20550500D01*
X82390479Y-20570185D01*
X82436234Y-20622989D01*
X82446178Y-20692147D01*
X82417153Y-20755703D01*
X82411121Y-20762181D01*
X82277131Y-20896170D01*
X82151629Y-21075406D01*
X82151627Y-21075410D01*
X82059155Y-21273717D01*
X82059151Y-21273726D01*
X82002522Y-21485069D01*
X82002522Y-21485073D01*
X81983452Y-21703046D01*
X81983452Y-21703051D01*
X82002522Y-21921024D01*
X82002522Y-21921028D01*
X82059151Y-22132371D01*
X82059153Y-22132375D01*
X82059154Y-22132379D01*
X82086623Y-22191287D01*
X82151626Y-22330687D01*
X82151627Y-22330688D01*
X82277131Y-22509926D01*
X82431852Y-22664647D01*
X82611090Y-22790151D01*
X82809399Y-22882624D01*
X83020752Y-22939256D01*
X83203655Y-22955257D01*
X83238727Y-22958326D01*
X83238729Y-22958326D01*
X83238731Y-22958326D01*
X83266983Y-22955854D01*
X83456706Y-22939256D01*
X83668059Y-22882624D01*
X83866368Y-22790151D01*
X84045606Y-22664647D01*
X84187819Y-22522434D01*
X84249142Y-22488949D01*
X84318834Y-22493933D01*
X84374767Y-22535805D01*
X84399184Y-22601269D01*
X84399500Y-22610115D01*
X84399500Y-25675982D01*
X84379815Y-25743021D01*
X84327011Y-25788776D01*
X84257853Y-25798720D01*
X84194297Y-25769695D01*
X84187819Y-25763664D01*
X84145530Y-25721375D01*
X84045606Y-25621451D01*
X83867095Y-25496456D01*
X83866367Y-25495946D01*
X83753565Y-25443346D01*
X83668059Y-25403474D01*
X83668055Y-25403473D01*
X83668051Y-25403471D01*
X83456706Y-25346842D01*
X83238731Y-25327772D01*
X83238727Y-25327772D01*
X83093411Y-25340485D01*
X83020752Y-25346842D01*
X83020749Y-25346842D01*
X82809406Y-25403471D01*
X82809397Y-25403475D01*
X82611090Y-25495947D01*
X82611086Y-25495949D01*
X82431850Y-25621451D01*
X82277131Y-25776170D01*
X82151629Y-25955406D01*
X82151627Y-25955410D01*
X82059155Y-26153717D01*
X82059151Y-26153726D01*
X82002522Y-26365069D01*
X82002522Y-26365073D01*
X81983452Y-26583046D01*
X81983452Y-26583051D01*
X82002522Y-26801024D01*
X82002522Y-26801028D01*
X82059151Y-27012371D01*
X82059153Y-27012375D01*
X82059154Y-27012379D01*
X82067475Y-27030223D01*
X82151626Y-27210687D01*
X82151627Y-27210688D01*
X82277131Y-27389926D01*
X82431852Y-27544647D01*
X82611090Y-27670151D01*
X82809399Y-27762624D01*
X82809405Y-27762625D01*
X82809406Y-27762626D01*
X82819184Y-27765246D01*
X83020752Y-27819256D01*
X83203655Y-27835257D01*
X83238727Y-27838326D01*
X83238729Y-27838326D01*
X83238731Y-27838326D01*
X83266983Y-27835854D01*
X83456706Y-27819256D01*
X83668059Y-27762624D01*
X83866368Y-27670151D01*
X84045606Y-27544647D01*
X84187819Y-27402434D01*
X84249142Y-27368949D01*
X84318834Y-27373933D01*
X84374767Y-27415805D01*
X84399184Y-27481269D01*
X84399500Y-27490115D01*
X84399500Y-37086350D01*
X84379815Y-37153389D01*
X84327011Y-37199144D01*
X84257853Y-37209088D01*
X84194297Y-37180063D01*
X84187819Y-37174031D01*
X84069619Y-37055831D01*
X84069613Y-37055826D01*
X83926426Y-36965855D01*
X83926423Y-36965853D01*
X83766785Y-36909993D01*
X83598732Y-36891059D01*
X83598726Y-36891059D01*
X83430672Y-36909993D01*
X83271034Y-36965853D01*
X83271031Y-36965855D01*
X83127844Y-37055826D01*
X83127838Y-37055831D01*
X83008252Y-37175417D01*
X83008247Y-37175423D01*
X82918276Y-37318610D01*
X82918274Y-37318613D01*
X82862415Y-37478251D01*
X82858197Y-37515682D01*
X82831129Y-37580095D01*
X82773533Y-37619649D01*
X82703696Y-37621786D01*
X82694022Y-37618837D01*
X82575989Y-37577535D01*
X82407932Y-37558600D01*
X82407926Y-37558600D01*
X82239872Y-37577534D01*
X82080234Y-37633394D01*
X82080231Y-37633396D01*
X81937044Y-37723367D01*
X81937038Y-37723372D01*
X81817452Y-37842958D01*
X81817447Y-37842964D01*
X81727476Y-37986151D01*
X81727474Y-37986154D01*
X81671614Y-38145792D01*
X81652680Y-38313846D01*
X81652680Y-38313851D01*
X81671614Y-38481905D01*
X81727474Y-38641542D01*
X81772423Y-38713076D01*
X81791424Y-38780313D01*
X81771057Y-38847148D01*
X81717789Y-38892362D01*
X81667430Y-38903049D01*
X78801991Y-38903049D01*
X78734952Y-38883364D01*
X78689197Y-38830560D01*
X78679253Y-38761402D01*
X78708278Y-38697846D01*
X78761036Y-38662007D01*
X78812480Y-38644006D01*
X78900219Y-38613305D01*
X78900221Y-38613303D01*
X78900223Y-38613303D01*
X78900226Y-38613301D01*
X79043413Y-38523330D01*
X79043414Y-38523329D01*
X79043419Y-38523326D01*
X79163006Y-38403739D01*
X79164377Y-38401557D01*
X79252981Y-38260546D01*
X79252983Y-38260543D01*
X79252983Y-38260541D01*
X79252985Y-38260539D01*
X79308842Y-38100908D01*
X79308843Y-38100892D01*
X79309136Y-38099616D01*
X79309558Y-38098860D01*
X79311142Y-38094335D01*
X79311934Y-38094612D01*
X79343237Y-38038633D01*
X79404895Y-38005767D01*
X79474533Y-38011454D01*
X79496004Y-38022200D01*
X79506035Y-38028503D01*
X79506036Y-38028503D01*
X79506039Y-38028505D01*
X79586396Y-38056623D01*
X79665672Y-38084363D01*
X79833726Y-38103298D01*
X79833729Y-38103298D01*
X79833732Y-38103298D01*
X80001785Y-38084363D01*
X80001788Y-38084362D01*
X80161419Y-38028505D01*
X80161421Y-38028503D01*
X80161423Y-38028503D01*
X80161426Y-38028501D01*
X80304613Y-37938530D01*
X80304614Y-37938529D01*
X80304619Y-37938526D01*
X80424206Y-37818939D01*
X80482763Y-37725745D01*
X80535095Y-37679457D01*
X80604149Y-37668808D01*
X80628704Y-37674677D01*
X80670670Y-37689362D01*
X80670671Y-37689362D01*
X80670674Y-37689363D01*
X80838726Y-37708298D01*
X80838729Y-37708298D01*
X80838732Y-37708298D01*
X81006785Y-37689363D01*
X81029659Y-37681359D01*
X81166419Y-37633505D01*
X81166421Y-37633503D01*
X81166423Y-37633503D01*
X81166426Y-37633501D01*
X81309613Y-37543530D01*
X81309614Y-37543529D01*
X81309619Y-37543526D01*
X81429206Y-37423939D01*
X81429210Y-37423933D01*
X81519181Y-37280746D01*
X81519183Y-37280743D01*
X81519183Y-37280741D01*
X81519185Y-37280739D01*
X81575042Y-37121108D01*
X81575042Y-37121107D01*
X81575043Y-37121105D01*
X81593978Y-36953051D01*
X81593978Y-36953046D01*
X81575043Y-36784992D01*
X81533964Y-36667596D01*
X81519185Y-36625359D01*
X81519184Y-36625358D01*
X81519183Y-36625354D01*
X81519181Y-36625351D01*
X81429210Y-36482164D01*
X81429205Y-36482158D01*
X81309619Y-36362572D01*
X81309613Y-36362567D01*
X81166426Y-36272596D01*
X81166423Y-36272594D01*
X81006785Y-36216734D01*
X80838732Y-36197800D01*
X80838726Y-36197800D01*
X80670672Y-36216734D01*
X80511034Y-36272594D01*
X80511031Y-36272596D01*
X80367844Y-36362567D01*
X80367838Y-36362572D01*
X80248250Y-36482160D01*
X80189695Y-36575350D01*
X80137360Y-36621641D01*
X80068307Y-36632288D01*
X80043753Y-36626420D01*
X80001788Y-36611736D01*
X80001787Y-36611735D01*
X80001782Y-36611734D01*
X79833732Y-36592800D01*
X79833726Y-36592800D01*
X79665672Y-36611734D01*
X79506034Y-36667594D01*
X79506031Y-36667596D01*
X79362844Y-36757567D01*
X79362838Y-36757572D01*
X79243252Y-36877158D01*
X79243247Y-36877164D01*
X79153276Y-37020351D01*
X79153274Y-37020354D01*
X79097415Y-37179991D01*
X79097117Y-37181299D01*
X79096692Y-37182058D01*
X79095116Y-37186563D01*
X79094326Y-37186286D01*
X79063007Y-37242276D01*
X79001345Y-37275133D01*
X78931708Y-37269437D01*
X78910255Y-37258698D01*
X78900224Y-37252395D01*
X78900223Y-37252394D01*
X78740585Y-37196534D01*
X78572532Y-37177600D01*
X78572526Y-37177600D01*
X78404472Y-37196534D01*
X78244834Y-37252394D01*
X78244831Y-37252396D01*
X78101644Y-37342367D01*
X78101638Y-37342372D01*
X77982052Y-37461958D01*
X77982047Y-37461964D01*
X77892076Y-37605151D01*
X77892074Y-37605154D01*
X77836214Y-37764792D01*
X77817280Y-37932846D01*
X77817280Y-37932851D01*
X77836214Y-38100905D01*
X77892074Y-38260543D01*
X77892076Y-38260546D01*
X77982047Y-38403733D01*
X77982052Y-38403739D01*
X78101638Y-38523325D01*
X78101644Y-38523330D01*
X78244831Y-38613301D01*
X78244834Y-38613303D01*
X78244838Y-38613304D01*
X78244839Y-38613305D01*
X78325528Y-38641539D01*
X78384022Y-38662007D01*
X78440798Y-38702729D01*
X78466545Y-38767682D01*
X78453089Y-38836244D01*
X78404701Y-38886646D01*
X78343067Y-38903049D01*
X77026273Y-38903049D01*
X76959234Y-38883364D01*
X76957490Y-38882223D01*
X76912417Y-38852174D01*
X76867556Y-38798608D01*
X76858776Y-38729292D01*
X76888865Y-38666234D01*
X76915226Y-38644008D01*
X76986019Y-38599526D01*
X77105606Y-38479939D01*
X77122309Y-38453357D01*
X77195581Y-38336746D01*
X77195583Y-38336743D01*
X77195583Y-38336741D01*
X77195585Y-38336739D01*
X77251442Y-38177108D01*
X77251442Y-38177107D01*
X77251443Y-38177105D01*
X77270378Y-38009051D01*
X77270378Y-38009046D01*
X77251443Y-37840992D01*
X77200868Y-37696458D01*
X77195585Y-37681359D01*
X77195584Y-37681358D01*
X77195583Y-37681354D01*
X77195581Y-37681351D01*
X77105610Y-37538164D01*
X77105605Y-37538158D01*
X76986019Y-37418572D01*
X76986013Y-37418567D01*
X76842826Y-37328596D01*
X76842823Y-37328594D01*
X76683185Y-37272734D01*
X76515132Y-37253800D01*
X76515126Y-37253800D01*
X76347071Y-37272735D01*
X76186762Y-37328829D01*
X76116983Y-37332390D01*
X76056356Y-37297661D01*
X76028766Y-37252740D01*
X76019185Y-37225359D01*
X76019183Y-37225356D01*
X75963361Y-37136516D01*
X75944360Y-37069279D01*
X75964727Y-37002444D01*
X76017995Y-36957229D01*
X76087251Y-36947991D01*
X76098023Y-36950144D01*
X76141610Y-36960888D01*
X76141611Y-36960888D01*
X76312499Y-36960888D01*
X76312500Y-36960888D01*
X76478423Y-36919991D01*
X76552715Y-36880998D01*
X76621221Y-36867273D01*
X76640012Y-36870398D01*
X76667438Y-36877158D01*
X76695093Y-36883975D01*
X76695094Y-36883975D01*
X76865983Y-36883975D01*
X76865984Y-36883975D01*
X77031907Y-36843078D01*
X77183222Y-36763662D01*
X77224318Y-36727254D01*
X77279527Y-36678344D01*
X77342760Y-36648622D01*
X77361754Y-36647159D01*
X77372124Y-36647159D01*
X77372125Y-36647159D01*
X77538048Y-36606262D01*
X77689363Y-36526846D01*
X77727586Y-36492983D01*
X77763207Y-36461426D01*
X77826440Y-36431704D01*
X77845434Y-36430241D01*
X77887106Y-36430241D01*
X77887107Y-36430241D01*
X78053030Y-36389344D01*
X78204345Y-36309928D01*
X78332257Y-36196607D01*
X78429333Y-36055968D01*
X78489932Y-35896184D01*
X78510530Y-35726541D01*
X78489932Y-35556898D01*
X78429333Y-35397114D01*
X78419580Y-35382985D01*
X78348947Y-35280655D01*
X78332257Y-35256475D01*
X78204345Y-35143154D01*
X78053030Y-35063738D01*
X78053029Y-35063737D01*
X78053028Y-35063737D01*
X77928250Y-35032982D01*
X77887107Y-35022841D01*
X77716217Y-35022841D01*
X77675321Y-35032921D01*
X77550295Y-35063737D01*
X77398977Y-35143154D01*
X77325135Y-35208574D01*
X77261902Y-35238296D01*
X77242908Y-35239759D01*
X77201235Y-35239759D01*
X77160339Y-35249839D01*
X77035313Y-35280655D01*
X76883995Y-35360072D01*
X76787692Y-35445390D01*
X76724459Y-35475112D01*
X76705465Y-35476575D01*
X76695094Y-35476575D01*
X76639786Y-35490207D01*
X76529169Y-35517472D01*
X76454877Y-35556463D01*
X76386369Y-35570187D01*
X76367577Y-35567063D01*
X76327449Y-35557172D01*
X76267069Y-35522015D01*
X76255075Y-35507215D01*
X76179078Y-35397114D01*
X76169324Y-35382983D01*
X76041412Y-35269662D01*
X75890097Y-35190246D01*
X75890096Y-35190245D01*
X75890095Y-35190245D01*
X75778447Y-35162726D01*
X75724174Y-35149349D01*
X75553284Y-35149349D01*
X75496901Y-35163246D01*
X75387355Y-35190247D01*
X75382697Y-35192014D01*
X75313033Y-35197379D01*
X75294761Y-35192014D01*
X75290102Y-35190247D01*
X75209575Y-35170398D01*
X75124174Y-35149349D01*
X74953284Y-35149349D01*
X74920474Y-35157435D01*
X74787361Y-35190245D01*
X74728710Y-35221028D01*
X74660201Y-35234752D01*
X74595148Y-35209259D01*
X74574698Y-35186688D01*
X74573549Y-35187605D01*
X74569205Y-35182158D01*
X74449619Y-35062572D01*
X74449613Y-35062567D01*
X74306426Y-34972596D01*
X74306423Y-34972594D01*
X74146785Y-34916734D01*
X73978732Y-34897800D01*
X73978726Y-34897800D01*
X73810672Y-34916734D01*
X73651034Y-34972594D01*
X73651031Y-34972596D01*
X73507844Y-35062567D01*
X73507838Y-35062572D01*
X73388252Y-35182158D01*
X73388247Y-35182164D01*
X73298276Y-35325351D01*
X73298274Y-35325354D01*
X73242414Y-35484992D01*
X73223480Y-35653046D01*
X73223480Y-35653051D01*
X73242414Y-35821105D01*
X73298274Y-35980743D01*
X73298276Y-35980746D01*
X73388247Y-36123933D01*
X73388252Y-36123939D01*
X73507838Y-36243525D01*
X73507844Y-36243530D01*
X73651031Y-36333501D01*
X73651034Y-36333503D01*
X73651038Y-36333504D01*
X73651039Y-36333505D01*
X73723642Y-36358909D01*
X73810672Y-36389363D01*
X73978726Y-36408298D01*
X73978729Y-36408298D01*
X73978732Y-36408298D01*
X74146785Y-36389363D01*
X74174509Y-36379662D01*
X74306419Y-36333505D01*
X74352866Y-36304320D01*
X74420099Y-36285320D01*
X74486935Y-36305687D01*
X74501999Y-36318728D01*
X74502520Y-36318141D01*
X74508133Y-36323113D01*
X74508134Y-36323115D01*
X74636046Y-36436436D01*
X74787361Y-36515852D01*
X74953284Y-36556749D01*
X74953285Y-36556749D01*
X75124173Y-36556749D01*
X75124174Y-36556749D01*
X75290097Y-36515852D01*
X75290102Y-36515849D01*
X75294752Y-36514086D01*
X75364415Y-36508716D01*
X75382706Y-36514086D01*
X75387358Y-36515850D01*
X75387361Y-36515852D01*
X75538334Y-36553064D01*
X75598714Y-36588221D01*
X75610708Y-36603022D01*
X75624704Y-36623299D01*
X75646587Y-36689653D01*
X75629121Y-36757305D01*
X75577853Y-36804774D01*
X75509060Y-36816991D01*
X75508771Y-36816958D01*
X75338733Y-36797800D01*
X75338726Y-36797800D01*
X75170672Y-36816734D01*
X75011034Y-36872594D01*
X75011031Y-36872596D01*
X74867844Y-36962567D01*
X74867838Y-36962572D01*
X74748252Y-37082158D01*
X74748247Y-37082164D01*
X74658276Y-37225351D01*
X74658274Y-37225354D01*
X74602414Y-37384992D01*
X74583480Y-37553046D01*
X74583480Y-37553051D01*
X74602414Y-37721105D01*
X74658274Y-37880743D01*
X74658276Y-37880746D01*
X74748247Y-38023933D01*
X74748252Y-38023939D01*
X74867838Y-38143525D01*
X74867844Y-38143530D01*
X75011031Y-38233501D01*
X75011034Y-38233503D01*
X75011038Y-38233504D01*
X75011039Y-38233505D01*
X75020413Y-38236785D01*
X75170672Y-38289363D01*
X75338726Y-38308298D01*
X75338729Y-38308298D01*
X75338732Y-38308298D01*
X75506788Y-38289362D01*
X75506790Y-38289362D01*
X75667094Y-38233269D01*
X75736873Y-38229707D01*
X75797500Y-38264435D01*
X75825090Y-38309355D01*
X75834671Y-38336735D01*
X75834675Y-38336744D01*
X75845304Y-38353660D01*
X75864304Y-38420897D01*
X75843936Y-38487732D01*
X75809093Y-38522805D01*
X75269968Y-38882223D01*
X75203269Y-38903031D01*
X75201185Y-38903049D01*
X63642058Y-38903049D01*
X63575019Y-38883364D01*
X63529264Y-38830560D01*
X63524077Y-38815241D01*
X63523940Y-38815290D01*
X63521640Y-38808717D01*
X63465376Y-38691882D01*
X63465373Y-38691877D01*
X63384515Y-38590485D01*
X63283122Y-38509626D01*
X63283117Y-38509623D01*
X63166279Y-38453357D01*
X63039847Y-38424500D01*
X63039843Y-38424500D01*
X62983126Y-38424500D01*
X62966941Y-38423439D01*
X62955208Y-38421894D01*
X62868375Y-38410462D01*
X62837109Y-38402084D01*
X62752834Y-38367177D01*
X62724800Y-38350992D01*
X62700926Y-38332673D01*
X62652428Y-38295458D01*
X62629541Y-38272571D01*
X62599383Y-38233269D01*
X62574005Y-38200197D01*
X62557823Y-38172168D01*
X62528307Y-38100908D01*
X62522915Y-38087890D01*
X62514537Y-38056623D01*
X62501561Y-37958059D01*
X62500500Y-37941874D01*
X62500500Y-29453049D01*
X66879861Y-29453049D01*
X66900458Y-29622691D01*
X66961058Y-29782477D01*
X67037380Y-29893048D01*
X67058134Y-29923115D01*
X67186046Y-30036436D01*
X67201446Y-30044518D01*
X67251660Y-30093102D01*
X67267636Y-30161120D01*
X67259765Y-30198287D01*
X67218287Y-30307656D01*
X67197689Y-30477300D01*
X67218286Y-30646942D01*
X67278886Y-30806728D01*
X67316017Y-30860521D01*
X67337900Y-30926876D01*
X67320434Y-30994527D01*
X67316018Y-31001400D01*
X67255270Y-31089409D01*
X67194670Y-31249194D01*
X67174073Y-31418837D01*
X67194671Y-31588480D01*
X67240262Y-31708693D01*
X67245629Y-31778356D01*
X67212482Y-31839862D01*
X67206548Y-31845479D01*
X67110901Y-31930215D01*
X67110899Y-31930218D01*
X67013825Y-32070853D01*
X66953225Y-32230639D01*
X66932628Y-32400282D01*
X66953225Y-32569924D01*
X67013825Y-32729710D01*
X67101874Y-32857270D01*
X67110901Y-32870348D01*
X67238813Y-32983669D01*
X67390128Y-33063085D01*
X67397290Y-33064850D01*
X67457672Y-33100004D01*
X67483561Y-33141275D01*
X67485110Y-33145359D01*
X67511058Y-33213777D01*
X67546273Y-33264794D01*
X67568156Y-33331149D01*
X67567443Y-33349117D01*
X67553480Y-33473045D01*
X67553480Y-33473051D01*
X67572414Y-33641105D01*
X67597589Y-33713049D01*
X67620572Y-33778732D01*
X67628274Y-33800741D01*
X67672039Y-33870393D01*
X67691039Y-33937630D01*
X67684087Y-33977319D01*
X67632415Y-34124991D01*
X67613480Y-34293046D01*
X67613480Y-34293051D01*
X67632414Y-34461105D01*
X67688274Y-34620741D01*
X67752700Y-34723274D01*
X67771700Y-34790511D01*
X67751332Y-34857346D01*
X67705333Y-34899042D01*
X67666047Y-34919661D01*
X67538134Y-35032982D01*
X67538132Y-35032985D01*
X67441058Y-35173620D01*
X67380458Y-35333406D01*
X67359861Y-35503049D01*
X67380458Y-35672691D01*
X67441058Y-35832477D01*
X67522348Y-35950245D01*
X67538134Y-35973115D01*
X67666046Y-36086436D01*
X67666048Y-36086437D01*
X67759555Y-36135514D01*
X67809767Y-36184098D01*
X67817868Y-36201333D01*
X67829882Y-36233010D01*
X67841058Y-36262477D01*
X67910146Y-36362567D01*
X67938134Y-36403115D01*
X68066046Y-36516436D01*
X68217361Y-36595852D01*
X68268493Y-36608454D01*
X68277391Y-36610648D01*
X68337772Y-36645804D01*
X68349766Y-36660605D01*
X68435623Y-36784990D01*
X68448134Y-36803115D01*
X68576046Y-36916436D01*
X68727361Y-36995852D01*
X68893284Y-37036749D01*
X68893288Y-37036749D01*
X68895645Y-37037036D01*
X68897248Y-37037726D01*
X68900567Y-37038544D01*
X68900431Y-37039095D01*
X68959824Y-37064655D01*
X68973519Y-37077906D01*
X68978130Y-37083111D01*
X68978133Y-37083113D01*
X68978134Y-37083115D01*
X69106046Y-37196436D01*
X69257361Y-37275852D01*
X69423284Y-37316749D01*
X69472732Y-37316749D01*
X69539771Y-37336434D01*
X69574781Y-37370308D01*
X69618134Y-37433115D01*
X69746046Y-37546436D01*
X69897361Y-37625852D01*
X70063284Y-37666749D01*
X70063285Y-37666749D01*
X70191317Y-37666749D01*
X70258356Y-37686434D01*
X70293367Y-37720309D01*
X70329513Y-37772675D01*
X70378134Y-37843115D01*
X70506046Y-37956436D01*
X70657361Y-38035852D01*
X70823284Y-38076749D01*
X70823285Y-38076749D01*
X70994173Y-38076749D01*
X70994174Y-38076749D01*
X71160097Y-38035852D01*
X71311412Y-37956436D01*
X71433885Y-37847933D01*
X71497117Y-37818212D01*
X71516112Y-37816749D01*
X71694173Y-37816749D01*
X71694174Y-37816749D01*
X71860097Y-37775852D01*
X71888564Y-37760911D01*
X71957068Y-37747185D01*
X72022122Y-37772675D01*
X72049222Y-37805010D01*
X72050328Y-37804247D01*
X72056157Y-37812692D01*
X72151665Y-37951059D01*
X72279577Y-38064380D01*
X72430892Y-38143796D01*
X72596815Y-38184693D01*
X72596816Y-38184693D01*
X72771901Y-38184693D01*
X72838940Y-38204378D01*
X72854128Y-38215878D01*
X72866044Y-38226435D01*
X72866046Y-38226436D01*
X73017361Y-38305852D01*
X73183284Y-38346749D01*
X73183285Y-38346749D01*
X73354173Y-38346749D01*
X73354174Y-38346749D01*
X73520097Y-38305852D01*
X73671412Y-38226436D01*
X73799324Y-38113115D01*
X73896400Y-37972476D01*
X73956999Y-37812692D01*
X73977597Y-37643049D01*
X73956999Y-37473406D01*
X73896400Y-37313622D01*
X73873707Y-37280746D01*
X73847153Y-37242276D01*
X73799324Y-37172983D01*
X73671412Y-37059662D01*
X73520097Y-36980246D01*
X73520096Y-36980245D01*
X73520095Y-36980245D01*
X73389235Y-36947991D01*
X73354174Y-36939349D01*
X73252753Y-36939349D01*
X73185714Y-36919664D01*
X73139959Y-36866860D01*
X73129657Y-36830296D01*
X73126999Y-36808406D01*
X73071654Y-36662476D01*
X73066400Y-36648622D01*
X73065390Y-36647159D01*
X72982343Y-36526845D01*
X72969324Y-36507983D01*
X72841412Y-36394662D01*
X72690097Y-36315246D01*
X72690096Y-36315245D01*
X72690095Y-36315245D01*
X72568684Y-36285320D01*
X72524174Y-36274349D01*
X72353284Y-36274349D01*
X72312388Y-36284429D01*
X72187362Y-36315245D01*
X72036044Y-36394662D01*
X71995253Y-36430800D01*
X71932020Y-36460521D01*
X71867466Y-36451961D01*
X71867109Y-36452905D01*
X71863092Y-36451381D01*
X71862756Y-36451337D01*
X71861959Y-36450952D01*
X71860100Y-36450246D01*
X71735654Y-36419573D01*
X71694174Y-36409349D01*
X71523284Y-36409349D01*
X71482388Y-36419429D01*
X71357362Y-36450245D01*
X71206047Y-36529661D01*
X71206046Y-36529662D01*
X71083572Y-36638164D01*
X71020341Y-36667886D01*
X71001346Y-36669349D01*
X70866141Y-36669349D01*
X70799102Y-36649664D01*
X70764091Y-36615789D01*
X70720795Y-36553064D01*
X70679324Y-36492983D01*
X70551412Y-36379662D01*
X70400097Y-36300246D01*
X70400096Y-36300245D01*
X70400095Y-36300245D01*
X70260557Y-36265852D01*
X70234174Y-36259349D01*
X70234173Y-36259349D01*
X70184726Y-36259349D01*
X70117687Y-36239664D01*
X70082676Y-36205789D01*
X70076336Y-36196604D01*
X70039324Y-36142983D01*
X69911412Y-36029662D01*
X69760097Y-35950246D01*
X69760096Y-35950245D01*
X69760095Y-35950245D01*
X69594167Y-35909347D01*
X69591801Y-35909060D01*
X69590193Y-35908367D01*
X69586891Y-35907554D01*
X69587026Y-35907004D01*
X69527625Y-35881435D01*
X69513937Y-35868191D01*
X69509322Y-35862981D01*
X69407406Y-35772691D01*
X69381412Y-35749662D01*
X69230097Y-35670246D01*
X69230096Y-35670245D01*
X69230095Y-35670245D01*
X69170065Y-35655449D01*
X69109685Y-35620292D01*
X69097691Y-35605492D01*
X69029855Y-35507215D01*
X68999324Y-35462983D01*
X68871412Y-35349662D01*
X68871410Y-35349661D01*
X68871409Y-35349660D01*
X68777903Y-35300584D01*
X68727691Y-35252000D01*
X68719587Y-35234760D01*
X68714379Y-35221028D01*
X68696400Y-35173622D01*
X68675369Y-35143154D01*
X68673608Y-35140602D01*
X68651725Y-35074248D01*
X68669190Y-35006596D01*
X68709684Y-34965169D01*
X68839619Y-34883526D01*
X68959206Y-34763939D01*
X68970806Y-34745478D01*
X69049181Y-34620746D01*
X69049183Y-34620743D01*
X69049183Y-34620741D01*
X69049185Y-34620739D01*
X69105042Y-34461108D01*
X69105042Y-34461107D01*
X69105043Y-34461105D01*
X69123978Y-34293051D01*
X69123978Y-34293046D01*
X69105042Y-34124991D01*
X69049186Y-33965361D01*
X69027465Y-33930793D01*
X69005417Y-33895704D01*
X68986417Y-33828469D01*
X68993370Y-33788778D01*
X68996886Y-33778732D01*
X69045042Y-33641108D01*
X69045042Y-33641105D01*
X69063978Y-33473051D01*
X69063978Y-33473046D01*
X69061725Y-33453046D01*
X78653480Y-33453046D01*
X78653480Y-33453051D01*
X78672414Y-33621105D01*
X78728274Y-33780743D01*
X78731295Y-33787015D01*
X78729001Y-33788119D01*
X78744798Y-33844065D01*
X78737847Y-33883728D01*
X78702415Y-33984990D01*
X78683480Y-34153046D01*
X78683480Y-34153051D01*
X78702414Y-34321105D01*
X78758274Y-34480743D01*
X78758276Y-34480746D01*
X78848247Y-34623933D01*
X78848252Y-34623939D01*
X78967839Y-34743526D01*
X78970946Y-34745478D01*
X78972524Y-34747262D01*
X78973285Y-34747869D01*
X78973178Y-34748002D01*
X79017238Y-34797812D01*
X79028072Y-34865418D01*
X79019861Y-34933048D01*
X79040458Y-35102691D01*
X79081495Y-35210893D01*
X79086862Y-35280557D01*
X79081495Y-35298836D01*
X79030459Y-35433405D01*
X79009861Y-35603049D01*
X79030458Y-35772691D01*
X79091058Y-35932477D01*
X79176298Y-36055968D01*
X79188134Y-36073115D01*
X79316046Y-36186436D01*
X79467361Y-36265852D01*
X79633284Y-36306749D01*
X79633285Y-36306749D01*
X79804173Y-36306749D01*
X79804174Y-36306749D01*
X79970097Y-36265852D01*
X80121412Y-36186436D01*
X80249324Y-36073115D01*
X80346400Y-35932476D01*
X80406999Y-35772692D01*
X80427597Y-35603049D01*
X80406999Y-35433406D01*
X80393234Y-35397112D01*
X80365963Y-35325205D01*
X80360595Y-35255541D01*
X80365963Y-35237260D01*
X80416998Y-35102696D01*
X80416998Y-35102694D01*
X80416999Y-35102692D01*
X80437597Y-34933049D01*
X80416999Y-34763406D01*
X80356400Y-34603622D01*
X80259324Y-34462983D01*
X80216358Y-34424918D01*
X80179233Y-34365731D01*
X80175367Y-34318221D01*
X80178204Y-34293049D01*
X80193978Y-34153049D01*
X80190816Y-34124990D01*
X80175042Y-33984991D01*
X80172357Y-33977319D01*
X80131548Y-33860691D01*
X80119183Y-33825353D01*
X80116165Y-33819086D01*
X80118462Y-33817979D01*
X80102657Y-33762065D01*
X80109610Y-33722366D01*
X80112870Y-33713049D01*
X81279861Y-33713049D01*
X81300458Y-33882691D01*
X81361058Y-34042477D01*
X81418013Y-34124990D01*
X81458134Y-34183115D01*
X81586046Y-34296436D01*
X81737361Y-34375852D01*
X81903284Y-34416749D01*
X81903285Y-34416749D01*
X82074173Y-34416749D01*
X82074174Y-34416749D01*
X82240097Y-34375852D01*
X82391412Y-34296436D01*
X82519324Y-34183115D01*
X82616400Y-34042476D01*
X82676999Y-33882692D01*
X82697597Y-33713049D01*
X82676999Y-33543406D01*
X82676095Y-33535959D01*
X82678235Y-33535699D01*
X82680816Y-33476707D01*
X82696102Y-33446368D01*
X82726400Y-33402476D01*
X82786999Y-33242692D01*
X82790298Y-33215515D01*
X82817917Y-33151338D01*
X82875850Y-33112279D01*
X82915783Y-33108538D01*
X82915783Y-33106749D01*
X83094173Y-33106749D01*
X83094174Y-33106749D01*
X83260097Y-33065852D01*
X83411412Y-32986436D01*
X83539324Y-32873115D01*
X83636400Y-32732476D01*
X83696999Y-32572692D01*
X83717597Y-32403049D01*
X83696999Y-32233406D01*
X83636400Y-32073622D01*
X83539324Y-31932983D01*
X83411412Y-31819662D01*
X83260097Y-31740246D01*
X83260096Y-31740245D01*
X83260095Y-31740245D01*
X83132083Y-31708693D01*
X83094174Y-31699349D01*
X82923284Y-31699349D01*
X82885375Y-31708693D01*
X82757359Y-31740246D01*
X82673968Y-31784012D01*
X82605459Y-31797735D01*
X82586670Y-31794611D01*
X82484175Y-31769349D01*
X82484174Y-31769349D01*
X82313284Y-31769349D01*
X82276742Y-31778356D01*
X82147362Y-31810245D01*
X81996047Y-31889661D01*
X81868134Y-32002982D01*
X81868132Y-32002985D01*
X81771058Y-32143620D01*
X81710458Y-32303406D01*
X81692523Y-32451120D01*
X81664901Y-32515298D01*
X81651656Y-32528987D01*
X81568135Y-32602981D01*
X81568132Y-32602985D01*
X81471058Y-32743620D01*
X81410458Y-32903406D01*
X81389861Y-33073049D01*
X81411363Y-33250138D01*
X81409229Y-33250397D01*
X81406625Y-33309435D01*
X81391354Y-33339728D01*
X81361059Y-33383619D01*
X81300458Y-33543406D01*
X81279861Y-33713049D01*
X80112870Y-33713049D01*
X80145043Y-33621105D01*
X80163978Y-33453051D01*
X80163978Y-33453046D01*
X80145043Y-33284992D01*
X80096183Y-33145359D01*
X80089185Y-33125359D01*
X80089184Y-33125358D01*
X80089183Y-33125354D01*
X80089181Y-33125351D01*
X79999210Y-32982164D01*
X79999205Y-32982158D01*
X79879619Y-32862572D01*
X79879613Y-32862567D01*
X79736426Y-32772596D01*
X79736423Y-32772594D01*
X79576785Y-32716734D01*
X79408732Y-32697800D01*
X79408726Y-32697800D01*
X79240672Y-32716734D01*
X79081034Y-32772594D01*
X79081031Y-32772596D01*
X78937844Y-32862567D01*
X78937838Y-32862572D01*
X78818252Y-32982158D01*
X78818247Y-32982164D01*
X78728276Y-33125351D01*
X78728274Y-33125354D01*
X78672414Y-33284992D01*
X78653480Y-33453046D01*
X69061725Y-33453046D01*
X69045043Y-33304992D01*
X68989183Y-33145354D01*
X68989181Y-33145351D01*
X68899210Y-33002164D01*
X68899205Y-33002158D01*
X68883121Y-32986074D01*
X68849636Y-32924751D01*
X68848100Y-32891850D01*
X68847597Y-32891850D01*
X68847597Y-32884349D01*
X68826999Y-32714706D01*
X68784627Y-32602983D01*
X68766400Y-32554922D01*
X68748498Y-32528987D01*
X68730993Y-32503626D01*
X68709110Y-32437272D01*
X68726575Y-32369620D01*
X68730974Y-32362773D01*
X68786400Y-32282476D01*
X68846999Y-32122692D01*
X68867597Y-31953049D01*
X68846999Y-31783406D01*
X68786400Y-31623622D01*
X68786399Y-31623620D01*
X68737283Y-31552463D01*
X68715400Y-31486108D01*
X68732866Y-31418457D01*
X68737260Y-31411616D01*
X68826400Y-31282476D01*
X68886999Y-31122692D01*
X68907597Y-30953049D01*
X68886999Y-30783406D01*
X68826400Y-30623622D01*
X68729324Y-30482983D01*
X68637667Y-30401781D01*
X68600542Y-30342592D01*
X68596800Y-30323909D01*
X68594827Y-30307658D01*
X68594826Y-30307656D01*
X68534228Y-30147873D01*
X68437152Y-30007234D01*
X68309240Y-29893913D01*
X68309238Y-29893912D01*
X68309237Y-29893911D01*
X68302799Y-29890532D01*
X68252587Y-29841948D01*
X68236612Y-29773929D01*
X68259947Y-29708071D01*
X68292249Y-29683049D01*
X79249861Y-29683049D01*
X79270458Y-29852691D01*
X79331058Y-30012477D01*
X79386710Y-30093102D01*
X79428134Y-30153115D01*
X79556046Y-30266436D01*
X79707361Y-30345852D01*
X79873284Y-30386749D01*
X79873285Y-30386749D01*
X80044173Y-30386749D01*
X80044174Y-30386749D01*
X80210097Y-30345852D01*
X80361412Y-30266436D01*
X80489324Y-30153115D01*
X80586400Y-30012476D01*
X80646999Y-29852692D01*
X80666279Y-29693901D01*
X80693901Y-29629724D01*
X80751834Y-29590667D01*
X80819051Y-29588452D01*
X80893281Y-29606748D01*
X80893282Y-29606749D01*
X80893284Y-29606749D01*
X80957784Y-29606749D01*
X81024823Y-29626434D01*
X81070578Y-29679238D01*
X81073725Y-29686776D01*
X81076428Y-29693902D01*
X81091058Y-29732476D01*
X81188134Y-29873115D01*
X81316046Y-29986436D01*
X81467361Y-30065852D01*
X81472761Y-30067183D01*
X81475097Y-30067759D01*
X81535478Y-30102915D01*
X81561365Y-30144184D01*
X81591058Y-30222477D01*
X81619019Y-30262985D01*
X81688134Y-30363115D01*
X81816046Y-30476436D01*
X81885947Y-30513122D01*
X81936160Y-30561706D01*
X81952135Y-30629725D01*
X81951418Y-30637865D01*
X81939861Y-30733048D01*
X81960458Y-30902691D01*
X82021058Y-31062477D01*
X82039648Y-31089409D01*
X82118134Y-31203115D01*
X82246046Y-31316436D01*
X82397361Y-31395852D01*
X82563284Y-31436749D01*
X82563285Y-31436749D01*
X82734173Y-31436749D01*
X82734174Y-31436749D01*
X82900097Y-31395852D01*
X83051412Y-31316436D01*
X83179324Y-31203115D01*
X83276400Y-31062476D01*
X83336999Y-30902692D01*
X83357597Y-30733049D01*
X83336999Y-30563406D01*
X83276400Y-30403622D01*
X83264753Y-30386749D01*
X83210160Y-30307657D01*
X83179324Y-30262983D01*
X83051412Y-30149662D01*
X82981509Y-30112974D01*
X82931297Y-30064390D01*
X82915322Y-29996371D01*
X82916036Y-29988261D01*
X82927597Y-29893049D01*
X82906999Y-29723406D01*
X82846400Y-29563622D01*
X82819308Y-29524373D01*
X82749325Y-29422985D01*
X82749323Y-29422982D01*
X82671032Y-29353622D01*
X82621412Y-29309662D01*
X82571385Y-29283406D01*
X82470096Y-29230245D01*
X82462356Y-29228338D01*
X82401976Y-29193180D01*
X82376092Y-29151913D01*
X82346400Y-29073621D01*
X82283821Y-28982961D01*
X82249324Y-28932983D01*
X82121412Y-28819662D01*
X81970097Y-28740246D01*
X81970096Y-28740245D01*
X81970095Y-28740245D01*
X81858447Y-28712726D01*
X81804174Y-28699349D01*
X81804173Y-28699349D01*
X81739674Y-28699349D01*
X81672635Y-28679664D01*
X81626880Y-28626860D01*
X81623733Y-28619322D01*
X81606400Y-28573623D01*
X81606400Y-28573622D01*
X81509324Y-28432983D01*
X81381412Y-28319662D01*
X81230097Y-28240246D01*
X81230096Y-28240245D01*
X81230095Y-28240245D01*
X81118447Y-28212726D01*
X81064174Y-28199349D01*
X80965192Y-28199349D01*
X80898153Y-28179664D01*
X80852398Y-28126860D01*
X80849250Y-28119321D01*
X80841399Y-28098620D01*
X80759475Y-27979933D01*
X80744324Y-27957983D01*
X80616412Y-27844662D01*
X80465097Y-27765246D01*
X80465096Y-27765245D01*
X80465095Y-27765245D01*
X80347117Y-27736166D01*
X80299174Y-27724349D01*
X80128284Y-27724349D01*
X80087388Y-27734429D01*
X79962362Y-27765245D01*
X79811047Y-27844661D01*
X79683134Y-27957982D01*
X79683132Y-27957985D01*
X79586058Y-28098620D01*
X79525458Y-28258406D01*
X79504861Y-28428049D01*
X79525458Y-28597691D01*
X79586058Y-28757477D01*
X79604907Y-28784784D01*
X79663494Y-28869662D01*
X79671949Y-28881910D01*
X79693832Y-28948264D01*
X79676367Y-29015916D01*
X79627525Y-29062146D01*
X79556048Y-29099660D01*
X79428134Y-29212982D01*
X79428132Y-29212985D01*
X79331058Y-29353620D01*
X79270458Y-29513406D01*
X79249861Y-29683049D01*
X68292249Y-29683049D01*
X68315183Y-29665284D01*
X68330746Y-29660340D01*
X68430097Y-29635852D01*
X68581412Y-29556436D01*
X68709324Y-29443115D01*
X68806400Y-29302476D01*
X68866999Y-29142692D01*
X68887597Y-28973049D01*
X68866999Y-28803406D01*
X68806400Y-28643622D01*
X68779400Y-28604506D01*
X68713906Y-28509621D01*
X68692860Y-28454127D01*
X68690308Y-28433112D01*
X68671761Y-28280356D01*
X68611162Y-28120572D01*
X68610298Y-28119321D01*
X68514087Y-27979935D01*
X68514086Y-27979933D01*
X68514083Y-27979930D01*
X68514081Y-27979928D01*
X68387437Y-27867731D01*
X68350310Y-27808542D01*
X68348492Y-27799464D01*
X68346999Y-27793408D01*
X68346999Y-27793406D01*
X68301892Y-27674472D01*
X68296526Y-27604812D01*
X68301891Y-27586539D01*
X68323602Y-27529295D01*
X68344200Y-27359652D01*
X68342194Y-27343133D01*
X68353654Y-27274212D01*
X68400557Y-27222426D01*
X68468013Y-27204218D01*
X68479174Y-27204968D01*
X68508727Y-27208298D01*
X68508729Y-27208298D01*
X68508732Y-27208298D01*
X68676785Y-27189363D01*
X68696753Y-27182376D01*
X68836419Y-27133505D01*
X68836421Y-27133503D01*
X68836423Y-27133503D01*
X68836426Y-27133501D01*
X68979613Y-27043530D01*
X68979614Y-27043529D01*
X68979619Y-27043526D01*
X69099206Y-26923939D01*
X69099210Y-26923933D01*
X69189181Y-26780746D01*
X69189183Y-26780743D01*
X69189183Y-26780741D01*
X69189185Y-26780739D01*
X69245042Y-26621108D01*
X69245042Y-26621107D01*
X69245043Y-26621105D01*
X69263978Y-26453051D01*
X69263978Y-26453047D01*
X69255897Y-26381331D01*
X69254705Y-26370754D01*
X69266759Y-26301934D01*
X69295698Y-26264056D01*
X69377657Y-26191446D01*
X69377662Y-26191442D01*
X69474738Y-26050803D01*
X69535337Y-25891019D01*
X69555935Y-25721376D01*
X69535337Y-25551733D01*
X69474738Y-25391949D01*
X69377662Y-25251310D01*
X69249750Y-25137989D01*
X69098435Y-25058573D01*
X69098434Y-25058572D01*
X69098433Y-25058572D01*
X68959390Y-25024301D01*
X68932512Y-25017676D01*
X68761622Y-25017676D01*
X68734744Y-25024301D01*
X68595700Y-25058572D01*
X68444385Y-25137988D01*
X68316472Y-25251309D01*
X68316470Y-25251312D01*
X68219396Y-25391947D01*
X68158796Y-25551733D01*
X68138199Y-25721375D01*
X68138199Y-25728876D01*
X68135373Y-25728876D01*
X68126068Y-25784814D01*
X68080411Y-25835821D01*
X68037839Y-25862571D01*
X67918252Y-25982158D01*
X67918247Y-25982164D01*
X67828276Y-26125351D01*
X67828274Y-26125354D01*
X67772414Y-26284992D01*
X67753480Y-26453046D01*
X67753480Y-26453051D01*
X67760806Y-26518068D01*
X67748752Y-26586890D01*
X67701403Y-26638269D01*
X67637586Y-26655952D01*
X67549887Y-26655952D01*
X67508991Y-26666032D01*
X67383965Y-26696848D01*
X67232650Y-26776264D01*
X67104737Y-26889585D01*
X67104735Y-26889588D01*
X67007661Y-27030223D01*
X66947061Y-27190009D01*
X66926464Y-27359652D01*
X66947062Y-27529295D01*
X66992166Y-27648225D01*
X66997533Y-27717888D01*
X66992166Y-27736166D01*
X66970459Y-27793402D01*
X66970459Y-27793404D01*
X66949861Y-27963049D01*
X66970458Y-28132691D01*
X67031058Y-28292477D01*
X67049822Y-28319661D01*
X67128134Y-28433115D01*
X67151851Y-28454127D01*
X67254782Y-28545316D01*
X67291908Y-28604506D01*
X67293728Y-28613586D01*
X67295221Y-28619642D01*
X67317222Y-28677653D01*
X67322589Y-28747316D01*
X67289442Y-28808823D01*
X67258906Y-28831421D01*
X67186048Y-28869660D01*
X67058134Y-28982982D01*
X67058132Y-28982985D01*
X66961058Y-29123620D01*
X66900458Y-29283406D01*
X66879861Y-29453049D01*
X62500500Y-29453049D01*
X62500500Y-26448370D01*
X62520185Y-26381331D01*
X62572989Y-26335576D01*
X62642147Y-26325632D01*
X62682124Y-26338572D01*
X62791261Y-26395852D01*
X62957184Y-26436749D01*
X62957185Y-26436749D01*
X63128073Y-26436749D01*
X63128074Y-26436749D01*
X63293997Y-26395852D01*
X63445312Y-26316436D01*
X63573224Y-26203115D01*
X63670300Y-26062476D01*
X63730899Y-25902692D01*
X63751497Y-25733049D01*
X63734645Y-25594256D01*
X63746106Y-25525333D01*
X63793010Y-25473547D01*
X63808383Y-25466010D01*
X63812492Y-25463853D01*
X63812497Y-25463852D01*
X63963812Y-25384436D01*
X64091724Y-25271115D01*
X64188800Y-25130476D01*
X64249399Y-24970692D01*
X64269997Y-24801049D01*
X64249399Y-24631406D01*
X64249397Y-24631402D01*
X64248547Y-24624396D01*
X64260007Y-24555472D01*
X64306911Y-24503686D01*
X64374367Y-24485479D01*
X64419883Y-24497231D01*
X64420353Y-24495994D01*
X64427359Y-24498651D01*
X64427361Y-24498652D01*
X64593284Y-24539549D01*
X64593285Y-24539549D01*
X64764173Y-24539549D01*
X64764174Y-24539549D01*
X64930097Y-24498652D01*
X65081412Y-24419236D01*
X65166509Y-24343846D01*
X69308280Y-24343846D01*
X69308280Y-24343851D01*
X69327214Y-24511905D01*
X69383074Y-24671543D01*
X69383076Y-24671546D01*
X69473047Y-24814733D01*
X69473052Y-24814739D01*
X69592638Y-24934325D01*
X69592644Y-24934330D01*
X69735831Y-25024301D01*
X69735837Y-25024304D01*
X69735839Y-25024305D01*
X69790318Y-25043368D01*
X69895472Y-25080163D01*
X69916589Y-25082542D01*
X69981003Y-25109608D01*
X70018648Y-25161789D01*
X70034337Y-25203154D01*
X70045458Y-25232476D01*
X70142534Y-25373115D01*
X70270446Y-25486436D01*
X70421761Y-25565852D01*
X70587684Y-25606749D01*
X70587685Y-25606749D01*
X70758573Y-25606749D01*
X70758574Y-25606749D01*
X70924497Y-25565852D01*
X71075812Y-25486436D01*
X71203724Y-25373115D01*
X71300800Y-25232476D01*
X71361399Y-25072692D01*
X71381997Y-24903049D01*
X71769861Y-24903049D01*
X71790458Y-25072691D01*
X71851058Y-25232477D01*
X71886212Y-25283406D01*
X71948134Y-25373115D01*
X72076046Y-25486436D01*
X72227361Y-25565852D01*
X72393284Y-25606749D01*
X72393285Y-25606749D01*
X72564173Y-25606749D01*
X72564174Y-25606749D01*
X72730097Y-25565852D01*
X72881412Y-25486436D01*
X72896500Y-25473068D01*
X72959732Y-25443346D01*
X73028996Y-25452527D01*
X73060957Y-25473068D01*
X73062624Y-25474545D01*
X73076044Y-25486435D01*
X73076046Y-25486436D01*
X73227361Y-25565852D01*
X73393284Y-25606749D01*
X73393285Y-25606749D01*
X73564173Y-25606749D01*
X73564174Y-25606749D01*
X73730097Y-25565852D01*
X73881412Y-25486436D01*
X74009324Y-25373115D01*
X74106400Y-25232476D01*
X74166999Y-25072692D01*
X74187597Y-24903049D01*
X74184037Y-24873726D01*
X74759842Y-24873726D01*
X74780439Y-25043368D01*
X74841039Y-25203154D01*
X74926036Y-25326292D01*
X74938115Y-25343792D01*
X75066027Y-25457113D01*
X75217342Y-25536529D01*
X75383265Y-25577426D01*
X75383266Y-25577426D01*
X75554154Y-25577426D01*
X75554155Y-25577426D01*
X75720078Y-25536529D01*
X75799445Y-25494873D01*
X75867950Y-25481148D01*
X75886746Y-25484274D01*
X75895514Y-25486435D01*
X75936167Y-25496455D01*
X75936168Y-25496456D01*
X75936170Y-25496456D01*
X76107059Y-25496456D01*
X76107060Y-25496456D01*
X76272983Y-25455559D01*
X76312427Y-25434856D01*
X76380934Y-25421130D01*
X76399730Y-25424255D01*
X76492281Y-25447068D01*
X76492282Y-25447069D01*
X76492284Y-25447069D01*
X76663176Y-25447069D01*
X76663176Y-25447068D01*
X76793069Y-25415052D01*
X76862871Y-25418120D01*
X76880370Y-25425651D01*
X76884249Y-25427687D01*
X77050172Y-25468584D01*
X77050173Y-25468584D01*
X77221064Y-25468584D01*
X77221064Y-25468583D01*
X77363364Y-25433509D01*
X77433165Y-25436577D01*
X77450662Y-25444107D01*
X77587361Y-25515852D01*
X77753284Y-25556749D01*
X77753285Y-25556749D01*
X77924176Y-25556749D01*
X77924176Y-25556748D01*
X78049014Y-25525978D01*
X78118816Y-25529046D01*
X78136313Y-25536576D01*
X78174748Y-25556748D01*
X78196408Y-25568116D01*
X78246621Y-25616701D01*
X78254725Y-25633941D01*
X78311058Y-25782477D01*
X78366344Y-25862572D01*
X78408134Y-25923115D01*
X78536046Y-26036436D01*
X78687361Y-26115852D01*
X78853284Y-26156749D01*
X78853285Y-26156749D01*
X79024173Y-26156749D01*
X79024174Y-26156749D01*
X79190097Y-26115852D01*
X79341412Y-26036436D01*
X79469324Y-25923115D01*
X79566400Y-25782476D01*
X79626999Y-25622692D01*
X79647597Y-25453049D01*
X79626999Y-25283406D01*
X79566400Y-25123622D01*
X79536402Y-25080163D01*
X79469325Y-24982985D01*
X79469323Y-24982982D01*
X79452853Y-24968391D01*
X79341412Y-24869662D01*
X79338789Y-24868285D01*
X79281047Y-24837979D01*
X79230835Y-24789394D01*
X79222732Y-24772155D01*
X79208036Y-24733406D01*
X79166400Y-24623622D01*
X79119359Y-24555472D01*
X79083614Y-24503686D01*
X79069324Y-24482983D01*
X78941412Y-24369662D01*
X78790097Y-24290246D01*
X78790096Y-24290245D01*
X78790095Y-24290245D01*
X78678447Y-24262726D01*
X78624174Y-24249349D01*
X78453284Y-24249349D01*
X78453283Y-24249349D01*
X78328442Y-24280120D01*
X78258640Y-24277051D01*
X78241142Y-24269520D01*
X78090095Y-24190245D01*
X77978447Y-24162726D01*
X77924174Y-24149349D01*
X77753284Y-24149349D01*
X77753283Y-24149349D01*
X77610980Y-24184424D01*
X77541178Y-24181355D01*
X77523680Y-24173824D01*
X77486554Y-24154339D01*
X77386985Y-24102081D01*
X77386984Y-24102080D01*
X77386983Y-24102080D01*
X77255458Y-24069662D01*
X77221062Y-24061184D01*
X77050172Y-24061184D01*
X77050171Y-24061184D01*
X76920275Y-24093201D01*
X76850473Y-24090132D01*
X76832981Y-24082604D01*
X76829097Y-24080566D01*
X76829098Y-24080566D01*
X76746135Y-24060117D01*
X76663174Y-24039669D01*
X76492284Y-24039669D01*
X76436976Y-24053301D01*
X76326359Y-24080566D01*
X76286911Y-24101269D01*
X76218402Y-24114992D01*
X76199614Y-24111868D01*
X76107061Y-24089056D01*
X76107060Y-24089056D01*
X75936170Y-24089056D01*
X75902525Y-24097349D01*
X75770249Y-24129952D01*
X75690878Y-24171608D01*
X75622369Y-24185331D01*
X75603581Y-24182207D01*
X75554158Y-24170026D01*
X75554155Y-24170026D01*
X75383265Y-24170026D01*
X75359880Y-24175790D01*
X75217343Y-24210922D01*
X75066028Y-24290338D01*
X74938115Y-24403659D01*
X74938113Y-24403662D01*
X74841039Y-24544297D01*
X74780439Y-24704083D01*
X74759842Y-24873726D01*
X74184037Y-24873726D01*
X74166999Y-24733406D01*
X74106400Y-24573622D01*
X74086158Y-24544297D01*
X74043836Y-24482982D01*
X74009324Y-24432983D01*
X73993807Y-24419236D01*
X73985773Y-24412118D01*
X73948648Y-24352928D01*
X73949416Y-24283062D01*
X73980317Y-24231627D01*
X74057606Y-24154339D01*
X74057610Y-24154333D01*
X74147581Y-24011146D01*
X74147583Y-24011143D01*
X74147583Y-24011141D01*
X74147585Y-24011139D01*
X74203442Y-23851508D01*
X74203442Y-23851507D01*
X74203443Y-23851505D01*
X74222378Y-23683451D01*
X74222378Y-23683446D01*
X74203443Y-23515392D01*
X74172989Y-23428362D01*
X74147585Y-23355759D01*
X74147584Y-23355758D01*
X74147583Y-23355754D01*
X74147581Y-23355751D01*
X74057610Y-23212564D01*
X74057605Y-23212558D01*
X73938019Y-23092972D01*
X73938013Y-23092967D01*
X73794826Y-23002996D01*
X73794823Y-23002994D01*
X73635185Y-22947134D01*
X73467132Y-22928200D01*
X73467126Y-22928200D01*
X73299072Y-22947134D01*
X73139434Y-23002994D01*
X73139431Y-23002996D01*
X72996244Y-23092967D01*
X72996238Y-23092972D01*
X72876652Y-23212558D01*
X72876647Y-23212564D01*
X72786676Y-23355751D01*
X72786674Y-23355754D01*
X72730814Y-23515392D01*
X72711880Y-23683446D01*
X72711880Y-23683451D01*
X72730814Y-23851503D01*
X72730817Y-23851513D01*
X72735947Y-23866175D01*
X72739508Y-23935954D01*
X72704778Y-23996580D01*
X72676533Y-24016922D01*
X72633193Y-24039669D01*
X72576043Y-24069663D01*
X72464360Y-24168607D01*
X72401127Y-24198329D01*
X72397079Y-24198888D01*
X72393286Y-24199348D01*
X72227362Y-24240245D01*
X72076047Y-24319661D01*
X71948134Y-24432982D01*
X71948132Y-24432985D01*
X71851058Y-24573620D01*
X71790458Y-24733406D01*
X71769861Y-24903049D01*
X71381997Y-24903049D01*
X71361399Y-24733406D01*
X71300800Y-24573622D01*
X71280558Y-24544297D01*
X71238236Y-24482982D01*
X71203724Y-24432983D01*
X71075812Y-24319662D01*
X70924497Y-24240246D01*
X70924494Y-24240245D01*
X70924492Y-24240244D01*
X70877948Y-24228771D01*
X70817568Y-24193614D01*
X70790583Y-24149329D01*
X70752211Y-24039669D01*
X70743985Y-24016159D01*
X70743982Y-24016154D01*
X70743981Y-24016151D01*
X70654010Y-23872964D01*
X70654005Y-23872958D01*
X70534419Y-23753372D01*
X70534413Y-23753367D01*
X70391226Y-23663396D01*
X70391223Y-23663394D01*
X70231585Y-23607534D01*
X70063532Y-23588600D01*
X70063526Y-23588600D01*
X69895472Y-23607534D01*
X69735834Y-23663394D01*
X69735831Y-23663396D01*
X69592644Y-23753367D01*
X69592638Y-23753372D01*
X69473052Y-23872958D01*
X69473047Y-23872964D01*
X69383076Y-24016151D01*
X69383074Y-24016154D01*
X69327214Y-24175792D01*
X69308280Y-24343846D01*
X65166509Y-24343846D01*
X65209324Y-24305915D01*
X65241290Y-24259602D01*
X65295571Y-24215613D01*
X65313662Y-24209647D01*
X65395565Y-24189460D01*
X65546880Y-24110044D01*
X65674792Y-23996723D01*
X65771868Y-23856084D01*
X65781336Y-23831118D01*
X65823510Y-23775417D01*
X65839649Y-23765294D01*
X65939815Y-23712724D01*
X66067727Y-23599403D01*
X66142823Y-23490606D01*
X66197106Y-23446617D01*
X66215195Y-23440651D01*
X66250897Y-23431852D01*
X66402212Y-23352436D01*
X66530124Y-23239115D01*
X66591972Y-23149511D01*
X66646252Y-23105523D01*
X66664338Y-23099558D01*
X66758897Y-23076252D01*
X66910212Y-22996836D01*
X67038124Y-22883515D01*
X67135200Y-22742876D01*
X67195799Y-22583092D01*
X67198543Y-22560491D01*
X67226161Y-22496317D01*
X67264012Y-22465641D01*
X67316612Y-22438036D01*
X67444524Y-22324715D01*
X67541600Y-22184076D01*
X67602199Y-22024292D01*
X67622797Y-21854649D01*
X67602199Y-21685006D01*
X67541600Y-21525222D01*
X67513886Y-21485072D01*
X67444525Y-21384585D01*
X67444523Y-21384582D01*
X67388693Y-21335121D01*
X67316612Y-21271262D01*
X67165297Y-21191846D01*
X67165295Y-21191845D01*
X67158656Y-21188361D01*
X67159655Y-21186455D01*
X67112553Y-21150779D01*
X67088506Y-21085178D01*
X67103743Y-21016990D01*
X67126614Y-20987339D01*
X67548319Y-20584803D01*
X67610403Y-20552754D01*
X67633937Y-20550500D01*
X75530799Y-20550500D01*
X75597838Y-20570185D01*
G37*
%TD.AperFunction*%
M02*
