M48
; DRILL file {KiCad 8.0.8} date 2025-02-15T11:44:24-0500
; FORMAT={-:-/ absolute / metric / decimal}
; #@! TF.CreationDate,2025-02-15T11:44:24-05:00
; #@! TF.GenerationSoftware,Kicad,Pcbnew,8.0.8
; #@! TF.FileFunction,Plated,1,4,PTH
FMAT,2
METRIC
; #@! TA.AperFunction,Plated,PTH,ViaDrill
T1C0.203
; #@! TA.AperFunction,Plated,PTH,ViaDrill
T2C0.250
; #@! TA.AperFunction,Plated,PTH,ComponentDrill
T3C0.800
; #@! TA.AperFunction,Plated,PTH,ComponentDrill
T4C3.500
%
G90
G05
T1
X63.043Y-25.733
X63.053Y-25.157
X63.561Y-24.801
X64.679Y-23.836
X65.144Y-23.527
X65.537Y-23.129
X66.0Y-22.769
X66.508Y-22.413
X66.914Y-21.855
X67.589Y-29.453
X67.635Y-27.36
X67.641Y-32.4
X67.659Y-27.963
X67.883Y-31.419
X67.907Y-30.477
X67.983Y-28.45
X68.069Y-35.503
X68.139Y-32.884
X68.159Y-31.953
X68.179Y-28.973
X68.199Y-30.953
X68.469Y-35.933
X68.847Y-25.721
X68.979Y-36.333
X69.509Y-36.613
X70.149Y-36.963
X70.673Y-24.903
X70.909Y-37.373
X71.609Y-37.113
X72.439Y-36.978
X72.479Y-24.903
X72.682Y-37.481
X72.979Y-24.653
X73.229Y-38.874
X73.269Y-37.643
X73.479Y-24.903
X75.039Y-30.403
X75.039Y-35.853
X75.469Y-24.874
X75.639Y-35.853
X76.022Y-24.793
X76.227Y-36.257
X76.578Y-24.743
X76.781Y-36.18
X77.136Y-24.765
X77.287Y-35.943
X77.739Y-30.953
X77.802Y-35.727
X77.839Y-24.853
X78.539Y-24.953
X78.939Y-25.453
X79.719Y-35.603
X79.729Y-34.933
X79.959Y-29.683
X80.214Y-28.428
X80.979Y-28.903
X81.719Y-29.403
X81.9Y-36.028
X81.989Y-33.713
X82.099Y-33.073
X82.219Y-29.893
X82.306Y-35.469
X82.399Y-32.473
X82.649Y-30.733
X83.009Y-32.403
T2
X62.939Y-38.003
X66.859Y-26.963
X67.439Y-21.042
X67.676Y-24.445
X68.209Y-29.953
X68.309Y-33.473
X68.329Y-27.953
X68.369Y-34.293
X68.509Y-26.453
X68.859Y-34.923
X70.064Y-24.344
X71.539Y-24.353
X73.467Y-23.683
X73.979Y-35.653
X74.724Y-24.851
X75.339Y-37.553
X76.515Y-38.009
X78.519Y-38.771
X78.573Y-37.933
X79.339Y-27.953
X79.359Y-32.743
X79.409Y-33.453
X79.439Y-30.963
X79.439Y-34.153
X79.834Y-37.348
X80.839Y-36.953
X81.339Y-27.653
X82.408Y-38.314
X83.339Y-30.653
X83.599Y-37.646
X83.881Y-29.068
X83.939Y-24.453
T3
X83.239Y-21.703
X83.239Y-26.583
T4
X77.45Y-20.5
M30
