%TF.GenerationSoftware,KiCad,Pcbnew,8.0.8*%
%TF.CreationDate,2025-02-15T11:44:30-05:00*%
%TF.ProjectId,caravel-M.2-card-QFN,63617261-7665-46c2-9d4d-2e322d636172,1*%
%TF.SameCoordinates,Original*%
%TF.FileFunction,Paste,Top*%
%TF.FilePolarity,Positive*%
%FSLAX46Y46*%
G04 Gerber Fmt 4.6, Leading zero omitted, Abs format (unit mm)*
G04 Created by KiCad (PCBNEW 8.0.8) date 2025-02-15 11:44:30*
%MOMM*%
%LPD*%
G01*
G04 APERTURE LIST*
G04 Aperture macros list*
%AMRoundRect*
0 Rectangle with rounded corners*
0 $1 Rounding radius*
0 $2 $3 $4 $5 $6 $7 $8 $9 X,Y pos of 4 corners*
0 Add a 4 corners polygon primitive as box body*
4,1,4,$2,$3,$4,$5,$6,$7,$8,$9,$2,$3,0*
0 Add four circle primitives for the rounded corners*
1,1,$1+$1,$2,$3*
1,1,$1+$1,$4,$5*
1,1,$1+$1,$6,$7*
1,1,$1+$1,$8,$9*
0 Add four rect primitives between the rounded corners*
20,1,$1+$1,$2,$3,$4,$5,0*
20,1,$1+$1,$4,$5,$6,$7,0*
20,1,$1+$1,$6,$7,$8,$9,0*
20,1,$1+$1,$8,$9,$2,$3,0*%
G04 Aperture macros list end*
%ADD10RoundRect,0.140000X-0.140000X-0.170000X0.140000X-0.170000X0.140000X0.170000X-0.140000X0.170000X0*%
%ADD11RoundRect,0.140000X0.140000X0.170000X-0.140000X0.170000X-0.140000X-0.170000X0.140000X-0.170000X0*%
%ADD12RoundRect,0.140000X-0.170000X0.140000X-0.170000X-0.140000X0.170000X-0.140000X0.170000X0.140000X0*%
%ADD13RoundRect,0.250000X0.265000X-0.265000X0.265000X0.265000X-0.265000X0.265000X-0.265000X-0.265000X0*%
%ADD14RoundRect,0.062500X0.062500X-0.362500X0.062500X0.362500X-0.062500X0.362500X-0.062500X-0.362500X0*%
%ADD15RoundRect,0.062500X0.362500X-0.062500X0.362500X0.062500X-0.362500X0.062500X-0.362500X-0.062500X0*%
%ADD16RoundRect,0.140000X0.170000X-0.140000X0.170000X0.140000X-0.170000X0.140000X-0.170000X-0.140000X0*%
G04 APERTURE END LIST*
D10*
X74058729Y-24053049D03*
X75018729Y-24053049D03*
D11*
X81288729Y-34113049D03*
X80328729Y-34113049D03*
D10*
X66468729Y-34483049D03*
X67428729Y-34483049D03*
X66858729Y-26223049D03*
X67818729Y-26223049D03*
D11*
X69375129Y-24453049D03*
X68415129Y-24453049D03*
D10*
X66468729Y-33233049D03*
X67428729Y-33233049D03*
D12*
X79938729Y-26473049D03*
X79938729Y-27433049D03*
D13*
X70528729Y-33403049D03*
X71808729Y-33403049D03*
X73088729Y-33403049D03*
X74368729Y-33403049D03*
X75648729Y-33403049D03*
X76928729Y-33403049D03*
X70528729Y-32123049D03*
X71808729Y-32123049D03*
X73088729Y-32123049D03*
X74368729Y-32123049D03*
X75648729Y-32123049D03*
X76928729Y-32123049D03*
X70528729Y-30843049D03*
X71808729Y-30843049D03*
X73088729Y-30843049D03*
X74368729Y-30843049D03*
X75648729Y-30843049D03*
X76928729Y-30843049D03*
X70528729Y-29563049D03*
X71808729Y-29563049D03*
X73088729Y-29563049D03*
X74368729Y-29563049D03*
X75648729Y-29563049D03*
X76928729Y-29563049D03*
X70528729Y-28283049D03*
X71808729Y-28283049D03*
X73088729Y-28283049D03*
X74368729Y-28283049D03*
X75648729Y-28283049D03*
X76928729Y-28283049D03*
X70528729Y-27003049D03*
X71808729Y-27003049D03*
X73088729Y-27003049D03*
X74368729Y-27003049D03*
X75648729Y-27003049D03*
X76928729Y-27003049D03*
D14*
X69978729Y-34653049D03*
X70478729Y-34653049D03*
X70978729Y-34653049D03*
X71478729Y-34653049D03*
X71978729Y-34653049D03*
X72478729Y-34653049D03*
X72978729Y-34653049D03*
X73478729Y-34653049D03*
X73978729Y-34653049D03*
X74478729Y-34653049D03*
X74978729Y-34653049D03*
X75478729Y-34653049D03*
X75978729Y-34653049D03*
X76478729Y-34653049D03*
X76978729Y-34653049D03*
X77478729Y-34653049D03*
D15*
X78178729Y-33953049D03*
X78178729Y-33453049D03*
X78178729Y-32953049D03*
X78178729Y-32453049D03*
X78178729Y-31953049D03*
X78178729Y-31453049D03*
X78178729Y-30953049D03*
X78178729Y-30453049D03*
X78178729Y-29953049D03*
X78178729Y-29453049D03*
X78178729Y-28953049D03*
X78178729Y-28453049D03*
X78178729Y-27953049D03*
X78178729Y-27453049D03*
X78178729Y-26953049D03*
X78178729Y-26453049D03*
D14*
X77478729Y-25753049D03*
X76978729Y-25753049D03*
X76478729Y-25753049D03*
X75978729Y-25753049D03*
X75478729Y-25753049D03*
X74978729Y-25753049D03*
X74478729Y-25753049D03*
X73978729Y-25753049D03*
X73478729Y-25753049D03*
X72978729Y-25753049D03*
X72478729Y-25753049D03*
X71978729Y-25753049D03*
X71478729Y-25753049D03*
X70978729Y-25753049D03*
X70478729Y-25753049D03*
X69978729Y-25753049D03*
D15*
X69278729Y-26453049D03*
X69278729Y-26953049D03*
X69278729Y-27453049D03*
X69278729Y-27953049D03*
X69278729Y-28453049D03*
X69278729Y-28953049D03*
X69278729Y-29453049D03*
X69278729Y-29953049D03*
X69278729Y-30453049D03*
X69278729Y-30953049D03*
X69278729Y-31453049D03*
X69278729Y-31953049D03*
X69278729Y-32453049D03*
X69278729Y-32953049D03*
X69278729Y-33453049D03*
X69278729Y-33953049D03*
D16*
X73958729Y-37243049D03*
X73958729Y-36283049D03*
D11*
X81288729Y-33046249D03*
X80328729Y-33046249D03*
M02*
